<svg 
 xmlns="http://www.w3.org/2000/svg"
 xmlns:xlink="http://www.w3.org/1999/xlink"
 width="41px" height="43px">
<defs>
<linearGradient id="PSgrad_0" x1="0%" x2="73.135%" y1="68.2%" y2="0%">
  <stop offset="0%" stop-color="rgb(106,244,249)" stop-opacity="1" />
  <stop offset="100%" stop-color="rgb(46,176,236)" stop-opacity="1" />
</linearGradient>

</defs>
<path fill-rule="evenodd"  fill="rgb(255, 255, 255)"
 d="M38.267,25.544 L38.267,40.314 C38.267,41.797 37.043,42.999 35.533,42.999 L5.466,42.999 C3.957,42.999 2.733,41.797 2.733,40.314 L2.733,25.544 C1.224,25.544 -0.000,24.342 -0.000,22.859 L-0.000,16.145 C-0.000,14.662 1.224,13.459 2.733,13.459 L15.613,13.459 C13.117,13.288 10.746,12.462 8.733,11.105 C8.769,11.094 8.801,11.076 8.836,11.064 C7.110,10.102 5.772,8.480 5.290,6.430 C5.183,5.975 5.138,5.521 5.121,5.070 C5.098,4.812 5.098,4.557 5.120,4.304 C5.121,4.296 5.121,4.287 5.122,4.278 C5.140,4.084 5.164,3.894 5.207,3.706 C5.286,3.213 5.397,2.729 5.574,2.268 C5.856,1.974 6.170,1.711 6.501,1.465 C7.068,0.933 7.771,0.526 8.591,0.340 C8.688,0.318 8.785,0.320 8.882,0.304 C9.009,0.268 9.127,0.219 9.257,0.190 C11.913,-0.414 14.543,0.503 16.275,2.335 C16.277,2.322 16.282,2.310 16.284,2.296 C18.105,4.049 19.463,6.307 20.080,8.928 C20.120,9.097 20.126,9.264 20.159,9.431 L20.841,9.431 C20.874,9.264 20.880,9.097 20.920,8.928 C21.536,6.307 22.895,4.049 24.716,2.296 C24.718,2.310 24.723,2.322 24.725,2.335 C26.456,0.503 29.087,-0.414 31.743,0.190 C31.873,0.219 31.991,0.268 32.117,0.304 C32.215,0.320 32.311,0.318 32.409,0.340 C33.229,0.526 33.931,0.933 34.499,1.465 C34.830,1.711 35.144,1.974 35.426,2.268 C35.602,2.729 35.714,3.213 35.793,3.706 C35.836,3.894 35.860,4.084 35.878,4.278 C35.878,4.287 35.879,4.296 35.880,4.304 C35.901,4.557 35.902,4.812 35.878,5.070 C35.862,5.521 35.817,5.975 35.710,6.430 C35.228,8.480 33.890,10.102 32.164,11.064 C32.199,11.076 32.231,11.094 32.266,11.105 C30.253,12.462 27.883,13.288 25.387,13.459 L38.267,13.459 C39.776,13.459 41.000,14.662 41.000,16.145 L41.000,22.859 C41.000,24.342 39.776,25.544 38.267,25.544 ZM23.233,40.314 L34.167,40.314 C34.921,40.314 35.533,39.713 35.533,38.971 L35.533,25.544 C35.533,24.803 34.921,24.201 34.167,24.201 L23.233,24.201 L23.233,40.314 ZM16.738,8.178 C16.258,6.739 15.378,5.460 14.260,4.430 C14.260,4.437 14.258,4.443 14.257,4.450 C13.186,3.383 11.652,2.763 10.179,2.960 C10.107,2.969 10.043,2.991 9.973,3.003 C9.919,3.008 9.864,3.002 9.810,3.009 C9.355,3.070 8.978,3.255 8.683,3.514 C8.508,3.630 8.344,3.756 8.199,3.900 C8.122,4.140 8.083,4.396 8.063,4.657 C8.048,4.756 8.043,4.857 8.043,4.960 C8.043,4.965 8.043,4.970 8.043,4.975 C8.043,5.109 8.056,5.247 8.082,5.387 C8.114,5.629 8.161,5.876 8.245,6.126 C8.620,7.251 9.457,8.187 10.482,8.788 C10.462,8.792 10.445,8.800 10.426,8.806 C12.275,10.071 14.536,10.724 16.717,10.432 C16.855,10.414 16.986,10.383 17.120,10.357 C17.108,9.654 16.985,8.922 16.738,8.178 ZM17.767,13.437 C17.649,13.447 17.532,13.453 17.415,13.459 L17.767,13.459 L17.767,13.437 ZM17.767,16.145 L4.100,16.145 C3.345,16.145 2.733,16.746 2.733,17.488 L2.733,21.516 C2.733,22.257 3.345,22.859 4.100,22.859 L17.767,22.859 L17.767,16.145 ZM17.767,24.201 L6.833,24.201 C6.078,24.201 5.466,24.803 5.466,25.544 L5.466,38.971 C5.466,39.713 6.078,40.314 6.833,40.314 L17.767,40.314 L17.767,24.201 ZM19.133,13.459 L19.133,41.656 L21.867,41.656 L21.867,13.459 L19.133,13.459 ZM30.574,8.806 C30.554,8.800 30.537,8.792 30.518,8.788 C31.543,8.187 32.380,7.251 32.755,6.126 C32.838,5.876 32.886,5.629 32.918,5.387 C32.944,5.247 32.956,5.109 32.957,4.975 C32.957,4.970 32.957,4.965 32.957,4.960 C32.956,4.857 32.952,4.756 32.937,4.657 C32.917,4.396 32.878,4.140 32.801,3.900 C32.656,3.756 32.491,3.630 32.317,3.514 C32.022,3.255 31.644,3.070 31.190,3.009 C31.136,3.002 31.081,3.008 31.027,3.003 C30.957,2.991 30.893,2.969 30.821,2.960 C29.348,2.763 27.814,3.383 26.743,4.450 C26.742,4.443 26.740,4.437 26.740,4.430 C25.622,5.460 24.741,6.739 24.262,8.178 C24.014,8.922 23.892,9.654 23.880,10.357 C24.014,10.383 24.144,10.414 24.283,10.432 C26.464,10.724 28.725,10.071 30.574,8.806 ZM23.233,13.437 L23.233,13.459 L23.584,13.459 C23.467,13.453 23.351,13.447 23.233,13.437 ZM38.267,17.488 C38.267,16.746 37.655,16.145 36.900,16.145 L23.233,16.145 L23.233,22.859 L36.900,22.859 C37.655,22.859 38.267,22.257 38.267,21.516 L38.267,17.488 Z"/>
<path fill="url(#PSgrad_0)"
 d="M38.267,25.544 L38.267,40.314 C38.267,41.797 37.043,42.999 35.533,42.999 L5.466,42.999 C3.957,42.999 2.733,41.797 2.733,40.314 L2.733,25.544 C1.224,25.544 -0.000,24.342 -0.000,22.859 L-0.000,16.145 C-0.000,14.662 1.224,13.459 2.733,13.459 L15.613,13.459 C13.117,13.288 10.746,12.462 8.733,11.105 C8.769,11.094 8.801,11.076 8.836,11.064 C7.110,10.102 5.772,8.480 5.290,6.430 C5.183,5.975 5.138,5.521 5.121,5.070 C5.098,4.812 5.098,4.557 5.120,4.304 C5.121,4.296 5.121,4.287 5.122,4.278 C5.140,4.084 5.164,3.894 5.207,3.706 C5.286,3.213 5.397,2.729 5.574,2.268 C5.856,1.974 6.170,1.711 6.501,1.465 C7.068,0.933 7.771,0.526 8.591,0.340 C8.688,0.318 8.785,0.320 8.882,0.304 C9.009,0.268 9.127,0.219 9.257,0.190 C11.913,-0.414 14.543,0.503 16.275,2.335 C16.277,2.322 16.282,2.310 16.284,2.296 C18.105,4.049 19.463,6.307 20.080,8.928 C20.120,9.097 20.126,9.264 20.159,9.431 L20.841,9.431 C20.874,9.264 20.880,9.097 20.920,8.928 C21.536,6.307 22.895,4.049 24.716,2.296 C24.718,2.310 24.723,2.322 24.725,2.335 C26.456,0.503 29.087,-0.414 31.743,0.190 C31.873,0.219 31.991,0.268 32.117,0.304 C32.215,0.320 32.311,0.318 32.409,0.340 C33.229,0.526 33.931,0.933 34.499,1.465 C34.830,1.711 35.144,1.974 35.426,2.268 C35.602,2.729 35.714,3.213 35.793,3.706 C35.836,3.894 35.860,4.084 35.878,4.278 C35.878,4.287 35.879,4.296 35.880,4.304 C35.901,4.557 35.902,4.812 35.878,5.070 C35.862,5.521 35.817,5.975 35.710,6.430 C35.228,8.480 33.890,10.102 32.164,11.064 C32.199,11.076 32.231,11.094 32.266,11.105 C30.253,12.462 27.883,13.288 25.387,13.459 L38.267,13.459 C39.776,13.459 41.000,14.662 41.000,16.145 L41.000,22.859 C41.000,24.342 39.776,25.544 38.267,25.544 ZM23.233,40.314 L34.167,40.314 C34.921,40.314 35.533,39.713 35.533,38.971 L35.533,25.544 C35.533,24.803 34.921,24.201 34.167,24.201 L23.233,24.201 L23.233,40.314 ZM16.738,8.178 C16.258,6.739 15.378,5.460 14.260,4.430 C14.260,4.437 14.258,4.443 14.257,4.450 C13.186,3.383 11.652,2.763 10.179,2.960 C10.107,2.969 10.043,2.991 9.973,3.003 C9.919,3.008 9.864,3.002 9.810,3.009 C9.355,3.070 8.978,3.255 8.683,3.514 C8.508,3.630 8.344,3.756 8.199,3.900 C8.122,4.140 8.083,4.396 8.063,4.657 C8.048,4.756 8.043,4.857 8.043,4.960 C8.043,4.965 8.043,4.970 8.043,4.975 C8.043,5.109 8.056,5.247 8.082,5.387 C8.114,5.629 8.161,5.876 8.245,6.126 C8.620,7.251 9.457,8.187 10.482,8.788 C10.462,8.792 10.445,8.800 10.426,8.806 C12.275,10.071 14.536,10.724 16.717,10.432 C16.855,10.414 16.986,10.383 17.120,10.357 C17.108,9.654 16.985,8.922 16.738,8.178 ZM17.767,13.437 C17.649,13.447 17.532,13.453 17.415,13.459 L17.767,13.459 L17.767,13.437 ZM17.767,16.145 L4.100,16.145 C3.345,16.145 2.733,16.746 2.733,17.488 L2.733,21.516 C2.733,22.257 3.345,22.859 4.100,22.859 L17.767,22.859 L17.767,16.145 ZM17.767,24.201 L6.833,24.201 C6.078,24.201 5.466,24.803 5.466,25.544 L5.466,38.971 C5.466,39.713 6.078,40.314 6.833,40.314 L17.767,40.314 L17.767,24.201 ZM19.133,13.459 L19.133,41.656 L21.867,41.656 L21.867,13.459 L19.133,13.459 ZM30.574,8.806 C30.554,8.800 30.537,8.792 30.518,8.788 C31.543,8.187 32.380,7.251 32.755,6.126 C32.838,5.876 32.886,5.629 32.918,5.387 C32.944,5.247 32.956,5.109 32.957,4.975 C32.957,4.970 32.957,4.965 32.957,4.960 C32.956,4.857 32.952,4.756 32.937,4.657 C32.917,4.396 32.878,4.140 32.801,3.900 C32.656,3.756 32.491,3.630 32.317,3.514 C32.022,3.255 31.644,3.070 31.190,3.009 C31.136,3.002 31.081,3.008 31.027,3.003 C30.957,2.991 30.893,2.969 30.821,2.960 C29.348,2.763 27.814,3.383 26.743,4.450 C26.742,4.443 26.740,4.437 26.740,4.430 C25.622,5.460 24.741,6.739 24.262,8.178 C24.014,8.922 23.892,9.654 23.880,10.357 C24.014,10.383 24.144,10.414 24.283,10.432 C26.464,10.724 28.725,10.071 30.574,8.806 ZM23.233,13.437 L23.233,13.459 L23.584,13.459 C23.467,13.453 23.351,13.447 23.233,13.437 ZM38.267,17.488 C38.267,16.746 37.655,16.145 36.900,16.145 L23.233,16.145 L23.233,22.859 L36.900,22.859 C37.655,22.859 38.267,22.257 38.267,21.516 L38.267,17.488 Z"/>
</svg>