<svg 
 xmlns="http://www.w3.org/2000/svg"
 xmlns:xlink="http://www.w3.org/1999/xlink"
 width="41px" height="32px">
<defs>
<linearGradient id="PSgrad_0" x1="0%" x2="73.135%" y1="68.2%" y2="0%">
  <stop offset="0%" stop-color="rgb(106,244,249)" stop-opacity="1" />
  <stop offset="100%" stop-color="rgb(46,176,236)" stop-opacity="1" />
</linearGradient>

</defs>
<path fill-rule="evenodd"  fill="rgb(255, 255, 255)"
 d="M38.437,31.999 L2.562,31.999 C1.147,31.999 -0.000,30.853 -0.000,29.439 L-0.000,2.560 C-0.000,1.146 1.147,-0.001 2.562,-0.001 L38.437,-0.001 C39.853,-0.001 41.000,1.146 41.000,2.560 L41.000,29.439 C41.000,30.853 39.853,31.999 38.437,31.999 ZM38.437,3.839 C38.437,3.132 37.864,2.560 37.156,2.560 L3.844,2.560 C3.136,2.560 2.562,3.132 2.562,3.839 L2.562,7.679 C2.562,8.386 3.136,8.959 3.844,8.959 L37.156,8.959 C37.864,8.959 38.437,8.386 38.437,7.679 L38.437,3.839 ZM38.437,11.519 C38.437,10.813 37.864,10.239 37.156,10.239 L3.844,10.239 C3.136,10.239 2.562,10.813 2.562,11.519 L2.562,28.159 C2.562,28.867 3.136,29.439 3.844,29.439 L37.156,29.439 C37.864,29.439 38.437,28.867 38.437,28.159 L38.437,11.519 ZM35.234,7.679 C34.173,7.679 33.312,6.820 33.312,5.759 C33.312,4.699 34.173,3.839 35.234,3.839 C36.296,3.839 37.156,4.699 37.156,5.759 C37.156,6.820 36.296,7.679 35.234,7.679 ZM35.234,5.079 C34.858,5.079 34.554,5.384 34.554,5.759 C34.554,6.135 34.858,6.439 35.234,6.439 C35.610,6.439 35.915,6.135 35.915,5.759 C35.915,5.384 35.610,5.079 35.234,5.079 ZM30.109,7.679 C29.048,7.679 28.187,6.820 28.187,5.759 C28.187,4.699 29.048,3.839 30.109,3.839 C31.171,3.839 32.031,4.699 32.031,5.759 C32.031,6.820 31.171,7.679 30.109,7.679 ZM30.109,5.079 C29.733,5.079 29.429,5.384 29.429,5.759 C29.429,6.135 29.733,6.439 30.109,6.439 C30.485,6.439 30.790,6.135 30.790,5.759 C30.790,5.384 30.485,5.079 30.109,5.079 ZM25.625,7.679 L5.125,7.679 C4.417,7.679 3.844,7.106 3.844,6.400 L3.844,5.119 C3.844,4.413 4.417,3.839 5.125,3.839 L25.625,3.839 C26.333,3.839 26.906,4.413 26.906,5.119 L26.906,6.400 C26.906,7.106 26.333,7.679 25.625,7.679 ZM25.583,5.542 C25.583,5.302 25.388,5.107 25.147,5.107 L5.602,5.107 C5.362,5.107 5.167,5.302 5.167,5.542 L5.167,5.977 C5.167,6.217 5.362,6.411 5.602,6.411 L25.147,6.411 C25.388,6.411 25.583,6.217 25.583,5.977 L25.583,5.542 Z"/>
<path fill="url(#PSgrad_0)"
 d="M38.437,31.999 L2.562,31.999 C1.147,31.999 -0.000,30.853 -0.000,29.439 L-0.000,2.560 C-0.000,1.146 1.147,-0.001 2.562,-0.001 L38.437,-0.001 C39.853,-0.001 41.000,1.146 41.000,2.560 L41.000,29.439 C41.000,30.853 39.853,31.999 38.437,31.999 ZM38.437,3.839 C38.437,3.132 37.864,2.560 37.156,2.560 L3.844,2.560 C3.136,2.560 2.562,3.132 2.562,3.839 L2.562,7.679 C2.562,8.386 3.136,8.959 3.844,8.959 L37.156,8.959 C37.864,8.959 38.437,8.386 38.437,7.679 L38.437,3.839 ZM38.437,11.519 C38.437,10.813 37.864,10.239 37.156,10.239 L3.844,10.239 C3.136,10.239 2.562,10.813 2.562,11.519 L2.562,28.159 C2.562,28.867 3.136,29.439 3.844,29.439 L37.156,29.439 C37.864,29.439 38.437,28.867 38.437,28.159 L38.437,11.519 ZM35.234,7.679 C34.173,7.679 33.312,6.820 33.312,5.759 C33.312,4.699 34.173,3.839 35.234,3.839 C36.296,3.839 37.156,4.699 37.156,5.759 C37.156,6.820 36.296,7.679 35.234,7.679 ZM35.234,5.079 C34.858,5.079 34.554,5.384 34.554,5.759 C34.554,6.135 34.858,6.439 35.234,6.439 C35.610,6.439 35.915,6.135 35.915,5.759 C35.915,5.384 35.610,5.079 35.234,5.079 ZM30.109,7.679 C29.048,7.679 28.187,6.820 28.187,5.759 C28.187,4.699 29.048,3.839 30.109,3.839 C31.171,3.839 32.031,4.699 32.031,5.759 C32.031,6.820 31.171,7.679 30.109,7.679 ZM30.109,5.079 C29.733,5.079 29.429,5.384 29.429,5.759 C29.429,6.135 29.733,6.439 30.109,6.439 C30.485,6.439 30.790,6.135 30.790,5.759 C30.790,5.384 30.485,5.079 30.109,5.079 ZM25.625,7.679 L5.125,7.679 C4.417,7.679 3.844,7.106 3.844,6.400 L3.844,5.119 C3.844,4.413 4.417,3.839 5.125,3.839 L25.625,3.839 C26.333,3.839 26.906,4.413 26.906,5.119 L26.906,6.400 C26.906,7.106 26.333,7.679 25.625,7.679 ZM25.583,5.542 C25.583,5.302 25.388,5.107 25.147,5.107 L5.602,5.107 C5.362,5.107 5.167,5.302 5.167,5.542 L5.167,5.977 C5.167,6.217 5.362,6.411 5.602,6.411 L25.147,6.411 C25.388,6.411 25.583,6.217 25.583,5.977 L25.583,5.542 Z"/>
</svg>