<svg 
 xmlns="http://www.w3.org/2000/svg"
 xmlns:xlink="http://www.w3.org/1999/xlink"
 width="45px" height="40px">
<defs>
<linearGradient id="PSgrad_0" x1="0%" x2="73.135%" y1="68.2%" y2="0%">
  <stop offset="0%" stop-color="rgb(106,244,249)" stop-opacity="1" />
  <stop offset="100%" stop-color="rgb(46,176,236)" stop-opacity="1" />
</linearGradient>

</defs>
<path fill-rule="evenodd"  fill="rgb(255, 255, 255)"
 d="M42.187,24.827 C42.187,24.827 29.200,24.915 21.326,25.728 C17.639,26.109 14.171,27.115 13.059,27.459 L13.500,30.344 L40.781,30.344 C41.558,30.344 42.187,30.962 42.187,31.724 C42.187,32.485 41.558,33.103 40.781,33.103 L13.535,33.103 C11.982,33.103 10.723,31.867 10.723,30.344 L10.371,28.275 L9.955,25.553 C9.890,25.320 9.844,25.080 9.844,24.827 L7.031,5.516 L6.562,2.758 L1.406,2.758 C0.630,2.758 -0.000,2.140 -0.000,1.379 C-0.000,0.617 0.630,-0.001 1.406,-0.001 L7.031,-0.001 C7.156,-0.001 7.268,0.038 7.383,0.069 C7.498,0.038 7.610,-0.001 7.734,-0.001 C8.511,-0.001 9.141,0.617 9.141,1.379 L9.383,2.804 C9.533,2.779 9.686,2.758 9.844,2.758 L42.187,2.758 C43.741,2.758 45.000,3.993 45.000,5.516 L45.000,22.068 C45.000,23.592 43.741,24.827 42.187,24.827 ZM42.187,6.896 C42.187,6.134 41.558,5.516 40.781,5.516 L11.601,5.516 C10.825,5.516 10.195,6.134 10.195,6.896 L12.539,22.988 C12.539,23.750 13.169,24.367 13.945,24.367 C13.945,24.367 16.222,23.408 20.397,22.926 C27.407,22.117 40.781,22.068 40.781,22.068 C41.558,22.068 42.187,21.450 42.187,20.688 L42.187,6.896 ZM16.875,34.482 C18.428,34.482 19.687,35.717 19.687,37.241 C19.687,38.764 18.428,40.000 16.875,40.000 C15.322,40.000 14.062,38.764 14.062,37.241 C14.062,35.717 15.322,34.482 16.875,34.482 ZM16.875,38.620 C17.652,38.620 18.281,38.003 18.281,37.241 C18.281,36.479 17.652,35.862 16.875,35.862 C16.098,35.862 15.469,36.479 15.469,37.241 C15.469,38.003 16.098,38.620 16.875,38.620 ZM36.562,34.482 C38.116,34.482 39.375,35.717 39.375,37.241 C39.375,38.764 38.116,40.000 36.562,40.000 C35.009,40.000 33.750,38.764 33.750,37.241 C33.750,35.717 35.009,34.482 36.562,34.482 ZM36.562,38.620 C37.339,38.620 37.969,38.003 37.969,37.241 C37.969,36.479 37.339,35.862 36.562,35.862 C35.786,35.862 35.156,36.479 35.156,37.241 C35.156,38.003 35.786,38.620 36.562,38.620 Z"/>
<path fill="url(#PSgrad_0)"
 d="M42.187,24.827 C42.187,24.827 29.200,24.915 21.326,25.728 C17.639,26.109 14.171,27.115 13.059,27.459 L13.500,30.344 L40.781,30.344 C41.558,30.344 42.187,30.962 42.187,31.724 C42.187,32.485 41.558,33.103 40.781,33.103 L13.535,33.103 C11.982,33.103 10.723,31.867 10.723,30.344 L10.371,28.275 L9.955,25.553 C9.890,25.320 9.844,25.080 9.844,24.827 L7.031,5.516 L6.562,2.758 L1.406,2.758 C0.630,2.758 -0.000,2.140 -0.000,1.379 C-0.000,0.617 0.630,-0.001 1.406,-0.001 L7.031,-0.001 C7.156,-0.001 7.268,0.038 7.383,0.069 C7.498,0.038 7.610,-0.001 7.734,-0.001 C8.511,-0.001 9.141,0.617 9.141,1.379 L9.383,2.804 C9.533,2.779 9.686,2.758 9.844,2.758 L42.187,2.758 C43.741,2.758 45.000,3.993 45.000,5.516 L45.000,22.068 C45.000,23.592 43.741,24.827 42.187,24.827 ZM42.187,6.896 C42.187,6.134 41.558,5.516 40.781,5.516 L11.601,5.516 C10.825,5.516 10.195,6.134 10.195,6.896 L12.539,22.988 C12.539,23.750 13.169,24.367 13.945,24.367 C13.945,24.367 16.222,23.408 20.397,22.926 C27.407,22.117 40.781,22.068 40.781,22.068 C41.558,22.068 42.187,21.450 42.187,20.688 L42.187,6.896 ZM16.875,34.482 C18.428,34.482 19.687,35.717 19.687,37.241 C19.687,38.764 18.428,40.000 16.875,40.000 C15.322,40.000 14.062,38.764 14.062,37.241 C14.062,35.717 15.322,34.482 16.875,34.482 ZM16.875,38.620 C17.652,38.620 18.281,38.003 18.281,37.241 C18.281,36.479 17.652,35.862 16.875,35.862 C16.098,35.862 15.469,36.479 15.469,37.241 C15.469,38.003 16.098,38.620 16.875,38.620 ZM36.562,34.482 C38.116,34.482 39.375,35.717 39.375,37.241 C39.375,38.764 38.116,40.000 36.562,40.000 C35.009,40.000 33.750,38.764 33.750,37.241 C33.750,35.717 35.009,34.482 36.562,34.482 ZM36.562,38.620 C37.339,38.620 37.969,38.003 37.969,37.241 C37.969,36.479 37.339,35.862 36.562,35.862 C35.786,35.862 35.156,36.479 35.156,37.241 C35.156,38.003 35.786,38.620 36.562,38.620 Z"/>
</svg>