<svg 
 xmlns="http://www.w3.org/2000/svg"
 xmlns:xlink="http://www.w3.org/1999/xlink"
 width="46px" height="33px">
<defs>
<linearGradient id="PSgrad_0" x1="0%" x2="73.135%" y1="68.2%" y2="0%">
  <stop offset="0%" stop-color="rgb(106,244,249)" stop-opacity="1" />
  <stop offset="100%" stop-color="rgb(46,176,236)" stop-opacity="1" />
</linearGradient>

</defs>
<path fill-rule="evenodd"  fill="rgb(255, 255, 255)"
 d="M41.687,32.999 C39.206,32.999 36.117,28.675 36.117,28.339 C36.117,28.197 35.300,26.954 34.329,25.215 C33.266,26.309 31.804,26.987 30.187,26.987 C27.987,26.987 26.092,25.719 25.082,23.863 L20.915,23.863 C19.905,25.717 18.011,26.984 15.812,26.984 C14.197,26.984 12.735,26.306 11.672,25.212 C10.701,26.953 9.883,28.197 9.883,28.339 C9.883,28.675 6.793,32.999 4.312,32.999 C1.831,32.999 -0.000,30.913 -0.000,28.339 C-0.000,25.913 2.263,6.888 4.599,4.688 C5.061,3.683 6.042,2.983 7.187,2.983 L7.196,2.983 C7.195,2.950 7.187,2.921 7.187,2.889 C7.187,1.293 8.434,-0.001 9.973,-0.001 L15.902,-0.001 C17.440,-0.001 18.687,1.293 18.687,2.889 C18.687,2.921 18.679,2.950 18.678,2.983 L27.321,2.983 C27.320,2.950 27.312,2.921 27.312,2.889 C27.312,1.293 28.559,-0.001 30.098,-0.001 L36.027,-0.001 C37.565,-0.001 38.812,1.293 38.812,2.889 C38.812,2.921 38.804,2.950 38.803,2.983 L38.812,2.983 C39.958,2.983 40.938,3.683 41.401,4.688 C43.737,6.888 46.000,25.913 46.000,28.339 C46.000,30.913 44.168,32.999 41.687,32.999 ZM30.187,23.863 C31.775,23.863 33.062,22.528 33.062,20.881 C33.062,19.233 31.775,17.897 30.187,17.897 C28.600,17.897 27.312,19.233 27.312,20.881 C27.312,22.528 28.600,23.863 30.187,23.863 ZM15.812,23.863 C17.400,23.863 18.687,22.528 18.687,20.881 C18.687,19.233 17.400,17.897 15.812,17.897 C14.225,17.897 12.937,19.233 12.937,20.881 C12.937,22.528 14.225,23.863 15.812,23.863 ZM43.175,25.782 C43.092,24.110 40.070,6.446 38.769,6.516 C38.713,6.519 38.636,6.571 38.550,6.647 C38.292,6.246 37.874,5.965 37.375,5.965 L35.937,5.965 L35.937,4.474 C35.937,3.650 35.294,2.983 34.500,2.983 L31.625,2.983 C30.831,2.983 30.187,3.650 30.187,4.474 L30.187,5.965 L15.812,5.965 L15.812,4.474 C15.812,3.650 15.169,2.983 14.375,2.983 L11.500,2.983 C10.706,2.983 10.062,3.650 10.062,4.474 L10.062,5.965 L8.625,5.965 C8.126,5.965 7.707,6.246 7.450,6.647 C7.364,6.571 7.287,6.519 7.231,6.516 C5.929,6.446 2.908,24.110 2.825,25.782 C2.741,27.454 3.009,29.612 4.310,29.682 C5.611,29.752 7.911,26.285 7.922,26.066 C7.932,25.873 10.552,22.398 11.471,19.389 C11.475,19.389 11.479,19.389 11.483,19.389 C12.089,17.498 13.787,16.127 15.812,16.127 C18.343,16.127 20.394,18.255 20.394,20.881 C22.117,20.881 23.885,20.881 25.605,20.881 C25.605,18.255 27.657,16.127 30.187,16.127 C32.213,16.127 33.911,17.498 34.517,19.389 C34.520,19.389 34.525,19.389 34.529,19.389 C35.448,22.398 38.068,25.873 38.078,26.066 C38.089,26.285 40.388,29.752 41.689,29.682 C42.991,29.612 43.259,27.454 43.175,25.782 ZM35.219,11.978 C34.003,11.978 33.017,10.956 33.017,9.694 C33.017,8.433 34.003,7.410 35.219,7.410 C36.434,7.410 37.420,8.433 37.420,9.694 C37.420,10.956 36.434,11.978 35.219,11.978 ZM35.219,8.925 C34.809,8.925 34.477,9.269 34.477,9.694 C34.477,10.119 34.809,10.463 35.219,10.463 C35.628,10.463 35.960,10.119 35.960,9.694 C35.960,9.269 35.628,8.925 35.219,8.925 ZM29.469,14.961 C28.253,14.961 27.267,13.938 27.267,12.677 C27.267,11.416 28.253,10.394 29.469,10.394 C30.684,10.394 31.670,11.416 31.670,12.677 C31.670,13.938 30.684,14.961 29.469,14.961 ZM29.469,11.909 C29.059,11.909 28.727,12.252 28.727,12.677 C28.727,13.102 29.059,13.447 29.469,13.447 C29.878,13.447 30.210,13.102 30.210,12.677 C30.210,12.252 29.878,11.909 29.469,11.909 ZM14.375,13.423 L14.375,13.423 C14.375,14.247 13.731,14.914 12.937,14.914 L11.500,14.914 C10.706,14.914 10.062,14.247 10.062,13.423 L10.062,13.423 L10.062,13.423 C9.268,13.423 8.625,12.755 8.625,11.931 L8.625,10.440 C8.625,9.616 9.268,8.949 10.062,8.949 L10.062,8.949 C10.062,8.124 10.706,7.457 11.500,7.457 L12.937,7.457 C13.731,7.457 14.375,8.124 14.375,8.949 C15.169,8.949 15.812,9.616 15.812,10.440 L15.812,11.931 C15.812,12.755 15.169,13.423 14.375,13.423 ZM13.656,10.440 L12.937,10.440 L12.937,9.694 C12.937,9.283 12.616,8.949 12.219,8.949 C11.822,8.949 11.500,9.283 11.500,9.694 L11.500,10.440 L10.781,10.440 C10.384,10.440 10.062,10.774 10.062,11.185 C10.062,11.597 10.384,11.931 10.781,11.931 L11.500,11.931 L11.500,12.677 C11.500,13.089 11.822,13.423 12.219,13.423 C12.616,13.423 12.937,13.089 12.937,12.677 L12.937,11.931 L13.656,11.931 C14.053,11.931 14.375,11.597 14.375,11.185 C14.375,10.774 14.053,10.440 13.656,10.440 Z"/>
<path fill="url(#PSgrad_0)"
 d="M41.687,32.999 C39.206,32.999 36.117,28.675 36.117,28.339 C36.117,28.197 35.300,26.954 34.329,25.215 C33.266,26.309 31.804,26.987 30.187,26.987 C27.987,26.987 26.092,25.719 25.082,23.863 L20.915,23.863 C19.905,25.717 18.011,26.984 15.812,26.984 C14.197,26.984 12.735,26.306 11.672,25.212 C10.701,26.953 9.883,28.197 9.883,28.339 C9.883,28.675 6.793,32.999 4.312,32.999 C1.831,32.999 -0.000,30.913 -0.000,28.339 C-0.000,25.913 2.263,6.888 4.599,4.688 C5.061,3.683 6.042,2.983 7.187,2.983 L7.196,2.983 C7.195,2.950 7.187,2.921 7.187,2.889 C7.187,1.293 8.434,-0.001 9.973,-0.001 L15.902,-0.001 C17.440,-0.001 18.687,1.293 18.687,2.889 C18.687,2.921 18.679,2.950 18.678,2.983 L27.321,2.983 C27.320,2.950 27.312,2.921 27.312,2.889 C27.312,1.293 28.559,-0.001 30.098,-0.001 L36.027,-0.001 C37.565,-0.001 38.812,1.293 38.812,2.889 C38.812,2.921 38.804,2.950 38.803,2.983 L38.812,2.983 C39.958,2.983 40.938,3.683 41.401,4.688 C43.737,6.888 46.000,25.913 46.000,28.339 C46.000,30.913 44.168,32.999 41.687,32.999 ZM30.187,23.863 C31.775,23.863 33.062,22.528 33.062,20.881 C33.062,19.233 31.775,17.897 30.187,17.897 C28.600,17.897 27.312,19.233 27.312,20.881 C27.312,22.528 28.600,23.863 30.187,23.863 ZM15.812,23.863 C17.400,23.863 18.687,22.528 18.687,20.881 C18.687,19.233 17.400,17.897 15.812,17.897 C14.225,17.897 12.937,19.233 12.937,20.881 C12.937,22.528 14.225,23.863 15.812,23.863 ZM43.175,25.782 C43.092,24.110 40.070,6.446 38.769,6.516 C38.713,6.519 38.636,6.571 38.550,6.647 C38.292,6.246 37.874,5.965 37.375,5.965 L35.937,5.965 L35.937,4.474 C35.937,3.650 35.294,2.983 34.500,2.983 L31.625,2.983 C30.831,2.983 30.187,3.650 30.187,4.474 L30.187,5.965 L15.812,5.965 L15.812,4.474 C15.812,3.650 15.169,2.983 14.375,2.983 L11.500,2.983 C10.706,2.983 10.062,3.650 10.062,4.474 L10.062,5.965 L8.625,5.965 C8.126,5.965 7.707,6.246 7.450,6.647 C7.364,6.571 7.287,6.519 7.231,6.516 C5.929,6.446 2.908,24.110 2.825,25.782 C2.741,27.454 3.009,29.612 4.310,29.682 C5.611,29.752 7.911,26.285 7.922,26.066 C7.932,25.873 10.552,22.398 11.471,19.389 C11.475,19.389 11.479,19.389 11.483,19.389 C12.089,17.498 13.787,16.127 15.812,16.127 C18.343,16.127 20.394,18.255 20.394,20.881 C22.117,20.881 23.885,20.881 25.605,20.881 C25.605,18.255 27.657,16.127 30.187,16.127 C32.213,16.127 33.911,17.498 34.517,19.389 C34.520,19.389 34.525,19.389 34.529,19.389 C35.448,22.398 38.068,25.873 38.078,26.066 C38.089,26.285 40.388,29.752 41.689,29.682 C42.991,29.612 43.259,27.454 43.175,25.782 ZM35.219,11.978 C34.003,11.978 33.017,10.956 33.017,9.694 C33.017,8.433 34.003,7.410 35.219,7.410 C36.434,7.410 37.420,8.433 37.420,9.694 C37.420,10.956 36.434,11.978 35.219,11.978 ZM35.219,8.925 C34.809,8.925 34.477,9.269 34.477,9.694 C34.477,10.119 34.809,10.463 35.219,10.463 C35.628,10.463 35.960,10.119 35.960,9.694 C35.960,9.269 35.628,8.925 35.219,8.925 ZM29.469,14.961 C28.253,14.961 27.267,13.938 27.267,12.677 C27.267,11.416 28.253,10.394 29.469,10.394 C30.684,10.394 31.670,11.416 31.670,12.677 C31.670,13.938 30.684,14.961 29.469,14.961 ZM29.469,11.909 C29.059,11.909 28.727,12.252 28.727,12.677 C28.727,13.102 29.059,13.447 29.469,13.447 C29.878,13.447 30.210,13.102 30.210,12.677 C30.210,12.252 29.878,11.909 29.469,11.909 ZM14.375,13.423 L14.375,13.423 C14.375,14.247 13.731,14.914 12.937,14.914 L11.500,14.914 C10.706,14.914 10.062,14.247 10.062,13.423 L10.062,13.423 L10.062,13.423 C9.268,13.423 8.625,12.755 8.625,11.931 L8.625,10.440 C8.625,9.616 9.268,8.949 10.062,8.949 L10.062,8.949 C10.062,8.124 10.706,7.457 11.500,7.457 L12.937,7.457 C13.731,7.457 14.375,8.124 14.375,8.949 C15.169,8.949 15.812,9.616 15.812,10.440 L15.812,11.931 C15.812,12.755 15.169,13.423 14.375,13.423 ZM13.656,10.440 L12.937,10.440 L12.937,9.694 C12.937,9.283 12.616,8.949 12.219,8.949 C11.822,8.949 11.500,9.283 11.500,9.694 L11.500,10.440 L10.781,10.440 C10.384,10.440 10.062,10.774 10.062,11.185 C10.062,11.597 10.384,11.931 10.781,11.931 L11.500,11.931 L11.500,12.677 C11.500,13.089 11.822,13.423 12.219,13.423 C12.616,13.423 12.937,13.089 12.937,12.677 L12.937,11.931 L13.656,11.931 C14.053,11.931 14.375,11.597 14.375,11.185 C14.375,10.774 14.053,10.440 13.656,10.440 Z"/>
</svg>