<svg 
 xmlns="http://www.w3.org/2000/svg"
 xmlns:xlink="http://www.w3.org/1999/xlink"
 width="34px" height="34px">
<defs>
<linearGradient id="PSgrad_0" x1="0%" x2="73.135%" y1="68.2%" y2="0%">
  <stop offset="0%" stop-color="rgb(106,244,249)" stop-opacity="1" />
  <stop offset="100%" stop-color="rgb(46,176,236)" stop-opacity="1" />
</linearGradient>

</defs>
<path fill-rule="evenodd"  fill="rgb(255, 255, 255)"
 d="M32.510,31.095 L31.096,32.509 C30.315,33.291 29.049,33.291 28.268,32.509 L22.879,27.120 L19.000,30.999 C18.250,31.749 17.000,31.104 17.000,29.999 L17.000,18.999 C17.000,17.895 17.895,16.999 19.000,16.999 L30.000,16.999 C31.104,16.999 31.750,18.249 31.000,18.999 L27.121,22.878 L32.510,28.267 C33.291,29.048 33.291,30.314 32.510,31.095 ZM30.596,29.181 L24.207,22.792 L27.000,19.999 C27.500,19.499 27.052,18.999 26.500,18.999 L20.000,18.999 C19.448,18.999 19.000,19.447 19.000,19.999 L19.000,26.499 C19.000,27.051 19.448,27.551 20.000,26.999 L22.793,24.207 L29.182,30.595 C29.572,30.986 30.206,30.986 30.596,30.595 C30.987,30.205 30.987,29.572 30.596,29.181 ZM15.000,16.999 L4.000,16.999 C2.895,16.999 2.250,15.749 3.000,15.000 L6.879,11.121 L1.489,5.732 C0.708,4.950 0.708,3.684 1.489,2.903 L2.904,1.489 C3.685,0.708 4.951,0.708 5.732,1.489 L11.121,6.878 L15.000,2.999 C15.750,2.249 17.000,2.894 17.000,3.999 L17.000,15.000 C17.000,16.104 16.104,16.999 15.000,16.999 ZM15.000,7.499 C15.000,6.948 14.552,6.447 14.000,6.999 L11.207,9.792 L4.818,3.403 C4.427,3.013 3.794,3.013 3.404,3.403 C3.013,3.793 3.013,4.427 3.404,4.817 L9.793,11.206 L7.000,13.999 C6.500,14.499 6.948,15.000 7.500,15.000 L14.000,15.000 C14.552,15.000 15.000,14.551 15.000,13.999 L15.000,7.499 Z"/>
<path fill="url(#PSgrad_0)"
 d="M32.510,31.095 L31.096,32.509 C30.315,33.291 29.049,33.291 28.268,32.509 L22.879,27.120 L19.000,30.999 C18.250,31.749 17.000,31.104 17.000,29.999 L17.000,18.999 C17.000,17.895 17.895,16.999 19.000,16.999 L30.000,16.999 C31.104,16.999 31.750,18.249 31.000,18.999 L27.121,22.878 L32.510,28.267 C33.291,29.048 33.291,30.314 32.510,31.095 ZM30.596,29.181 L24.207,22.792 L27.000,19.999 C27.500,19.499 27.052,18.999 26.500,18.999 L20.000,18.999 C19.448,18.999 19.000,19.447 19.000,19.999 L19.000,26.499 C19.000,27.051 19.448,27.551 20.000,26.999 L22.793,24.207 L29.182,30.595 C29.572,30.986 30.206,30.986 30.596,30.595 C30.987,30.205 30.987,29.572 30.596,29.181 ZM15.000,16.999 L4.000,16.999 C2.895,16.999 2.250,15.749 3.000,15.000 L6.879,11.121 L1.489,5.732 C0.708,4.950 0.708,3.684 1.489,2.903 L2.904,1.489 C3.685,0.708 4.951,0.708 5.732,1.489 L11.121,6.878 L15.000,2.999 C15.750,2.249 17.000,2.894 17.000,3.999 L17.000,15.000 C17.000,16.104 16.104,16.999 15.000,16.999 ZM15.000,7.499 C15.000,6.948 14.552,6.447 14.000,6.999 L11.207,9.792 L4.818,3.403 C4.427,3.013 3.794,3.013 3.404,3.403 C3.013,3.793 3.013,4.427 3.404,4.817 L9.793,11.206 L7.000,13.999 C6.500,14.499 6.948,15.000 7.500,15.000 L14.000,15.000 C14.552,15.000 15.000,14.551 15.000,13.999 L15.000,7.499 Z"/>
</svg>