<?xml version="1.0" encoding="iso-8859-1"?>
<!-- Generator: Adobe Illustrator 16.0.0, SVG Export Plug-In . SVG Version: 6.00 Build 0)  -->
<!DOCTYPE svg PUBLIC "-//W3C//DTD SVG 1.1//EN" "http://www.w3.org/Graphics/SVG/1.1/DTD/svg11.dtd">
<svg version="1.1" id="Capa_1" xmlns="http://www.w3.org/2000/svg" xmlns:xlink="http://www.w3.org/1999/xlink" x="0px" y="0px"
	 width="136.745px" height="136.746px" viewBox="0 0 136.745 136.746" style="enable-background:new 0 0 136.745 136.746;"
	 xml:space="preserve">
<g>
	<g id="_x32_35._Key">
		<g>
			<path d="M116.296,14.356c-19.16-19.142-50.222-19.142-69.384,0C30.41,30.835,28.165,56.127,40.086,75.055l-29.903,29.902
				c-5.474,5.473-5.474,14.35,0,19.818h0.003l-0.003,0.003l9.911,9.914c2.736,2.737,7.176,2.737,9.914,0l9.911-9.911
				c2.736-2.734,2.736-7.176,0-9.91l-4.956-4.955l19.855-19.852c19.025,12.408,44.77,10.283,61.477-6.403
				C135.457,64.52,135.457,33.493,116.296,14.356z M101.431,68.884c-10.948,10.948-28.698,10.948-39.646,0
				c-10.951-10.949-10.951-28.7,0-39.647c10.948-10.951,28.698-10.951,39.646,0C112.378,40.185,112.378,57.936,101.431,68.884z"/>
		</g>
	</g>
</g>
</svg>
