<svg width="40" height="40" viewBox="0 0 40 40" fill="none" xmlns="http://www.w3.org/2000/svg">
<g clip-path="url(#clip0_4_40)">
<path d="M30.96 22.42C29.86 16.8813 35.116 13.6333 35.116 13.6333C35.116 13.6333 33.0667 10.6733 29.6267 9.91335C26.1867 9.14801 24.4654 10.0987 22.748 10.82C21.028 11.5347 20.1694 11.5347 20.1694 11.5347C17.688 11.5347 15.8734 8.90801 11.1414 10.108C7.88669 10.9293 4.45469 14.6893 3.83469 19.18C3.21335 23.6693 4.55202 29.3987 7.13069 33.8387C9.71202 38.2813 12.3387 39.9533 14.2014 40C16.064 40.0467 17.9267 38.664 20.172 38.3253C22.4174 37.9973 23.796 39.1427 25.9987 39.7627C28.196 40.3827 28.964 39.804 31.488 37.656C34.0214 35.508 36.3187 29.3413 36.3187 29.3413C36.3187 29.3413 32.0614 27.9653 30.96 22.42Z" fill="white"/>
<path d="M26.0907 6.32934C28.528 3.84268 27.7 0.00134277 27.7 0.00134277C27.7 0.00134277 24.2787 0.597343 21.9867 2.98534C19.692 5.37601 20.072 9.14401 20.072 9.14401C20.072 9.14401 23.6507 8.81334 26.0907 6.32934Z" fill="white"/>
</g>
<defs>
<clipPath id="clip0_4_40">
<rect width="40" height="40" fill="white"/>
</clipPath>
</defs>
</svg>
