<svg width="40" height="40" viewBox="0 0 40 40" fill="none" xmlns="http://www.w3.org/2000/svg">
<path d="M21.25 18.125L26.5 12.5L6.125 1.5C6 1.375 5.75 1.375 5.375 1.25L21.25 18.125Z" fill="#00F076"/>
<path d="M28.75 26.25L36.125 22.25C37 21.75 37.5 21 37.5 20C37.5 19 37 18.125 36.125 17.75L28.75 13.75L22.875 20L28.75 26.25Z" fill="#FFC900"/>
<path d="M3 2.375C2.625 2.75 2.5 3.25 2.5 3.75V36.25C2.5 36.75 2.625 37.25 3 37.75L19.5 20L3 2.375Z" fill="#00D6FF"/>
<path d="M21.25 21.875L5.375 38.75C5.625 38.75 5.875 38.625 6.125 38.5L26.5 27.5L21.25 21.875Z" fill="#FF3A44"/>
</svg>
