<svg width="125" height="125" viewBox="0 0 125 125" fill="none" xmlns="http://www.w3.org/2000/svg">
<path d="M15.625 26.0417C15.625 20.2891 20.2891 15.625 26.0417 15.625H98.9583C104.711 15.625 109.375 20.2891 109.375 26.0417V98.9583C109.375 104.711 104.711 109.375 98.9583 109.375H26.0417C20.2891 109.375 15.625 104.711 15.625 98.9583V26.0417Z" fill="#1565C0"/>
<path d="M96.3542 93.75L86.8125 82.0885C91.1432 76.724 93.75 69.9141 93.75 62.5C93.75 45.2682 79.7318 31.25 62.5 31.25C45.2682 31.25 31.25 45.2682 31.25 62.5C31.25 79.7318 45.2682 93.75 62.5 93.75C67.9557 93.75 73.0859 92.3359 77.5547 89.8698L80.7292 93.75H96.3542ZM62.5 80.7292C52.4479 80.7292 44.2708 72.5495 44.2708 62.5C44.2708 52.4505 52.4479 44.2708 62.5 44.2708C72.5521 44.2708 80.7292 52.4505 80.7292 62.5C80.7292 65.8281 79.8177 68.9401 78.2552 71.6276L72.9167 65.1042H57.2917L69.0599 79.487C67.0208 80.2786 64.8151 80.7292 62.5 80.7292Z" fill="white"/>
</svg>
