<svg width="128" height="129" viewBox="0 0 128 129" xmlns="http://www.w3.org/2000/svg">
    <path fill-rule="evenodd" clip-rule="evenodd"
        d="M63.9999 0.271362C99.3471 0.271362 128 29.6469 128 65.89C128 94.8756 109.683 119.465 84.2687 128.149C81.0239 128.796 79.8719 126.747 79.8719 124.999C79.8719 122.836 79.9487 115.771 79.9487 106.99C79.9487 100.872 77.9007 96.8783 75.6031 94.8431C89.8559 93.2175 104.832 87.6682 104.832 62.465C104.832 55.297 102.349 49.4478 98.2399 44.8526C98.9055 43.195 101.101 36.5206 97.6127 27.4838C97.6127 27.4838 92.2495 25.7256 80.0319 34.2119C74.9183 32.7591 69.4399 32.0282 63.9999 32.0026C58.5599 32.0282 53.0879 32.7591 47.9808 34.2119C35.7504 25.7256 30.3744 27.4838 30.3744 27.4838C26.8992 36.5206 29.0944 43.195 29.7536 44.8526C25.664 49.4478 23.1616 55.297 23.1616 62.465C23.1616 87.6042 38.1056 93.2387 52.32 94.8963C50.4896 96.5346 48.8319 99.4249 48.2559 103.668C44.608 105.345 35.3407 108.247 29.6319 98.2181C29.6319 98.2181 26.2464 91.9133 19.8208 91.4525C19.8208 91.4525 13.5808 91.3696 19.3856 95.44C19.3856 95.44 23.5776 97.456 26.4896 105.04C26.4896 105.04 30.2464 116.752 48.0512 112.784C48.0832 118.269 48.1408 123.438 48.1408 124.999C48.1408 126.734 46.9631 128.764 43.7695 128.156C18.336 119.484 0 94.882 0 65.89C0 29.6469 28.6592 0.271362 63.9999 0.271362Z" />
</svg>