<svg width="128" height="129" viewBox="0 0 128 129" xmlns="http://www.w3.org/2000/svg">
    <path fill-rule="evenodd" clip-rule="evenodd"
        d="M52.4704 98.6538C53.388 100.374 54.307 101.924 55.1854 103.297C45.8528 101.198 37.7547 95.8378 32.1511 88.4756C35.8494 86.393 40.5862 84.234 46.2806 82.6543C47.8991 89.002 50.1824 94.3636 52.4704 98.6538ZM59.5294 94.889C57.5416 91.1626 55.5496 86.5087 54.1144 80.9946C57.204 80.5359 60.5022 80.2714 64.0003 80.2714C67.4979 80.2714 70.796 80.5359 73.8851 80.994C72.4499 86.5087 70.4579 91.1626 68.4702 94.889C66.8766 97.8772 65.2888 100.263 63.9998 102.008C62.7107 100.263 61.123 97.8772 59.5294 94.889ZM51.9998 64.2714C51.9998 67.3866 52.2094 70.3434 52.579 73.1348C56.1432 72.5882 59.9539 72.2714 64.0003 72.2714C68.0462 72.2714 71.8568 72.5876 75.4206 73.1348C75.7902 70.3428 75.9998 67.3866 75.9998 64.2714C75.9998 61.1562 75.7902 58.1999 75.4206 55.4079C71.8568 55.9546 68.0462 56.2714 64.0003 56.2714C59.9539 56.2714 56.1432 55.9546 52.579 55.4079C52.2094 58.1994 51.9998 61.1562 51.9998 64.2714ZM44.7298 53.7583C44.2652 57.0596 43.9998 60.5668 43.9998 64.2714C43.9998 67.9759 44.2652 71.4831 44.7298 74.7844C37.9378 76.6079 32.3135 79.1791 27.9637 81.6532C25.4236 76.3972 23.9998 70.5007 23.9998 64.2714C23.9998 58.042 25.4236 52.1457 27.9636 46.8894C32.3129 49.3632 37.9374 51.9346 44.7298 53.7583ZM54.1144 47.5484C57.204 48.0069 60.5022 48.2714 64.0003 48.2714C67.4979 48.2714 70.796 48.007 73.8851 47.5485C72.4499 42.0343 70.4579 37.3803 68.4702 33.6538C66.8766 30.6657 65.2888 28.2797 63.9998 26.5344C62.7107 28.2797 61.123 30.6657 59.5294 33.6537C57.5416 37.3802 55.5496 42.0342 54.1144 47.5484ZM83.2696 53.7588C83.7342 57.0602 83.9998 60.5674 83.9998 64.2714C83.9998 67.9759 83.7342 71.4826 83.2696 74.7839C90.0616 76.6079 95.6862 79.1791 100.036 81.6532C102.576 76.3967 104 70.5002 104 64.2714C104 58.0426 102.576 52.1459 100.036 46.8897C95.6867 49.3635 90.0622 51.9348 83.2696 53.7588ZM95.8483 40.0675C92.1496 42.1504 87.4131 44.309 81.7192 45.8889C80.1006 39.5409 77.8174 34.179 75.5294 29.8891C74.6115 28.1688 73.6926 26.6194 72.8142 25.2458C82.147 27.3446 90.2451 32.7053 95.8483 40.0675ZM46.2806 45.8887C40.5865 44.3088 35.8499 42.1501 32.1512 40.0673C37.7547 32.7052 45.8528 27.3446 55.1848 25.2458C54.307 26.6194 53.388 28.1687 52.4703 29.889C50.1824 34.1789 47.8991 39.5408 46.2806 45.8887ZM81.7192 82.6538C80.1006 89.002 77.8174 94.3636 75.5294 98.6538C74.6115 100.374 73.6926 101.924 72.8142 103.297C82.147 101.198 90.2451 95.8372 95.8488 88.4751C92.1502 86.3924 87.4136 84.234 81.7192 82.6538ZM63.9998 112.271C90.5096 112.271 112 90.7812 112 64.2714C112 37.7617 90.5096 16.2714 63.9998 16.2714C37.4901 16.2714 15.9998 37.7617 15.9998 64.2714C15.9998 90.7812 37.4901 112.271 63.9998 112.271Z" />
</svg>