<?xml version="1.0" encoding="utf-8"?>
<!-- Generator: Adobe Illustrator 24.2.3, SVG Export Plug-In . SVG Version: 6.00 Build 0)  -->
<svg version="1.1" xmlns="http://www.w3.org/2000/svg" xmlns:xlink="http://www.w3.org/1999/xlink" x="0px" y="0px"
	 viewBox="0 0 599 599" style="enable-background:new 0 0 599 599;" xml:space="preserve">
<style type="text/css">
	.st0{fill:#1A1A1A;}
	.st1{fill:#FFFFFF;}
</style>
<g id="Слой_3">
	<path class="st0" d="M511.73,600H88.27C39.52,600,0,560.48,0,511.73V88.27C0,39.52,39.52,0,88.27,0h423.46
		C560.48,0,600,39.52,600,88.27v423.46C600,560.48,560.48,600,511.73,600z"/>
</g>
<g id="Слой_2">
	<path class="st1" d="M494.46,137.2H315.69c-10.24,0-18.54-8.3-18.54-18.54v-13.12c0-10.24,8.3-18.54,18.54-18.54h178.77
		C504.7,87,513,95.3,513,105.54v13.12C513,128.9,504.7,137.2,494.46,137.2z"/>
	<path class="st1" d="M285.31,512H106.54C96.3,512,88,503.7,88,493.46v-13.12c0-10.24,8.3-18.54,18.54-18.54h178.77
		c10.24,0,18.54,8.3,18.54,18.54v13.12C303.85,503.7,295.55,512,285.31,512z"/>
	<path class="st1" d="M119.66,137.2h-13.12C96.3,137.2,88,128.9,88,118.66v-13.12C88,95.3,96.3,87,106.54,87h13.12
		c10.24,0,18.54,8.3,18.54,18.54v13.12C138.2,128.9,129.9,137.2,119.66,137.2z"/>
	<path class="st1" d="M494.46,512h-13.12c-10.24,0-18.54-8.3-18.54-18.54v-13.12c0-10.24,8.3-18.54,18.54-18.54h13.12
		c10.24,0,18.54,8.3,18.54,18.54v13.12C513,503.7,504.7,512,494.46,512z"/>
	<path class="st1" d="M513,105.54v247.38c0,10.24-8.3,18.54-18.54,18.54h-13.12c-10.24,0-18.54-8.3-18.54-18.54V105.54
		c0-10.24,8.3-18.54,18.54-18.54h13.12C504.7,87,513,95.3,513,105.54z"/>
	<path class="st1" d="M138.2,246.09v247.38c0,10.24-8.3,18.54-18.54,18.54h-13.12C96.3,512,88,503.7,88,493.46V246.09
		c0-10.24,8.3-18.54,18.54-18.54h13.12C129.9,227.55,138.2,235.85,138.2,246.09z"/>
	<path class="st1" d="M423.78,414.2L303.96,180.55c-1.74-3.4-6.59-3.4-8.34,0L175.8,414.2c-2.57,5.01,4.27,9.46,7.81,5.08
		l112.54-139.26c1.87-2.32,5.41-2.32,7.29,0l112.54,139.26C419.51,423.66,426.36,419.21,423.78,414.2z"/>
	<path class="st1" d="M338.51,338.87l-37.42,72.96c-0.54,1.06-2.06,1.06-2.6,0l-37.42-72.96c-0.8-1.57,1.33-2.96,2.44-1.59
		l35.14,43.49c0.59,0.72,1.69,0.72,2.28,0l35.14-43.49C337.18,335.92,339.32,337.31,338.51,338.87z"/>
</g>
</svg>
