<?xml version="1.0" encoding="utf-8"?>
<!-- Generator: Adobe Illustrator 24.2.3, SVG Export Plug-In . SVG Version: 6.00 Build 0)  -->
<svg version="1.1" id="Слой_1" xmlns="http://www.w3.org/2000/svg" xmlns:xlink="http://www.w3.org/1999/xlink" x="0px" y="0px"
	 viewBox="0 0 599 599" style="enable-background:new 0 0 599 599;" xml:space="preserve">
<style type="text/css">
	.st0{fill:#1A1A1A;}
	.st1{fill:#FFFFFF;}
</style>
<g id="Слой_3">
	<path class="st0" d="M300,600L300,600C134.3,600,0,465.7,0,300v0C0,134.3,134.3,0,300,0h0c165.7,0,300,134.3,300,300v0
		C600,465.7,465.7,600,300,600z"/>
</g>
<g>
	<path class="st1" d="M489.3,475L305.9,117.4c-2.7-5.2-10.1-5.2-12.8,0L109.7,475c-3.9,7.7,6.5,14.5,12,7.8l172.3-213.2
		c2.9-3.6,8.3-3.6,11.2,0l172.3,213.2C482.8,489.5,493.2,482.7,489.3,475z"/>
	<path class="st1" d="M358.8,359.7l-57.3,111.7c-0.8,1.6-3.2,1.6-4,0l-57.3-111.7c-1.2-2.4,2-4.5,3.7-2.4c2.3,0.3,54,72.5,57.3,66.6
		c0,0,53.8-66.6,53.8-66.6C356.7,355.2,360,357.3,358.8,359.7z"/>
</g>
</svg>
