<?xml version="1.0" encoding="utf-8"?>
<!-- Generator: Adobe Illustrator 24.2.3, SVG Export Plug-In . SVG Version: 6.00 Build 0)  -->
<svg version="1.1" xmlns="http://www.w3.org/2000/svg" xmlns:xlink="http://www.w3.org/1999/xlink" x="0px" y="0px"
	 viewBox="0 0 1200 1200" style="enable-background:new 0 0 1200 1200;" xml:space="preserve">
<style type="text/css">
	.st0{fill:#00A99D;}
	.st1{fill:#FFE9D0;stroke:#C2AD94;stroke-width:5;stroke-miterlimit:10;}
	.st2{fill:none;stroke:#BEA990;stroke-width:4;stroke-linecap:round;stroke-linejoin:round;stroke-miterlimit:10;}
	.st3{fill:#2E3192;}
	.st4{fill:#F39A00;}
	.st5{fill:none;stroke:#662D91;stroke-width:10;stroke-linecap:round;stroke-linejoin:round;stroke-miterlimit:10;}
	.st6{fill:#E69800;}
	.st7{fill:#612742;}
	.st8{fill:#4D4D4D;}
	.st9{fill:#F0C166;}
	.st10{fill:#232323;}
	.st11{fill:#1B1464;}
	.st12{fill:#B3B3B3;}
</style>
<g id="background">
	<polygon class="st0" points="1072.57,1170.16 318.22,1287.91 -183,711.98 70.14,18.3 824.49,-99.46 1325.7,476.47 	"/>
</g>
<g id="PAGE">
	<path class="st1" d="M803.16,168.5H254.84c-63.15,0-114.34,51.19-114.34,114.34v721.79c0,40.8,33.08,73.88,73.88,73.88h629.24
		c40.8,0,73.88-33.08,73.88-73.88V282.84C917.5,219.69,866.31,168.5,803.16,168.5z"/>
	<path class="st1" d="M1114.87,524.5h-113.73c-19.68,0-35.63-15.95-35.63-35.63V358.13c0-19.68,15.95-35.63,35.63-35.63h113.73
		c19.68,0,35.63,15.95,35.63,35.63v130.73C1150.5,508.55,1134.55,524.5,1114.87,524.5z"/>
	<path class="st2" d="M206.5,345.5c10.26-11.81,22.94-23.1,33-20c12.43,3.82,10.17,26.3,22,30c17.22,5.39,36.83-37.64,57-33
		c14.31,3.29,11.42,26.55,27,32c22.01,7.7,42.38-33.65,71-28c18.53,3.65,19,22.75,37,24c21.76,1.51,31.49-25.68,50-22
		c15.69,3.12,16.39,24.16,30,25c16.44,1.01,24.33-29.14,43-29c8.96,0.07,16.25,7.08,21,13"/>
	<path class="st2" d="M189,415c11.26-10.31,23.46-18.74,31-15c10.13,5.03,3.95,28.12,13,32c11.72,5.02,28.94-30.81,52-29
		c10.99,0.86,19.41,9.96,25,18"/>
	<path class="st2" d="M370,407c6.83-5.77,16.05-11.88,23-9c11.49,4.77,5.75,29.58,16,34c14.12,6.09,36.76-35.93,58-30
		c9.89,2.76,10.76,13.5,24,17c10.03,2.65,19.66-0.83,26-4"/>
	<path class="st2" d="M220,480c9.08-7.69,21.26-15.88,30-12c9.33,4.14,6.61,18.41,15,22c14.56,6.22,36.46-30.87,53-25
		c10.64,3.78,8.42,21.56,19,24c12.54,2.9,24.3-20.12,35-16c6.56,2.53,6.05,12.68,14,15c4.82,1.41,9.75-0.95,13-3"/>
	<path class="st2" d="M234,565c8.74-6.63,19.21-12.62,26-9c9.71,5.17,4.19,25.85,12,29c10.97,4.42,29.62-33.31,47-29
		c8.15,2.02,10.16,11.82,21,13c6.21,0.67,11.58-1.89,15-4"/>
	<path class="st2" d="M625,519c8.16-5.69,19.48-12.09,26-8c4.86,3.04,2.79,9.23,7,12c11.02,7.24,39.04-26.03,51-19
		c6.33,3.72,1.47,14.82,8,19c11.69,7.49,35.93-22.55,51-15c7.92,3.97,5.04,14.18,15,22c9.05,7.11,21.37,6.48,30,5"/>
	<path class="st2" d="M544,615c9.15-10.14,20.31-19.97,28-17c9.06,3.49,4.97,21.5,14,26c14.06,7,33.57-31.81,62-30
		c21.96,1.4,22.86,25.35,47,28c25.15,2.76,33.21-22.26,65-20c12.66,0.9,16.73,5.25,33,5c14.45-0.22,26.22-3.88,34-7"/>
	<path class="st2" d="M426,706c8.29-6.98,19.69-14.62,28-11c10.72,4.67,6.48,23.78,16,28c15.17,6.73,38.93-36.03,61-30
		c12.6,3.44,11.09,19.08,24,22c18.69,4.23,32.05-26.24,51-22c12.69,2.84,12.44,17.78,26,20c13.97,2.29,17.34-13.07,34-13
		c16.46,0.07,24.11,15.09,42,12c3.98-0.69,7.09-2.03,9-3"/>
	<path class="st2" d="M476,661c8.29-6.98,19.69-14.62,28-11c10.72,4.67,6.48,23.78,16,28c15.17,6.73,38.93-36.03,61-30
		c12.6,3.44,11.09,19.08,24,22c18.69,4.23,32.05-26.24,51-22c12.69,2.84,12.44,17.78,26,20c13.97,2.29,17.34-13.07,34-13
		c16.46,0.07,24.11,15.09,42,12c3.98-0.69,7.09-2.03,9-3"/>
	<path class="st2" d="M463,751c8.29-6.98,19.69-14.62,28-11c10.72,4.67,6.48,23.78,16,28c15.17,6.73,38.93-36.03,61-30
		c12.6,3.44,11.09,19.08,24,22c18.69,4.23,32.05-26.24,51-22c12.69,2.84,12.44,17.78,26,20c13.97,2.29,17.34-13.07,34-13
		c16.46,0.07,24.11,15.09,42,12c3.98-0.69,7.09-2.03,9-3"/>
	<path class="st2" d="M390,830c8.29-6.98,19.69-14.62,28-11c10.72,4.67,6.48,23.78,16,28c15.17,6.73,38.93-36.03,61-30
		c12.6,3.44,11.09,19.08,24,22c18.69,4.23,32.05-26.24,51-22c12.69,2.84,12.44,17.78,26,20c13.97,2.29,17.34-13.07,34-13
		c16.46,0.07,24.11,15.09,42,12c3.98-0.69,7.09-2.03,9-3"/>
	<path class="st2" d="M522,881c8.29-6.98,19.69-14.62,28-11c10.72,4.67,6.48,23.78,16,28c15.17,6.73,38.93-36.03,61-30
		c12.6,3.44,11.09,19.08,24,22c18.69,4.23,32.05-26.24,51-22c12.69,2.84,12.44,17.78,26,20c13.97,2.29,17.34-13.07,34-13
		c16.46,0.07,24.11,15.09,42,12c3.98-0.69,7.09-2.03,9-3"/>
	<path class="st2" d="M213,795c7.46-2.45,16.12-4.13,20,0c4.42,4.7-0.53,13.57,3,16c5.79,3.99,22.44-17.65,33-13
		c5.29,2.33,3.62,8.87,9,11c9.05,3.59,17.71-13.38,30-11c7.65,1.48,8.84,8.93,18,10c5.24,0.61,9.84-1.24,13-3"/>
	<path class="st2" d="M358,242c121.24-15.46,164.22-9.49,178,1c2.67,2.03,15.04,12.45,29,10c8.08-1.42,11.24-6.19,17-10
		c19.49-12.9,43.32,2.13,80,6c12.61,1.33,31,1.79,54-3"/>
	<path class="st2" d="M993,359c9.03,10.94,19.31,18.95,30,18c14.81-1.31,24.48-19.28,31-16c5.27,2.65,2.27,16.05,6,17
		c4.49,1.14,9.78-18.08,18-18c6.88,0.07,8.21,13.6,18,17c7.72,2.68,16.72-2.31,24-8"/>
	<path class="st2" d="M1005,426c2.59-4.28,5.77-8.61,8-8c3.6,0.98,0.37,13.65,6,17c5.12,3.05,10.76-5.63,23-5
		c8.13,0.42,9.41,4.44,15,3c7.75-2,7.62-10.33,15-12c4.27-0.96,6.74,1.28,16,5c7.49,3.01,14.07,4.85,19,6"/>
	<path class="st2" d="M1008,477c16.1-9.32,22.45-9.36,25-7c3.97,3.67-1.99,12.43,3,19c4.02,5.28,13.6,7.13,20,4
		c10.39-5.08,9.08-21.64,14-22c6.22-0.46,8.14,26.01,21,30c8.24,2.55,17.86-5.09,24-11"/>
</g>
<g id="OFFICE_x5F_SUPPLIES">
	<path class="st3" d="M153.93,505.53l-64.85,54.95l-48.48-57.22c-8.93-10.53-7.62-26.31,2.91-35.24l26.7-22.63
		c10.53-8.93,26.31-7.62,35.24,2.91L153.93,505.53z"/>
	<path class="st4" d="M225.14,628.24l-26.7,22.63c-10.53,8.93-26.31,7.62-35.24-2.91l-74.34-87.74l64.85-54.95l74.34,87.74
		C236.97,603.54,235.67,619.32,225.14,628.24z"/>
	<path class="st5" d="M839,254c0,0,66.5-66.5,101-46s-4.5,63.5-24.5,88.5s-70,46-91,36s21-49,34-69s45-25,60-27s-14,34-14,34"/>
	<path class="st5" d="M980.5,612.5c0,0,15-36,44-45s25,71,25,80s-5,60-49,61s-21-51-19-57s14-45,34-47s2,54,5,43s-7,38-17,37
		s-2-44-2-44"/>
</g>
<g id="PAIN">
	<g id="PAIN_x5F_1">
		<path class="st6" d="M231.94,781.87l43.93-100.3l473.72-420.77c11.86-10.53,30.01-9.46,40.55,2.4l22.94,25.84
			c10.53,11.86,9.45,30.01-2.41,40.54L336.84,750.25L231.94,781.87z"/>
		<path class="st7" d="M811.67,329.6c11.62-10.32,12.62-28.17,2.24-39.87l-24.13-27.18c-10.39-11.7-28.23-12.82-39.85-2.5
			l-69.07,61.32c0,0,22.95,10.72,38.38,28.11c15.44,17.39,23.24,41.3,23.24,41.3L811.67,329.6z"/>
		<path class="st8" d="M722.08,408.47c0,0-4.2-19.8-23.39-41.41c-19.19-21.62-38.02-27.76-38.02-27.76l20.19-17.93
			c0,0,19.2,5.81,38.02,27.76c18.82,21.95,23.39,41.41,23.39,41.41L722.08,408.47z"/>
		<polygon class="st9" points="227.15,786.36 276.05,681.14 336.96,750.38 		"/>
		<polygon class="st10" points="227.6,786.04 252.39,731.86 284.09,767.9 		"/>
	</g>
	<g id="PAIN_x5F_2">
		<path class="st11" d="M475.5,145.5L85,152c0,0-9.5-13.5-9.5-31.5S85,89,85,89l390.5,6.5V145.5z"/>
		<polygon class="st8" points="512.5,132.5 475.5,144.5 475.5,96.5 512.5,108.5 		"/>
		<polygon class="st12" points="546.5,121.5 512.5,130.5 512.5,110.5 546.5,120.5 		"/>
	</g>
</g>
</svg>
