<?xml version="1.0" encoding="utf-8"?>
<!-- Generator: Adobe Illustrator 24.2.3, SVG Export Plug-In . SVG Version: 6.00 Build 0)  -->
<svg version="1.1" id="Слой_1" xmlns="http://www.w3.org/2000/svg" xmlns:xlink="http://www.w3.org/1999/xlink" x="0px" y="0px"
	 viewBox="0 0 400 400" style="enable-background:new 0 0 400 400;" xml:space="preserve">
<style type="text/css">
	.st0{fill:#006975;}
	.st1{fill:#B0D2FF;stroke:#0071BC;stroke-width:2;stroke-miterlimit:10;}
	.st2{fill:#DBB996;}
	.st3{fill:#E5C3A0;}
	.st4{fill:#42210B;}
	.st5{fill:none;stroke:#000000;stroke-miterlimit:10;}
	.st6{fill:#618EA4;}
	.st7{fill:#7B9195;}
	.st8{fill:#E6E6E6;stroke:#999999;stroke-miterlimit:10;}
	.st9{fill:#B3B3B3;}
	.st10{fill:#93D2FF;stroke:#2E3192;stroke-miterlimit:10;}
	.st11{fill:none;stroke:#999999;stroke-linecap:round;stroke-miterlimit:10;}
	.st12{fill:none;stroke:#0071BC;stroke-miterlimit:10;}
</style>
<g>
	<ellipse class="st0" cx="200" cy="258.14" rx="181.48" ry="132.43"/>
	<path class="st1" d="M222.62,254.55h-41.87c-2.75,0-5-2.25-5-5v-58.78c0-2.75,2.25-5,5-5h41.87c2.75,0,5,2.25,5,5v58.78
		C227.62,252.3,225.37,254.55,222.62,254.55z"/>
	<path class="st2" d="M208.22,271.46h-11.93c-3.85,0-7-3.15-7-7v-5.53c0-3.85,3.15-7,7-7h11.93c3.85,0,7,3.15,7,7v5.53
		C215.22,268.31,212.07,271.46,208.22,271.46z"/>
	<circle class="st3" cx="201.69" cy="234.25" r="25.93"/>
	<path class="st4" d="M227.62,234.25c0,7.89-11.61,16.91-25.93,16.91s-25.93-7.89-25.93-16.91c0-14.32,11.61-25.93,25.93-25.93
		S227.62,219.93,227.62,234.25z"/>
	<path class="st5" d="M175.8,235.68"/>
	<path class="st6" d="M291.78,313.06l-5.61,6.77c-1.4,1.69-3.94,1.93-5.63,0.53l-49.24-40.8c-1.69-1.4-1.93-3.94-0.53-5.63
		l5.61-6.77c1.4-1.69,3.94-1.93,5.63-0.53l49.24,40.8C292.94,308.83,293.18,311.36,291.78,313.06z"/>
	<path class="st6" d="M115.17,313.08l5.81,7.01c1.4,1.69,3.94,1.93,5.63,0.53l49.25-40.8c1.69-1.4,1.93-3.94,0.53-5.63l-5.81-7.01
		c-1.4-1.69-3.94-1.93-5.63-0.53l-49.25,40.8C114.01,308.85,113.77,311.38,115.17,313.08z"/>
	<path class="st7" d="M239.16,400h-71.54c-1.1,0-2-0.9-2-2V267.82c0-1.1,0.9-2,2-2h71.54c1.1,0,2,0.9,2,2V398
		C241.16,399.1,240.26,400,239.16,400z"/>
	<path class="st6" d="M167.27,354.76l-6.68,5.72c-1.67,1.43-4.21,1.24-5.64-0.44l-39.82-46.48c-1.43-1.67-1.24-4.21,0.44-5.64
		l6.68-5.72c1.67-1.43,4.21-1.24,5.64,0.44l39.82,46.48C169.14,350.8,168.94,353.33,167.27,354.76z"/>
	<circle class="st2" cx="166.74" cy="360.54" r="11.28"/>
	<path class="st6" d="M240.17,354.2l6.68,5.72c1.67,1.43,4.21,1.24,5.64-0.44l39.82-46.48c1.43-1.67,1.24-4.21-0.44-5.64l-6.68-5.72
		c-1.67-1.43-4.21-1.24-5.64,0.44l-39.82,46.48C238.3,350.23,238.49,352.77,240.17,354.2z"/>
	<circle class="st2" cx="240.59" cy="361.1" r="11.28"/>
	<path class="st1" d="M163.99,227.49h-50.89c-2.75,0-5-2.25-5-5v-41.87c0-2.75,2.25-5,5-5h50.89c2.75,0,5,2.25,5,5v41.87
		C168.99,225.24,166.74,227.49,163.99,227.49z"/>
	<path class="st1" d="M134.68,283.86H98.45c-2.75,0-5-2.25-5-5v-33.97c0-2.75,2.25-5,5-5h36.23c2.75,0,5,2.25,5,5v33.97
		C139.68,281.61,137.43,283.86,134.68,283.86z"/>
	<path class="st1" d="M264.34,198.17h-24.95c-2.75,0-5-2.25-5-5v-22.7c0-2.75,2.25-5,5-5h24.95c2.75,0,5,2.25,5,5v22.7
		C269.34,195.92,267.09,198.17,264.34,198.17z"/>
	<path class="st1" d="M299.3,211.7h-13.68c-2.75,0-5-2.25-5-5V184c0-2.75,2.25-5,5-5h13.68c2.75,0,5,2.25,5,5v22.7
		C304.3,209.45,302.05,211.7,299.3,211.7z"/>
	<path class="st1" d="M298.17,254.55h-50.89c-2.75,0-5-2.25-5-5v-27.21c0-2.75,2.25-5,5-5h50.89c2.75,0,5,2.25,5,5v27.21
		C303.17,252.3,300.92,254.55,298.17,254.55z"/>
	<circle class="st8" cx="203.95" cy="156.45" r="21.42"/>
	<circle class="st9" cx="148.13" cy="241.58" r="2.82"/>
	<circle class="st9" cx="156.03" cy="241.58" r="2.82"/>
	<circle class="st9" cx="163.92" cy="241.58" r="2.82"/>
	<path class="st10" d="M260.34,246.66h-2.3c-4.95,0-9-4.05-9-9v-4.55c0-4.95,4.05-9,9-9h2.3c4.95,0,9,4.05,9,9v4.55
		C269.34,242.61,265.29,246.66,260.34,246.66z"/>
	<path class="st10" d="M121.91,277.1h-8.44c-6.05,0-11-4.95-11-11v-2.81c0-6.05,4.95-11,11-11h8.44c6.05,0,11,4.95,11,11v2.81
		C132.91,272.15,127.96,277.1,121.91,277.1z"/>
	<line class="st11" x1="203.95" y1="153.07" x2="203.95" y2="139.54"/>
	<line class="st11" x1="207.33" y1="156.45" x2="215.22" y2="156.45"/>
	<line class="st12" x1="274.42" y1="244.4" x2="299.22" y2="244.4"/>
	<line class="st12" x1="184.21" y1="192.53" x2="214.66" y2="192.53"/>
	<line class="st12" x1="184.21" y1="195.92" x2="214.66" y2="195.92"/>
	<line class="st12" x1="185.34" y1="202.68" x2="215.79" y2="202.68"/>
	<line class="st12" x1="240.59" y1="172.24" x2="262.58" y2="172.24"/>
	<line class="st12" x1="240.59" y1="179" x2="262.58" y2="179"/>
	<line class="st12" x1="240.59" y1="186.9" x2="262.58" y2="186.9"/>
	<g>
		<line class="st12" x1="273.29" y1="223.54" x2="298.1" y2="223.54"/>
		<line class="st12" x1="273.29" y1="228.61" x2="298.1" y2="228.61"/>
		<line class="st12" x1="273.29" y1="238.76" x2="298.1" y2="238.76"/>
		<line class="st12" x1="274.21" y1="233.12" x2="292.12" y2="233.12"/>
	</g>
	<g>
		<line class="st12" x1="114.31" y1="181.82" x2="139.11" y2="181.82"/>
		<line class="st12" x1="114.31" y1="186.9" x2="139.11" y2="186.9"/>
		<line class="st12" x1="114.31" y1="197.04" x2="139.11" y2="197.04"/>
		<line class="st12" x1="115.23" y1="191.41" x2="133.14" y2="191.41"/>
	</g>
	<g>
		<line class="st12" x1="139.11" y1="181.82" x2="163.92" y2="181.82"/>
		<line class="st12" x1="139.11" y1="186.9" x2="163.92" y2="186.9"/>
		<line class="st12" x1="139.11" y1="197.04" x2="163.92" y2="197.04"/>
		<line class="st12" x1="140.03" y1="191.41" x2="157.95" y2="191.41"/>
	</g>
	<line class="st12" x1="126.71" y1="201.55" x2="148.7" y2="201.55"/>
	<line class="st12" x1="105.29" y1="246.66" x2="127.27" y2="246.66"/>
	<line class="st12" x1="181.96" y1="207.19" x2="212.4" y2="207.19"/>
	<line class="st12" x1="122.2" y1="217.34" x2="132.91" y2="217.34"/>
	<line class="st12" x1="285.69" y1="186.9" x2="296.4" y2="186.9"/>
	<line class="st12" x1="285.69" y1="191.41" x2="296.4" y2="191.41"/>
	<line class="st12" x1="285.7" y1="196.11" x2="295.28" y2="196.11"/>
	<line class="st12" x1="285.7" y1="198.36" x2="295.28" y2="198.36"/>
	<line class="st12" x1="285.7" y1="201.75" x2="295.28" y2="201.75"/>
	<line class="st12" x1="286.83" y1="208.51" x2="296.41" y2="208.51"/>
</g>
</svg>
