<svg width="48" height="48" viewBox="0 0 48 48" fill="none" xmlns="http://www.w3.org/2000/svg">
<path d="M44.5305 17.068C44.333 16.7859 44.0085 16.6166 43.67 16.6166H37.1111V13.8238C37.1111 13.2455 36.6315 12.7659 36.0532 12.7659H12.2857C11.7074 12.7659 11.2278 13.2455 11.2278 13.8238V30.9194C11.2278 31.4977 11.7074 31.9773 12.2857 31.9773H15.276C15.8261 33.8956 17.6034 35.3202 19.691 35.3202C21.7787 35.3202 23.5558 33.9097 24.1059 31.9773H35.8275C36.3776 33.8956 38.1549 35.3202 40.2423 35.3202C42.33 35.3202 44.1073 33.9097 44.6574 31.9773H46.8437C47.4221 31.9773 47.9015 31.4977 47.9015 30.9194V22.2164C47.9015 21.9907 47.831 21.7792 47.7041 21.6099L44.5305 17.068ZM45.7999 22.5267H41.0606V18.7465H43.134L45.7999 22.5267ZM13.3436 14.8958H34.9952V29.8756H24.2047C23.7956 27.7458 21.9337 26.1378 19.691 26.1378C17.4482 26.1378 15.5722 27.7458 15.1773 29.8756H13.3436V14.8958ZM19.691 33.2045C18.3228 33.2045 17.2084 32.0902 17.2084 30.722C17.2084 29.3538 18.3228 28.2395 19.691 28.2395C21.0592 28.2395 22.1735 29.3538 22.1735 30.722C22.1735 32.0902 21.0592 33.2045 19.691 33.2045ZM40.2566 33.2045C38.8884 33.2045 37.7739 32.0902 37.7739 30.722C37.7739 29.3538 38.8884 28.2395 40.2566 28.2395C41.6248 28.2395 42.7391 29.3538 42.7391 30.722C42.7391 32.0902 41.6248 33.2045 40.2566 33.2045ZM44.7703 29.8756C44.3612 27.7458 42.4993 26.1378 40.2566 26.1378C39.0435 26.1378 37.9292 26.6172 37.1111 27.3931V18.7465H38.9306V23.5846C38.9306 24.163 39.4102 24.6425 39.9885 24.6425H45.8141V29.8756H44.7703Z" fill="white"/>
<path d="M1.0579 14.8958H8.60425C9.18257 14.8958 9.66214 14.4162 9.66214 13.8379C9.66214 13.2596 9.18257 12.78 8.60425 12.78H1.0579C0.47958 12.78 0 13.2596 0 13.8379C0 14.4162 0.47958 14.8958 1.0579 14.8958Z" fill="white"/>
<path d="M8.60416 16.6309H2.79276C2.21444 16.6309 1.73486 17.1104 1.73486 17.6888C1.73486 18.2671 2.21444 18.7466 2.79276 18.7466H8.60416C9.18246 18.7466 9.66205 18.2671 9.66205 17.6888C9.66205 17.1104 9.19658 16.6309 8.60416 16.6309Z" fill="white"/>
<path d="M8.60419 20.4814H4.9368C4.35848 20.4814 3.87891 20.9611 3.87891 21.5393C3.87891 22.1178 4.35848 22.5972 4.9368 22.5972H8.60419C9.1825 22.5972 9.66208 22.1178 9.66208 21.5393C9.66208 20.9611 9.19661 20.4814 8.60419 20.4814Z" fill="white"/>
<path d="M8.60424 24.3323H7.33475C6.75642 24.3323 6.27686 24.8119 6.27686 25.3901C6.27686 25.9686 6.75642 26.4482 7.33475 26.4482H8.60424C9.18254 26.4482 9.66213 25.9686 9.66213 25.3901C9.66213 24.8119 9.19666 24.3323 8.60424 24.3323Z" fill="white"/>
</svg>
