
<svg width="48" height="48" viewBox="0 0 48 48" fill="none" xmlns="http://www.w3.org/2000/svg">
<path d="M39.9347 43.3007C40.4027 43.3007 40.7906 42.9127 40.7906 42.4447V14.7954C40.7906 14.784 40.7906 14.7612 40.7906 14.7498C40.7906 14.5215 40.6993 14.3047 40.551 14.1564L32.5746 4.90185L32.5631 4.89045C32.5631 4.89045 32.5631 4.89045 32.5517 4.87903C32.5288 4.84479 32.4947 4.82198 32.4718 4.79916C32.4718 4.79916 32.4718 4.79916 32.4604 4.78774C32.4262 4.76492 32.4034 4.7421 32.3691 4.71928L32.3576 4.70786C32.2892 4.66223 32.2207 4.63939 32.1409 4.61657H32.1294C32.061 4.60517 31.9926 4.59375 31.9241 4.59375H8.07459C7.60672 4.59375 7.21875 4.98173 7.21875 5.44959V42.4676C7.21875 42.9354 7.60672 43.3236 8.07459 43.3236H39.9347V43.3007ZM32.7799 7.73184L38.0747 13.8825H32.7799V7.73184ZM8.93044 6.28262H31.0682V14.7383C31.0682 15.2062 31.4563 15.5942 31.9241 15.5942H39.0904V41.5776H8.93044V6.28262Z" fill="white"/>
<path d="M15.7658 24.9741C13.3581 24.9741 11.4067 26.9254 11.4067 29.3331C11.4067 30.3944 11.7833 31.3643 12.4224 32.1175V38.4394C12.4224 38.7589 12.6049 39.0556 12.8902 39.2039C13.1755 39.3522 13.5178 39.3295 13.7803 39.1354L15.7773 37.7091L17.7628 39.1354C17.9112 39.2382 18.0823 39.2952 18.2649 39.2952C18.4018 39.2952 18.5274 39.2611 18.6529 39.2039C18.9382 39.0556 19.1208 38.7589 19.1208 38.4394V32.1175C19.7484 31.3643 20.1363 30.3944 20.1363 29.3331C20.1249 26.9369 18.1736 24.9741 15.7658 24.9741ZM15.7658 26.6858C17.2265 26.6858 18.4133 27.8725 18.4133 29.3331C18.4133 30.7937 17.2265 31.9806 15.7658 31.9806C15.0355 31.9806 14.3623 31.684 13.883 31.1933C13.883 31.1933 13.883 31.1933 13.8716 31.1819C13.4037 30.7026 13.1184 30.0522 13.1184 29.3331C13.1184 27.8725 14.3052 26.6858 15.7658 26.6858ZM16.2679 35.9517C15.9712 35.7349 15.5718 35.7349 15.2637 35.9517L14.1226 36.7733V33.3728C14.6247 33.5781 15.1839 33.6923 15.7544 33.6923C16.3364 33.6923 16.8841 33.5781 17.3862 33.3728V36.7733L16.2679 35.9517Z" fill="white"/>
<path d="M12.5822 11.4404H15.7659C16.2338 11.4404 16.6217 11.0525 16.6217 10.5846C16.6217 10.1167 16.2338 9.72876 15.7659 9.72876H12.5822C12.1143 9.72876 11.7263 10.1167 11.7263 10.5846C11.7263 11.0525 12.1143 11.4404 12.5822 11.4404Z" fill="white"/>
<path d="M24.8834 13.3804H12.5822C12.1143 13.3804 11.7263 13.7683 11.7263 14.2362C11.7263 14.7041 12.1143 15.0921 12.5822 15.0921H24.8834C25.3514 15.0921 25.7394 14.7041 25.7394 14.2362C25.7394 13.7683 25.3514 13.3804 24.8834 13.3804Z" fill="white"/>
<path d="M24.8834 17.0435H12.5822C12.1143 17.0435 11.7263 17.4315 11.7263 17.8993C11.7263 18.3672 12.1143 18.7551 12.5822 18.7551H24.8834C25.3514 18.7551 25.7394 18.3672 25.7394 17.8993C25.7394 17.4315 25.3514 17.0435 24.8834 17.0435Z" fill="white"/>
</svg>
