<svg width="48" height="48" viewBox="0 0 48 48" fill="none" xmlns="http://www.w3.org/2000/svg">
<path d="M19.2069 15.8279C19.0519 15.9955 18.951 16.1037 18.8752 16.1848C19.0159 16.0334 19.2069 15.8279 19.2069 15.8279Z" fill="white"/>
<path d="M26.0915 17.1024C26.6071 17.7369 26.8631 18.4851 26.8631 19.3467C26.8631 19.9632 26.6863 20.5563 26.3349 21.1297C26.142 21.454 25.8879 21.7677 25.5705 22.067L24.5141 23.1108C23.501 24.1059 22.8466 24.9873 22.5474 25.759C22.2481 26.5287 22.0985 27.5437 22.0985 28.802H24.4492C24.4492 27.6933 24.5754 26.855 24.8259 26.287C25.0766 25.7193 25.6245 25.027 26.4701 24.2067C27.6328 23.08 28.4043 22.2256 28.7865 21.6451C29.1686 21.0646 29.3615 20.3075 29.3615 19.3737C29.3615 17.8343 28.8406 16.5687 27.7968 15.5772C26.753 14.5857 25.365 14.0918 23.6308 14.0918C21.756 14.0918 20.2813 14.6704 19.2069 15.8278C18.1324 16.9852 17.5952 18.5139 17.5952 20.4157H19.946C19.9891 19.271 20.1714 18.3949 20.4868 17.7873C21.0493 16.6967 22.0661 16.1505 23.537 16.1505C24.725 16.1505 25.5778 16.4678 26.0915 17.1024Z" fill="white"/>
<path d="M24.0852 4.58521C34.7605 4.58521 43.415 13.2397 43.415 23.915C43.415 34.5903 34.7605 43.2448 24.0852 43.2448C13.4098 43.2448 4.75537 34.5903 4.75537 23.915C4.75537 13.2397 13.4098 4.58521 24.0852 4.58521ZM24.0852 5.3879C13.8526 5.3879 5.55805 13.6825 5.55805 23.915C5.55805 34.1475 13.8526 42.4422 24.0852 42.4422C34.3177 42.4422 42.6122 34.1475 42.6122 23.915C42.6122 13.6825 34.3177 5.3879 24.0852 5.3879Z" fill="white" stroke="white"/>
<path d="M24.6728 30.9922H22.0444V33.7377H24.6728V30.9922Z" fill="white"/>
</svg>
