<svg width="48" height="48" viewBox="0 0 48 48" fill="none" xmlns="http://www.w3.org/2000/svg">
<path d="M8.7983 5.62999C10.7598 4.9038 12.9846 5.36965 14.4904 6.87505C16.597 8.98165 16.597 12.3981 14.4903 14.5048C12.3831 16.612 8.96714 16.612 6.85996 14.5048C5.34824 12.9931 4.88536 10.756 5.62401 8.78918C5.81043 8.29283 5.55918 7.73937 5.06283 7.55295C4.56646 7.36652 4.01302 7.61777 3.82658 8.11414C2.82548 10.7799 3.45308 13.8133 5.50233 15.8625C8.3593 18.7195 12.991 18.7195 15.848 15.8625C18.7045 13.006 18.7045 8.37383 15.848 5.5173C13.807 3.47683 10.7902 2.8452 8.13168 3.82943C7.63448 4.01351 7.38061 4.5658 7.56468 5.06299C7.74876 5.5602 8.30108 5.81408 8.7983 5.62999Z" fill="white"/>
<path d="M7.56598 5.53513L10.0447 8.01337C10.2477 8.21653 10.2477 8.54684 10.0446 8.74991L8.7357 10.0588C8.53223 10.2623 8.2026 10.2623 7.99911 10.0588L5.53376 7.59397C5.15882 7.21912 4.55098 7.21916 4.17613 7.59412C3.80126 7.96906 3.80132 8.5769 4.17626 8.95175L6.64157 11.4165C7.59482 12.3698 9.1401 12.3698 10.0934 11.4165L11.4023 10.1076C12.3551 9.15478 12.3551 7.60925 11.4026 6.65596L8.92354 4.17734C8.54858 3.80249 7.94076 3.80253 7.56589 4.1775C7.19104 4.55244 7.19104 5.16028 7.56598 5.53513ZM39.2072 42.4048C37.2456 43.131 35.0209 42.6651 33.5151 41.1598C31.4085 39.0531 31.4085 35.6367 33.5151 33.5299C35.6224 31.4228 39.0382 31.4228 41.1456 33.5299C42.6572 35.0417 43.1201 37.2788 42.3814 39.2457C42.195 39.742 42.4462 40.2955 42.9426 40.4818C43.4391 40.6682 43.9924 40.417 44.1789 39.9207C45.18 37.255 44.5524 34.2216 42.5031 32.1724C39.6461 29.3153 35.0145 29.3153 32.1576 32.1724C29.301 35.0288 29.301 39.661 32.1576 42.5175C34.1985 44.5579 37.2152 45.1896 39.8738 44.2054C40.371 44.0213 40.6249 43.4691 40.4408 42.9718C40.2566 42.4746 39.7044 42.2207 39.2072 42.4048Z" fill="white"/>
<path d="M40.4395 42.4996L37.9613 40.0213C37.7579 39.8178 37.7579 39.488 37.961 39.285L39.2699 37.9756C39.4733 37.7722 39.8028 37.7722 40.0064 37.9758L42.4716 40.4407C42.8466 40.8155 43.4545 40.8155 43.8293 40.4405C44.2041 40.0655 44.2041 39.4578 43.8291 39.083L41.3639 36.6181C40.4106 35.6649 38.8653 35.6649 37.912 36.6181L36.6035 37.9273C35.6502 38.8798 35.6502 40.4257 36.6036 41.3791L39.0818 43.8573C39.4566 44.2321 40.0645 44.2321 40.4395 43.8573C40.8143 43.4823 40.8143 42.8745 40.4395 42.4996ZM31.6156 34.6023L13.2753 16.2621C12.9004 15.8872 12.2926 15.8872 11.9177 16.2621C11.5427 16.637 11.5427 17.2448 11.9177 17.6197L30.2579 35.96C30.6329 36.335 31.2408 36.335 31.6156 35.96C31.9906 35.5852 31.9906 34.9773 31.6156 34.6023ZM16.114 13.0902L34.8815 31.8577C35.2565 32.2325 35.8643 32.2325 36.2391 31.8577C36.6141 31.4827 36.6141 30.875 36.2391 30.5L17.4716 11.7325C17.0967 11.3576 16.4889 11.3576 16.114 11.7325C15.7391 12.1074 15.7391 12.7153 16.114 13.0902ZM28.1101 18.3645L36.3944 10.0802C36.7694 9.70533 36.7694 9.09749 36.3944 8.72259C36.0196 8.34768 35.4117 8.34768 35.0367 8.72259L26.7524 17.0069C26.3776 17.3818 26.3776 17.9896 26.7524 18.3645C27.1274 18.7395 27.7353 18.7395 28.1101 18.3645ZM38.1597 11.3373L29.6028 19.8112C29.2261 20.1843 29.2231 20.7922 29.5962 21.1689C29.9693 21.5456 30.5772 21.5486 30.9539 21.1755L39.5108 12.7016C39.8875 12.3285 39.8905 11.7207 39.5174 11.3439C39.1443 10.9672 38.5366 10.9642 38.1597 11.3373Z" fill="white"/>
<path d="M44.3307 6.14085C44.458 6.26822 44.5471 6.42885 44.5874 6.60439C44.6279 6.77991 44.6179 6.96326 44.5591 7.13348L43.2372 10.9553C43.1897 11.0926 43.1116 11.2174 43.0088 11.3202C42.9061 11.423 42.7812 11.5012 42.6437 11.5487L38.8216 12.8711C38.6513 12.93 38.4679 12.9398 38.2924 12.8994C38.1169 12.859 37.9562 12.77 37.8287 12.6426L35.3294 10.1428C35.2021 10.0154 35.1132 9.85477 35.0729 9.67926C35.0324 9.50374 35.0421 9.3204 35.101 9.15019L36.4231 5.32841C36.4705 5.19103 36.5487 5.06625 36.6514 4.96346C36.7542 4.86066 36.8791 4.78256 37.0163 4.73503L40.8381 3.41263C41.0084 3.35374 41.1917 3.34391 41.3672 3.3843C41.5427 3.42471 41.7034 3.51368 41.8307 3.64106L44.3307 6.14085ZM40.8981 5.42357L38.0851 6.39694L37.1121 9.21009L38.7617 10.8601L41.5752 9.88672L42.5483 7.07366L40.8981 5.42357ZM21.1561 30.9502L9.78581 42.3206C9.4344 42.672 9.01228 42.7174 8.86078 42.5661L5.36668 39.072C5.21559 38.9207 5.26103 38.4988 5.61268 38.1469L16.9606 26.7996C17.3355 26.4246 17.3355 25.8167 16.9606 25.4419C16.5858 25.0669 15.9779 25.0669 15.603 25.4419L4.25484 36.7896C3.21047 37.8345 3.03596 39.4556 4.00881 40.4293L7.50347 43.9239C8.47744 44.8971 10.0992 44.7225 11.1435 43.6781L22.5137 32.3079C22.8886 31.9329 22.8886 31.3251 22.5137 30.9502C22.1387 30.5752 21.5311 30.5752 21.1561 30.9502Z" fill="white"/>
</svg>
