<svg width="48" height="48" viewBox="0 0 48 48" fill="none" xmlns="http://www.w3.org/2000/svg">
<path d="M7.97779 29.3208L4.93781 26.2808C3.69781 25.0408 3.69781 23.0008 4.93781 21.7608L7.97779 18.7208C8.49779 18.2008 8.91779 17.1808 8.91779 16.4608V12.1607C8.91779 10.4007 10.3578 8.96076 12.1178 8.96076H16.4178C17.1378 8.96076 18.1578 8.54082 18.6778 8.02082L21.7178 4.98078C22.9578 3.74078 24.9978 3.74078 26.2378 4.98078L29.2778 8.02082C29.7978 8.54082 30.8178 8.96076 31.5378 8.96076H35.8378C37.5978 8.96076 39.0378 10.4007 39.0378 12.1607V16.4608C39.0378 17.1808 39.4578 18.2008 39.9778 18.7208L43.0178 21.7608C44.2578 23.0008 44.2578 25.0408 43.0178 26.2808L39.9778 29.3208C39.4578 29.8408 39.0378 30.8608 39.0378 31.5808V35.8806C39.0378 37.6406 37.5978 39.0808 35.8378 39.0808H31.5378C30.8178 39.0808 29.7978 39.5008 29.2778 40.0208L26.2378 43.0608C24.9978 44.3008 22.9578 44.3008 21.7178 43.0608L18.6778 40.0208C18.1578 39.5008 17.1378 39.0808 16.4178 39.0808H12.1178C10.3578 39.0808 8.91779 37.6406 8.91779 35.8806V31.5808C8.91779 30.8408 8.49779 29.8208 7.97779 29.3208Z" stroke="white" stroke-width="1.5" stroke-linecap="round" stroke-linejoin="round"/>
<path d="M18 30L30 18" stroke="white" stroke-width="1.5" stroke-linecap="round" stroke-linejoin="round"/>
<path d="M28.989 29H29.001" stroke="white" stroke-width="1.5" stroke-linecap="round" stroke-linejoin="round"/>
<path d="M18.989 19H19.001" stroke="white" stroke-width="1.5" stroke-linecap="round" stroke-linejoin="round"/>
</svg>
