<svg width="64" height="64" viewBox="0 0 64 64" fill="none" xmlns="http://www.w3.org/2000/svg">
<path d="M44.2441 20.08C44.2561 20.08 44.2721 20.08 44.2881 20.08C44.7061 20.08 45.0941 20.21 45.4121 20.434L45.4061 20.43C45.6381 20.632 45.7941 20.916 45.8321 21.236V21.242C45.8721 21.486 45.8941 21.766 45.8941 22.052C45.8941 22.182 45.8901 22.31 45.8801 22.438V22.42C45.4301 27.158 43.4781 38.648 42.4861 43.952C42.0661 46.198 41.2401 46.95 40.4401 47.022C38.7021 47.184 37.3821 45.874 35.6981 44.77C33.0621 43.04 31.5721 41.964 29.0141 40.278C26.0561 38.332 27.9741 37.258 29.6581 35.51C30.1001 35.05 37.7621 28.08 37.9121 27.448C37.9201 27.41 37.9241 27.368 37.9241 27.324C37.9241 27.168 37.8661 27.026 37.7721 26.918C37.6681 26.85 37.5381 26.812 37.4021 26.812C37.3121 26.812 37.2261 26.83 37.1461 26.86L37.1501 26.858C36.8861 26.918 32.6754 29.7007 24.5181 35.206C23.6281 35.908 22.5041 36.352 21.2801 36.404H21.2681C19.5341 36.194 17.9601 35.808 16.4661 35.258L16.6141 35.306C14.7381 34.694 13.2481 34.372 13.3761 33.336C13.4441 32.7973 14.1867 32.246 15.6041 31.682C24.3347 27.878 30.1567 25.3707 33.0701 24.16C36.2841 22.454 40.0101 21.05 43.9281 20.14L44.2421 20.078L44.2441 20.08ZM31.8601 2.04999C15.2561 2.08999 1.81006 15.56 1.81006 32.17C1.81006 48.804 15.2941 62.29 31.9301 62.29C48.5661 62.29 62.0501 48.806 62.0501 32.17C62.0501 15.56 48.6041 2.08999 32.0041 2.04999H32.0001C31.9534 2.04999 31.9067 2.04999 31.8601 2.04999Z" fill="white"/>
</svg>
