<svg width="64" height="64" viewBox="0 0 64 64" fill="none" xmlns="http://www.w3.org/2000/svg">
<path d="M32 0C14.3275 0 0 14.3268 0 32C0 49.6732 14.3275 64 32 64C49.6725 64 64 49.6732 64 32C64 14.3268 49.6725 0 32 0ZM48.2321 35.4609C49.7236 36.9177 51.3015 38.2887 52.6404 39.8961C53.2336 40.6071 53.7927 41.3424 54.2183 42.1693C54.8259 43.3485 54.2772 44.6416 53.2218 44.7116L46.666 44.7103C44.9728 44.8504 43.6254 44.1675 42.4895 43.01C41.5827 42.0874 40.7413 41.1021 39.8679 40.1481C39.5111 39.7566 39.1353 39.388 38.6874 39.0979C37.7937 38.5165 37.0172 38.6946 36.5052 39.6283C35.9834 40.5783 35.8642 41.6311 35.8145 42.6885C35.7431 44.2343 35.2769 44.6383 33.7259 44.711C30.4116 44.8661 27.2669 44.3633 24.3442 42.6924C21.7659 41.2186 19.7703 39.1385 18.0313 36.7835C14.645 32.1925 12.0516 27.1537 9.72145 21.9702C9.19701 20.8028 9.58069 20.1782 10.8685 20.1539C13.0082 20.1127 15.1479 20.1179 17.2875 20.152C18.1583 20.1657 18.7345 20.664 19.0691 21.4857C20.2253 24.3305 21.6428 27.0371 23.4191 29.5474C23.8925 30.2159 24.3757 30.8824 25.0638 31.3544C25.8233 31.8756 26.402 31.7034 26.7602 30.8555C26.9893 30.3167 27.0882 29.7405 27.138 29.163C27.3082 27.1851 27.3285 25.2078 27.0339 23.2377C26.8505 22.0049 26.1572 21.2087 24.9282 20.9756C24.3023 20.8571 24.394 20.6253 24.6984 20.2679C25.2268 19.6498 25.7218 19.2674 26.7111 19.2674L34.1181 19.2661C35.2854 19.4953 35.5473 20.0191 35.7058 21.195L35.7123 29.4263C35.6986 29.8813 35.9408 31.23 36.7579 31.5279C37.4127 31.744 37.8448 31.2189 38.2363 30.8045C40.0126 28.9195 41.2782 26.6947 42.4115 24.392C42.9118 23.3765 43.3432 22.3257 43.7622 21.2729C44.0739 20.4944 44.5584 20.1114 45.4371 20.1245L52.5697 20.133C52.7799 20.133 52.9933 20.135 53.2015 20.171C54.4036 20.3766 54.7329 20.8938 54.361 22.0664C53.7757 23.9088 52.6384 25.4435 51.5267 26.9821C50.3351 28.6294 49.0643 30.2191 47.8844 31.8736C46.8002 33.3861 46.886 34.1475 48.2321 35.4609Z" fill="white"/>
</svg>
