<svg width="53" height="53" viewBox="0 0 53 53" fill="none" xmlns="http://www.w3.org/2000/svg">
<path d="M0 26.5C0 41.1355 11.8645 53 26.5 53C41.1355 53 53 41.1355 53 26.5C53 11.8645 41.1355 0 26.5 0C11.8645 0 0 11.8645 0 26.5Z" fill="white"/>
<path d="M24.6484 1.85195C18.7714 2.28875 13.4106 4.70536 9.20143 8.81813C3.66479 14.2186 1.00993 21.8655 1.99132 29.5465C3.21664 39.1505 9.98994 47.1491 19.2933 49.9799C26.4864 52.1696 34.4907 50.8705 40.5889 46.5308C48.0827 41.1927 51.9799 32.3375 50.8227 23.2724C49.5973 13.6684 42.824 5.66973 33.5207 2.83902C30.7523 1.99377 27.5245 1.63638 24.6484 1.85195ZM26.5261 17.1061C27.7855 17.2309 28.4151 17.4294 28.6988 17.7981C28.7725 17.9003 28.8917 18.1499 28.9597 18.3541C29.1072 18.7852 29.1129 19.2787 29.0221 22.9661C28.9654 25.2692 28.9994 25.9783 29.1866 26.4889C29.4079 27.0731 29.8957 27.3398 30.3269 27.1185C30.7183 26.9143 31.6316 25.9102 32.2273 25.0196C33.6057 22.9774 34.4453 21.3947 35.4551 18.9497C35.6593 18.4675 35.9316 18.1499 36.2152 18.0761C36.3287 18.0421 37.9341 18.0137 39.9082 18.008L43.397 17.9967L43.692 18.1215C44.072 18.2917 44.2195 18.5129 44.2195 18.9157C44.2195 19.6815 43.4197 21.2529 42.0469 23.1759C41.8596 23.4426 41.1506 24.3842 40.4755 25.2749C38.9835 27.2377 38.6602 27.6972 38.4333 28.1737C38.1496 28.775 38.2177 29.2685 38.6659 29.8528C38.7963 30.0173 39.4544 30.681 40.1294 31.3277C42.0185 33.1374 42.8751 34.0904 43.5728 35.1342C44.072 35.8887 44.2649 36.4446 44.1855 36.9211C44.1458 37.1821 43.8848 37.4941 43.5898 37.6472C43.2381 37.8231 42.6992 37.8571 39.7324 37.8968L36.9243 37.9365L36.4705 37.7834C35.3133 37.3976 34.5418 36.7566 32.7889 34.7257C31.8188 33.6025 31.0984 33.0523 30.5992 33.0466C30.1397 33.0466 29.5554 33.6593 29.3058 34.4194C29.1356 34.93 29.0732 35.3214 29.0221 36.2063C28.9597 37.2501 28.8349 37.4941 28.1939 37.7607C27.9613 37.8628 25.0682 37.8968 24.3024 37.8174C22.7651 37.6472 21.3412 37.165 19.9287 36.3311C17.8808 35.1285 16.6271 34.0507 15.2827 32.3375C12.9455 29.3536 11.3514 26.8122 9.41699 22.9774C8.66818 21.4855 7.7889 19.5567 7.64708 19.0972C7.50526 18.6207 7.70948 18.2293 8.17465 18.0818C8.33349 18.0307 9.21844 18.0024 11.2606 17.974L14.1254 17.9456L14.4601 18.0704C14.9877 18.2747 15.2089 18.5356 15.5663 19.4035C15.8726 20.1353 17.5234 23.4482 18.0396 24.3729C18.5672 25.3089 19.1288 26.0918 19.611 26.5569C20.2066 27.1412 20.4733 27.283 20.893 27.249C21.2504 27.215 21.3469 27.1355 21.5681 26.6534C22.107 25.4904 22.1921 21.5592 21.7099 20.0162C21.432 19.1369 21.0178 18.8022 19.8719 18.5583C19.6734 18.5129 19.6734 18.4448 19.8549 18.1782C20.2974 17.5429 21.0859 17.2365 22.5892 17.1117C23.4118 17.0437 25.851 17.038 26.5261 17.1061Z" fill="#45668E"/>
</svg>
