<svg width="42" height="42" viewBox="0 0 42 42" fill="none" xmlns="http://www.w3.org/2000/svg">
<path d="M35 38.5H7C6.07174 38.5 5.1815 38.1312 4.52513 37.4749C3.86875 36.8185 3.5 35.9282 3.5 35V15.8357C3.52909 15.2573 3.69911 14.6947 3.99527 14.1969C4.29143 13.6991 4.70474 13.2813 5.19925 12.9797L19.1992 4.57974C19.743 4.2537 20.3651 4.08148 20.9991 4.08148C21.6331 4.08148 22.2552 4.2537 22.799 4.57974L36.799 12.9797C37.8507 13.615 38.4965 14.7525 38.5 15.981V35C38.5 35.9282 38.1313 36.8185 37.4749 37.4749C36.8185 38.1312 35.9283 38.5 35 38.5ZM7 17.269V35H35V17.269L21 26.6017L7 17.269ZM21 7.58099L9.303 14.5985L21 22.3965L32.6953 14.5985L21 7.58099V7.58099Z" fill="white"/>
</svg>
