<svg width="53" height="53" viewBox="0 0 53 53" fill="none" xmlns="http://www.w3.org/2000/svg">
<rect width="53" height="53" rx="26.5" fill="white"/>
<g clip-path="url(#clip0_105_82)">
<path d="M26.0909 2C32.4802 2 38.6078 4.53814 43.1258 9.05606C47.6437 13.574 50.1818 19.7016 50.1818 26.0909C50.1818 32.4802 47.6437 38.6078 43.1258 43.1258C38.6078 47.6437 32.4802 50.1818 26.0909 50.1818C19.7016 50.1818 13.574 47.6437 9.05606 43.1258C4.53814 38.6078 2 32.4802 2 26.0909C2 19.7016 4.53814 13.574 9.05606 9.05606C13.574 4.53814 19.7016 2 26.0909 2V2ZM26.0909 5.93485C15.0211 5.93485 6.01515 14.9408 6.01515 26.0909C6.00998 30.3287 7.34067 34.4604 9.81809 37.8986C12.2955 41.3369 15.7936 43.9068 19.8152 45.2432C19.8752 45.2522 19.9354 45.2589 19.9959 45.2633C20.811 45.3034 21.1161 44.7453 21.1161 44.2595L21.088 40.8305C15.507 42.0471 14.3265 38.1243 14.3265 38.1243C13.4151 35.7955 12.0981 35.1772 12.0981 35.1772C10.2752 33.9245 12.2346 33.9486 12.2346 33.9486C13.7002 34.053 14.6598 35.1049 15.0773 35.6751L15.3102 36.0284C17.101 39.108 20.008 38.2207 21.1523 37.7067C21.337 36.4018 21.8509 35.5145 22.4251 35.0086C17.9683 34.4986 13.2826 32.7681 13.2826 25.043C13.2826 22.8427 14.0655 21.0439 15.3504 19.6305L15.2299 19.2892C14.973 18.4742 14.6196 16.6473 15.5471 14.2944L15.7077 14.2663C16.2056 14.202 17.908 14.2141 21.068 16.3622C22.7048 15.9145 24.3939 15.6863 26.0909 15.6836C27.7973 15.6917 29.5158 15.9165 31.1179 16.3662C34.9523 13.7564 36.6347 14.2944 36.6347 14.2944C37.7268 17.0729 37.0362 19.1206 36.8355 19.6345C38.1203 21.0398 38.8952 22.8427 38.8952 25.043C38.8952 32.7922 34.2015 34.4946 29.7286 34.9925C30.4514 35.6148 31.0938 36.8475 31.0938 38.7266L31.0697 44.2595C31.0697 44.7814 31.411 45.3917 32.3666 45.2432C36.3882 43.9068 39.8863 41.3369 42.3637 37.8986C44.8411 34.4604 46.1718 30.3287 46.1667 26.0909C46.1667 14.9408 37.1607 5.93485 26.0909 5.93485Z" fill="black"/>
</g>
<defs>
<clipPath id="clip0_105_82">
<rect width="48.1818" height="48.1818" fill="white" transform="translate(2.40906 2.40918)"/>
</clipPath>
</defs>
</svg>
