<svg width="128" height="129" viewBox="0 0 128 129" fill="none" xmlns="http://www.w3.org/2000/svg">
<path fill-rule="evenodd" clip-rule="evenodd" d="M128 64.7903C128 100.137 99.3462 128.79 64 128.79C28.6538 128.79 0 100.137 0 64.7903C0 29.4441 28.6538 0.790283 64 0.790283C99.3462 0.790283 128 29.4441 128 64.7903ZM54.3713 52.3383C54.3713 52.3383 54.0391 51.8407 53.7068 51.8407C53.3746 51.8407 53.1301 51.9486 53.0453 52.3383C53.041 52.9985 53.1848 53.6629 53.5429 54.3302C54.4346 56.0072 55.8641 57.3634 57.6935 58.4809C60.5153 60.2873 64.1424 60.8424 68.1521 60.805C71.0127 60.7878 74.2962 60.3894 77.7809 59.8084C82.4953 58.6966 86.7409 56.8083 90.7305 54.4956C95.0739 51.694 98.7168 47.936 101.521 43.0404C101.696 42.7004 101.871 42.3873 102.047 42.0742C102.998 40.3806 103.948 38.6875 104.675 32.7471C104.675 30.6373 104.294 28.4757 103.348 26.2724C102.363 23.4319 99.9652 21.3465 96.873 19.6322C96.873 19.6322 90.7305 16.3114 82.4292 16.3114C74.1279 16.3114 67.6531 18.4701 67.6531 18.4701C62.2009 20.0219 56.53 22.4539 50.7197 25.4425C46.7877 27.3927 42.9894 29.8492 39.2644 32.5817C33.1866 36.7669 28.8461 42.1875 25.3196 48.1877C24.1158 50.6341 23.4068 53.1711 23.3277 55.8245C23.5909 59.5106 25.1355 62.9422 27.976 66.1178C31.1026 69.7334 34.6521 72.8241 38.6014 75.4143L45.906 80.5602C46.8089 81.1767 47.6782 81.8213 48.4614 82.5378C47.3677 83.0986 46.15 83.7596 44.7425 84.5454C39.9332 86.7847 35.4474 90.3788 31.1285 94.6733C29.8068 96.3373 28.754 98.1494 28.1399 100.318C26.7161 105.348 27.6797 109.247 31.1285 111.939C32.3193 112.563 34.1876 112.936 36.6066 113.101C43.2037 113.066 48.0705 110.4 51.8803 106.129C55.1134 102.635 57.1657 97.9883 57.5253 91.6847C57.6709 89.0508 57.1523 86.5406 55.9832 84.1519C57.924 83.5524 59.9697 83.1981 62.175 83.2165C70.1282 83.9112 77.4947 85.3134 78.7761 94.0074C78.5719 96.2064 77.5192 98.1767 75.4553 99.6523C75.4553 99.6523 73.7957 100.482 74.2933 100.98C74.7909 101.477 75.7876 100.98 75.7876 100.98C78.7833 99.845 80.722 97.6877 81.4325 94.3396C82.061 90.7355 80.4459 87.2665 77.4487 83.881C75.0555 81.5079 72.0641 79.332 64.6659 78.9005C62.3001 78.912 60.127 78.9954 58.3566 79.2327C56.5156 79.5237 55.016 79.851 53.4936 80.353C52.1689 78.7578 50.5231 77.2225 48.561 75.7465L41.0895 69.9362C35.7739 65.7208 32.8687 61.2638 33.1204 56.489C33.1607 49.2649 38.6877 41.2627 57.1931 31.4197C65.7547 26.7613 74.3882 24.3509 83.0922 24.1151C90.7161 24.3509 96.9334 25.9617 97.7015 32.914C97.4138 38.7847 93.942 43.6056 88.7371 47.8555C82.0135 53.0474 74.2775 56.1726 65.1621 56.489C60.452 56.3739 56.7098 55.1558 54.3713 52.3383ZM51.14 86.1782C49.2473 87.154 47.4183 88.2783 45.5893 89.4026C45.252 89.6099 44.9148 89.8172 44.5771 90.0236C40.7486 92.6986 38.0204 95.7548 36.2758 99.1547C35.597 100.429 35.2533 101.83 35.1138 103.305C35.1051 105.831 36.3003 106.59 38.1023 106.459C41.649 106.676 45.0014 104.509 48.2302 100.814C50.3587 97.9797 51.7782 94.8113 51.8832 91.0188C52.0001 89.1001 51.7116 87.5207 51.14 86.1782Z" fill="#F0E3CA"/>
</svg>
