<svg width="33" height="33" viewBox="0 0 33 33" fill="none" xmlns="http://www.w3.org/2000/svg">
<g clip-path="url(#clip0_49_33)">
<path fill-rule="evenodd" clip-rule="evenodd" d="M11.72 0.704102C8.45734 0.704102 5.83334 3.44143 5.83334 6.79477C5.83334 8.83344 6.804 10.6441 8.296 11.7494C7.52704 12.3256 6.90375 13.0738 6.47609 13.9342C6.04843 14.7946 5.8283 15.7433 5.83334 16.7041C5.83334 18.7441 6.804 20.5534 8.296 21.6588C7.52704 22.2349 6.90375 22.9831 6.47609 23.8436C6.04843 24.704 5.8283 25.6526 5.83334 26.6134C5.83334 29.9668 8.45734 32.7041 11.72 32.7041C14.9813 32.7041 17.6067 29.9668 17.6067 26.6134V21.4641C18.6378 22.3238 19.9375 22.7951 21.28 22.7961C24.5427 22.7948 27.1667 20.0574 27.1667 16.7041C27.172 15.7432 26.952 14.7945 26.5243 13.934C26.0967 13.0735 25.4732 12.3253 24.704 11.7494C25.473 11.1733 26.0963 10.4251 26.5239 9.56465C26.9516 8.70423 27.1717 7.75559 27.1667 6.79477C27.1667 3.44143 24.5427 0.704102 21.28 0.704102H11.72ZM8.04534 6.79477C8.04534 4.67343 9.70134 2.97477 11.72 2.97477H15.3933V10.6148H11.72C9.70134 10.6148 8.04534 8.91477 8.04534 6.79477ZM21.28 10.6134H17.6067V2.97343H21.28C23.3 2.97343 24.9547 4.67343 24.9547 6.79477C24.9547 8.91477 23.3 10.6134 21.28 10.6134ZM8.04667 16.7041C8.04667 14.5841 9.70267 12.8841 11.7213 12.8841H15.3947V20.5241H11.72C9.7 20.5241 8.04534 18.8241 8.04534 16.7041H8.04667ZM17.6067 16.7041C17.6067 14.5841 19.2627 12.8841 21.2813 12.8841C23.3013 12.8841 24.956 14.5828 24.956 16.7041C24.956 18.8241 23.3013 20.5241 21.2813 20.5241C19.2627 20.5241 17.608 18.8254 17.608 16.7041H17.6067ZM8.04667 26.6134C8.04667 24.4934 9.70267 22.7948 11.7213 22.7948H15.3947V26.6134C15.3947 28.7348 13.7413 30.4334 11.7213 30.4334C9.70267 30.4334 8.04667 28.7348 8.04667 26.6134Z" fill="#F0E3CA"/>
</g>
<defs>
<clipPath id="clip0_49_33">
<rect width="32" height="32" fill="white" transform="translate(0.5 0.704102)"/>
</clipPath>
</defs>
</svg>
