<svg width="128" height="129" viewBox="0 0 128 129" fill="#CA669B" xmlns="http://www.w3.org/2000/svg">
<path fill-rule="evenodd" clip-rule="evenodd" d="M128 64.7286C128 100.075 99.3462 128.729 64 128.729C28.6538 128.729 0 100.075 0 64.7286C0 29.3824 28.6538 0.728607 64 0.728607C99.3462 0.728607 128 29.3824 128 64.7286ZM54.3713 52.2767C54.3713 52.2767 54.0391 51.779 53.7068 51.779C53.3746 51.779 53.1301 51.8869 53.0453 52.2767C53.041 52.9368 53.1848 53.6012 53.5429 54.2686C54.4346 55.9455 55.8641 57.3017 57.6935 58.4192C60.5153 60.2256 64.1424 60.7807 68.1521 60.7434C71.0127 60.7261 74.2961 60.3277 77.7809 59.7467C82.4953 58.6349 86.7409 56.7466 90.7305 54.434C95.0739 51.6323 98.7168 47.8743 101.521 42.9787C101.696 42.6387 101.871 42.3256 102.047 42.0125C102.998 40.319 103.948 38.6258 104.675 32.6855C104.675 30.5756 104.294 28.414 103.348 26.2107C102.363 23.3702 99.9652 21.2848 96.873 19.5705C96.873 19.5705 90.7305 16.2497 82.4292 16.2497C74.1279 16.2497 67.6531 18.4084 67.6531 18.4084C62.2009 19.9603 56.53 22.3923 50.7197 25.3808C46.7877 27.331 42.9894 29.7875 39.2644 32.5201C33.1866 36.7052 28.8461 42.1258 25.3196 48.126C24.1158 50.5724 23.4068 53.1094 23.3277 55.7629C23.5909 59.449 25.1355 62.8805 27.976 66.0561C31.1026 69.6717 34.6521 72.7624 38.6014 75.3526L45.906 80.4985C46.8089 81.115 47.6782 81.7596 48.4614 82.4761C47.3677 83.037 46.15 83.6979 44.7425 84.4838C39.9332 86.723 35.4474 90.3171 31.1285 94.6116C29.8068 96.2756 28.754 98.0877 28.1399 100.257C26.7161 105.286 27.6797 109.185 31.1285 111.877C32.3193 112.501 34.1876 112.874 36.6066 113.039C43.2037 113.005 48.0705 110.338 51.8803 106.067C55.1134 102.573 57.1657 97.9266 57.5253 91.623C57.6709 88.9892 57.1523 86.479 55.9832 84.0902C57.924 83.4907 59.9697 83.1364 62.175 83.1549C70.1282 83.8495 77.4947 85.2518 78.7761 93.9457C78.5719 96.1447 77.5192 98.115 75.4553 99.5906C75.4553 99.5906 73.7957 100.42 74.2933 100.918C74.7909 101.416 75.7876 100.918 75.7876 100.918C78.7833 99.7834 80.722 97.6261 81.4325 94.2779C82.061 90.6738 80.4459 87.2048 77.4487 83.8193C75.0555 81.4463 72.0641 79.2703 64.6659 78.8388C62.3001 78.8503 60.127 78.9337 58.3566 79.171C56.5156 79.462 55.016 79.7893 53.4936 80.2913C52.1689 78.6961 50.5231 77.1609 48.561 75.6848L41.0895 69.8745C35.7739 65.6591 32.8687 61.2021 33.1204 56.4273C33.1607 49.2032 38.6877 41.2011 57.1931 31.358C65.7547 26.6997 74.3882 24.2892 83.0922 24.0534C90.7161 24.2892 96.9334 25.9 97.7015 32.8523C97.4138 38.723 93.942 43.5439 88.7371 47.7938C82.0135 52.9857 74.2775 56.1109 65.1621 56.4273C60.452 56.3123 56.7098 55.0941 54.3713 52.2767ZM51.14 86.1166C49.2473 87.0924 47.4183 88.2166 45.5893 89.3409C45.252 89.5482 44.9148 89.7555 44.5771 89.9619C40.7486 92.6369 38.0204 95.6931 36.2758 99.093C35.597 100.367 35.2533 101.768 35.1138 103.244C35.1051 105.769 36.3003 106.529 38.1023 106.398C41.649 106.615 45.0014 104.447 48.2302 100.753C50.3587 97.918 51.7782 94.7496 51.8832 90.9571C52.0001 89.0384 51.7116 87.459 51.14 86.1166Z" fill="#CA669B"/>
</svg>
