<svg width="129" height="129" viewBox="0 0 129 129" fill="#F25234" xmlns="http://www.w3.org/2000/svg">
<path fill-rule="evenodd" clip-rule="evenodd" d="M17 0.271393C7.6112 0.271393 3.72467e-05 7.88255 3.72467e-05 17.2714V33.4265H0V44.2909H3.72467e-05V64.2714V111.271C3.72467e-05 120.66 7.6112 128.271 17 128.271H64.2498H111.5C120.888 128.271 128.5 120.66 128.5 111.271V64.2714V17.2714C128.5 7.88255 120.888 0.271393 111.5 0.271393H64.2498H17ZM3.72467e-05 44.2909H27.5528C29.5255 49.0907 34.2471 52.4704 39.758 52.4704C41.5519 52.4704 43.2622 52.1123 44.8212 51.4637L78.3283 84.9708C77.6855 86.5239 77.3307 88.2264 77.3307 90.0119C77.3307 97.2967 83.2362 103.202 90.521 103.202C97.8058 103.202 103.711 97.2967 103.711 90.0119C103.711 82.7271 97.8058 76.8216 90.521 76.8216C89.0264 76.8216 87.5898 77.0702 86.2504 77.5283L53.013 44.2909H78.3782C80.3509 49.0907 85.0725 52.4704 90.5834 52.4704C97.8682 52.4704 103.774 46.5649 103.774 39.2802C103.774 31.9954 97.8682 26.0899 90.5834 26.0899C85.401 26.0899 80.9167 29.0787 78.76 33.4265H51.5815C49.4248 29.0787 44.9404 26.0899 39.758 26.0899C34.5756 26.0899 30.0913 29.0787 27.9346 33.4265H3.72467e-05V44.2909Z" fill="#F25234"/>
</svg>
