<svg width="128" height="129" viewBox="0 0 128 129" fill="none" xmlns="http://www.w3.org/2000/svg">
<path fill-rule="evenodd" clip-rule="evenodd" d="M0 0.790283H128V128.79H0V0.790283ZM69.4589 59.4569H57.851V101.998C57.851 103.253 56.7843 108.398 51.3883 108.147C45.9922 107.896 43.5451 101.873 43.5451 101.873L33.9451 107.771C33.9451 107.771 39.2785 118.688 50.0079 118.688C60.7373 118.688 69.4589 114.673 69.4589 101.998V59.4569ZM114.384 68.3667C110.35 61.3505 103.782 58.4369 96.9412 58.8295C90.1007 59.2221 80.1254 61.788 79.8745 75.3314C79.6237 88.8749 96.1255 93.5903 96.1255 93.5903C103.004 96.4836 106.238 98.1967 106.039 102.124C105.295 106.947 102.086 108.21 97.9451 108.21C93.8039 108.21 89.69 106.351 85.8981 100.931L76.3608 106.453C81.4623 114.524 87.4667 118.814 97.9451 118.751C108.424 118.688 118.4 113.292 118.086 102.124C117.773 90.955 112.376 88.0128 101.459 82.9236C94.2631 80.1006 92.1098 78.8452 91.7334 75.3314C91.3569 71.8177 93.8039 69.1824 97.3177 69.1824C100.831 69.1824 103.372 71.0658 105.161 74.3903L114.384 68.3667Z" fill="#F0E3CA"/>
</svg>
