<svg width="161" height="161" viewBox="0 0 161 161" fill="none" xmlns="http://www.w3.org/2000/svg">
<path d="M133.177 28.6781C126.581 19.6268 116.855 13.3507 105.89 11.069C94.9249 8.78725 83.5031 10.6629 73.8436 16.3314L40.0487 37.2313C35.5188 39.9611 31.6169 43.6174 28.5987 47.9604C25.5805 52.3035 23.5141 57.2354 22.5349 62.4328C20.9282 71.1262 22.3488 80.1076 26.5599 87.8808C23.674 92.1245 21.7019 96.9219 20.7689 101.968C19.8085 107.237 19.9381 112.646 21.1495 117.862C22.361 123.078 24.6287 127.991 27.8127 132.297C34.4093 141.349 44.1342 147.627 55.0994 149.912C66.0646 152.198 77.4877 150.327 87.1512 144.664L120.951 123.769C125.48 121.037 129.38 117.38 132.398 113.038C135.416 108.695 137.484 103.764 138.465 98.5672C140.082 89.8674 138.661 80.8762 134.44 73.099C137.329 68.8565 139.303 64.0588 140.236 59.0115C141.196 53.7415 141.065 48.3305 139.851 43.1131C138.637 37.8957 136.365 32.9828 133.177 28.6781" fill="#FF3E00"/>
<path d="M70.5482 134.032C65.264 135.388 59.6946 135.125 54.5616 133.278C49.4286 131.431 44.9685 128.085 41.7594 123.673C39.8378 121.087 38.4676 118.134 37.7337 114.997C36.9998 111.859 36.9179 108.605 37.4929 105.435C37.6842 104.394 37.9516 103.368 38.2929 102.366L38.9318 100.479L40.6626 101.676C44.6802 104.538 49.1497 106.705 53.8847 108.086L55.1174 108.454L54.9916 109.646C54.8468 111.38 55.3307 113.109 56.3551 114.516C57.318 115.878 58.6732 116.914 60.2401 117.486C61.8069 118.057 63.5108 118.138 65.1245 117.716C65.8536 117.527 66.5505 117.23 67.1924 116.836L100.902 95.9358C101.723 95.4382 102.43 94.7741 102.978 93.9864C103.527 93.1987 103.904 92.3049 104.087 91.3624C104.268 90.4122 104.252 89.4348 104.041 88.4907C103.83 87.5466 103.428 86.6558 102.859 85.8733C101.891 84.5425 100.546 83.5327 98.9976 82.9748C97.4494 82.4169 95.7694 82.3364 94.175 82.7439C93.442 82.9338 92.7417 83.2323 92.0971 83.6294L79.1567 91.5989C77.0297 92.9151 74.7161 93.9023 72.2941 94.5271C67.0057 95.8858 61.431 95.6242 56.2932 93.7761C51.1553 91.928 46.6913 88.5787 43.4801 84.1627C41.5712 81.5682 40.2153 78.6095 39.4961 75.4697C38.7769 72.33 38.7099 69.076 39.2991 65.9093C39.893 62.7899 41.1354 59.8299 42.9459 57.2211C44.7565 54.6123 47.0948 52.4129 49.8094 50.7653L83.559 29.8655C85.6862 28.5509 87.9999 27.5653 90.4216 26.9423C95.7102 25.5806 101.286 25.8402 106.425 27.6875C111.564 29.5349 116.029 32.8845 119.241 37.3016C121.162 39.8879 122.532 42.841 123.266 45.9782C124 49.1153 124.082 52.3698 123.507 55.5399C123.316 56.5813 123.049 57.6071 122.707 58.609L122.068 60.4957L120.337 59.3033C116.322 56.438 111.852 54.271 107.115 52.8935L105.883 52.5212L106.008 51.3288C106.153 49.5936 105.667 47.8644 104.64 46.4585C103.675 45.126 102.331 44.1148 100.783 43.5567C99.2347 42.9985 97.5547 42.9192 95.9611 43.3291C95.231 43.5181 94.5338 43.8167 93.8932 44.2146L60.0731 65.044C59.2521 65.5389 58.5449 66.2018 57.9978 66.989C57.4507 67.7763 57.0761 68.6702 56.8984 69.6123C56.7124 70.5632 56.7255 71.5424 56.9368 72.488C57.1481 73.4336 57.553 74.3252 58.1261 75.1065C59.0947 76.4364 60.4401 77.4452 61.9882 78.0022C63.5364 78.5592 65.2161 78.6388 66.81 78.2309C67.5419 78.0405 68.242 77.7439 68.8879 77.3504L81.778 69.3759C83.904 68.059 86.218 67.0734 88.6406 66.4527C93.9292 65.0938 99.5041 65.3548 104.643 67.2019C109.781 69.049 114.246 72.3971 117.46 76.8121C119.376 79.4005 120.741 82.3546 121.471 85.4916C122.2 88.6286 122.279 91.8819 121.701 95.0503C121.111 98.1733 119.87 101.137 118.06 103.749C116.249 106.361 113.908 108.562 111.191 110.209L77.4461 131.109C75.32 132.426 73.006 133.412 70.5834 134.032" fill="white"/>
</svg>
