<?xml version="1.0" encoding="utf-8"?>
<!-- Generator: Adobe Illustrator 24.2.3, SVG Export Plug-In . SVG Version: 6.00 Build 0)  -->
<svg version="1.1" id="Слой_1" xmlns="http://www.w3.org/2000/svg" xmlns:xlink="http://www.w3.org/1999/xlink" x="0px" y="0px"
	 viewBox="0 0 24 24" style="enable-background:new 0 0 24 24;" xml:space="preserve">
<style type="text/css">
	.st0{fill:#FFFFFF;}
	.st1{fill:#C76495;}
	.st2{fill:#DEDEDE;}
	.st3{fill:#AD5782;}
</style>
<circle class="st0" cx="12" cy="11.8" r="10.9"/>
<path class="st1" d="M12,24c6.6,0,12-5.4,12-12c0-6.6-5.4-12-12-12S0,5.4,0,12S5.4,24,12,24L12,24z M6.4,6.8
	c1.5-1.4,3.7-2.6,5.7-3.3C15.4,2.3,19,3,19.5,5.1l-0.1-0.1c0.5,2.1-1.3,4.6-3.6,5.5c-2.1,0.8-3.8,0.7-4.5,0.4
	c-0.8-0.3-1.3-0.8-1.4-1.1c0-0.1-0.1-0.3,0-0.4c0.1,0,0.1,0,0.3,0.2c0.2,0.2,1,0.8,2.4,0.6c3.9-0.4,6.2-3.4,5.4-5
	c-0.5-1.1-3.5-1.6-7.2,0.2c-4.5,2.3-4.8,4.1-4.8,4.8c-0.1,1.9,2.4,3,3.8,4.4l0.1,0.1c0.4-0.2,1-0.2,1.9-0.3c2.2,0,3.4,1.4,3.4,2.7
	c0,1-1,1.4-1.1,1.5c-0.1,0-0.2,0-0.2-0.1c0-0.1,0-0.1,0.2-0.2c0.2-0.1,0.6-0.4,0.7-0.9c0.1-0.5-0.3-1.9-2.4-2.1
	c-0.8-0.1-1.3,0-1.8,0.1c0.4,0.8,0.4,2.4-0.4,3.7c-0.9,1.3-2.5,2.1-4.1,1.6c-0.5-0.1-1.3-1.2-0.6-2.7c0.6-1.4,3.3-2.7,3.7-2.9v0
	c-1.2-1.1-4.3-2.5-4.7-4.7C4.3,10,4.6,8.5,6.4,6.8L6.4,6.8z"/>
<path class="st1" d="M6.8,19.8c0.4,0.2,1.4,0,2.1-0.8c0.2-0.3,0.4-0.5,0.6-0.8L9.5,18l0.1-0.2c0.2-0.5,0.2-1.1,0-1.8l-0.1,0.1v0
	c0,0-1.2,0.6-2.1,1.5C6.6,18.4,6.4,19.5,6.8,19.8L6.8,19.8z"/>
<path class="st2" d="M10,9.5C10,9.5,10,9.5,10,9.5C9.8,9.6,9.9,9.8,9.9,9.9c0.1,0.3,0.6,0.8,1.4,1.1c0.2,0.1,0.4,0.1,0.7,0.1v-0.8
	c-1,0-1.6-0.5-1.7-0.6C10.1,9.6,10,9.5,10,9.5L10,9.5z M7.2,19.8c-0.1,0-0.3,0-0.4-0.1c-0.4-0.3-0.2-1.3,0.6-2.2
	c0.9-0.9,2.1-1.5,2.1-1.5v0L9.6,16c0.2,0.6,0.2,1.2,0,1.8L9.5,18l-0.1,0.2c-0.1,0.3-0.3,0.6-0.6,0.8C8.4,19.5,7.7,19.8,7.2,19.8
	L7.2,19.8z"/>
<path class="st2" d="M12,3.5c-2,0.7-4.1,1.8-5.6,3.2c-1.8,1.7-2.1,3.2-2,3.8c0.4,2.2,3.5,3.7,4.7,4.7v0c-0.4,0.2-3.1,1.5-3.7,2.9
	c-0.7,1.5,0.1,2.5,0.6,2.7C6.3,21,6.6,21,6.9,21c1.3,0,2.5-0.7,3.2-1.8c0.8-1.3,0.8-2.9,0.4-3.7c0.3-0.1,0.7-0.1,1.1-0.1
	c0.1,0,0.2,0,0.4,0v-0.8c0,0,0,0-0.1,0c0,0,0,0-0.1,0c-0.9,0-1.5,0.1-1.9,0.3l-0.1-0.1c-1.4-1.5-3.9-2.5-3.8-4.4
	c0-0.7,0.3-2.6,4.8-4.8c0.4-0.2,0.7-0.3,1.1-0.5V3.5L12,3.5z"/>
<path class="st3" d="M12,5.1c-0.3,0.1-0.7,0.3-1.1,0.5c-4.5,2.3-4.8,4.1-4.8,4.8c-0.1,1.9,2.4,3,3.8,4.4l0.1,0.1
	c0.4-0.2,1-0.2,1.9-0.3c0,0,0,0,0.1,0c0,0,0,0,0.1,0v-3.5c-0.3,0-0.5-0.1-0.7-0.1c-0.8-0.3-1.3-0.8-1.4-1.1c0-0.1-0.1-0.3,0-0.4
	c0,0,0,0,0.1,0c0,0,0.1,0.1,0.3,0.2c0.2,0.2,0.7,0.6,1.7,0.6V5.1L12,5.1z M12,0C5.4,0,0,5.4,0,12l0,0c0,6.6,5.4,12,12,12l0,0v-8.5
	c-0.1,0-0.2,0-0.4,0c-0.4,0-0.8,0.1-1.1,0.1c0.4,0.8,0.4,2.4-0.4,3.7c-0.7,1-1.9,1.8-3.2,1.8c-0.3,0-0.6,0-0.9-0.1
	c-0.5-0.1-1.3-1.2-0.6-2.7c0.6-1.4,3.3-2.7,3.7-2.9v0c-1.2-1.1-4.3-2.5-4.7-4.7c-0.1-0.6,0.2-2.1,2-3.8C7.9,5.3,10,4.2,12,3.5V0
	L12,0L12,0z"/>
<path class="st3" d="M9.6,16l-0.1,0.1v0c0,0-1.2,0.6-2.1,1.5c-0.8,0.9-1,1.9-0.6,2.2c0.1,0.1,0.2,0.1,0.4,0.1c0.5,0,1.2-0.3,1.7-0.9
	c0.2-0.3,0.4-0.5,0.6-0.8L9.5,18l0.1-0.2C9.8,17.2,9.8,16.6,9.6,16L9.6,16z"/>
</svg>
