<svg width="16" height="17" viewBox="0 0 16 17" fill="none" xmlns="http://www.w3.org/2000/svg">
    <path
        d="M11.3334 9.70014C11.7016 9.70014 12.0001 9.40187 12.0001 9.03391C12.0001 8.66595 11.7016 8.36768 11.3334 8.36768C10.9652 8.36768 10.6667 8.66595 10.6667 9.03391C10.6667 9.40187 10.9652 9.70014 11.3334 9.70014Z"
        fill="white" />
    <path
        d="M11.3334 12.3652C11.7016 12.3652 12.0001 12.0669 12.0001 11.6989C12.0001 11.331 11.7016 11.0327 11.3334 11.0327C10.9652 11.0327 10.6667 11.331 10.6667 11.6989C10.6667 12.0669 10.9652 12.3652 11.3334 12.3652Z"
        fill="white" />
    <path
        d="M8.66659 9.03391C8.66659 9.40187 8.36812 9.70014 7.99992 9.70014C7.63172 9.70014 7.33325 9.40187 7.33325 9.03391C7.33325 8.66595 7.63172 8.36768 7.99992 8.36768C8.36812 8.36768 8.66659 8.66595 8.66659 9.03391Z"
        fill="white" />
    <path
        d="M8.66659 11.6989C8.66659 12.0669 8.36812 12.3652 7.99992 12.3652C7.63172 12.3652 7.33325 12.0669 7.33325 11.6989C7.33325 11.331 7.63172 11.0327 7.99992 11.0327C8.36812 11.0327 8.66659 11.331 8.66659 11.6989Z"
        fill="white" />
    <path
        d="M4.66667 9.70014C5.03486 9.70014 5.33333 9.40187 5.33333 9.03391C5.33333 8.66595 5.03486 8.36768 4.66667 8.36768C4.29848 8.36768 4 8.66595 4 9.03391C4 9.40187 4.29848 9.70014 4.66667 9.70014Z"
        fill="white" />
    <path
        d="M4.66667 12.3652C5.03486 12.3652 5.33333 12.0669 5.33333 11.6989C5.33333 11.331 5.03486 11.0327 4.66667 11.0327C4.29848 11.0327 4 11.331 4 11.6989C4 12.0669 4.29848 12.3652 4.66667 12.3652Z"
        fill="white" />
    <path fill-rule="evenodd" clip-rule="evenodd"
        d="M4.66659 1.53882C4.94273 1.53882 5.16659 1.76253 5.16659 2.03849V2.54664C5.60792 2.53816 6.09414 2.53816 6.62889 2.53817H9.37085C9.90565 2.53816 10.3919 2.53816 10.8333 2.54664V2.03849C10.8333 1.76253 11.0571 1.53882 11.3333 1.53882C11.6094 1.53882 11.8333 1.76253 11.8333 2.03849V2.58953C12.0065 2.60273 12.1707 2.61933 12.3259 2.64019C13.1075 2.74521 13.7402 2.96648 14.2391 3.46506C14.738 3.96365 14.9594 4.59586 15.0645 5.37698C15.1666 6.13595 15.1666 7.10573 15.1666 8.33007V9.73775C15.1666 10.9621 15.1666 11.9319 15.0645 12.6909C14.9594 13.472 14.738 14.1042 14.2391 14.6029C13.7402 15.1014 13.1075 15.3227 12.3259 15.4277C11.5665 15.5297 10.5961 15.5297 9.37092 15.5297H6.62898C5.40382 15.5297 4.43337 15.5297 3.67391 15.4277C2.89229 15.3227 2.25966 15.1014 1.76075 14.6029C1.26184 14.1042 1.04043 13.472 0.935346 12.6909C0.833232 11.9319 0.833239 10.9622 0.833252 9.73775V8.33013C0.833239 7.10573 0.833232 6.13596 0.935346 5.37698C1.04043 4.59586 1.26184 3.96365 1.76075 3.46506C2.25966 2.96648 2.89229 2.74521 3.67391 2.64019C3.82919 2.61933 3.99329 2.60273 4.16659 2.58953V2.03849C4.16659 1.76253 4.39045 1.53882 4.66659 1.53882ZM3.80715 3.63063C3.13643 3.72075 2.74999 3.88975 2.46785 4.17171C2.18571 4.45366 2.0166 4.83984 1.92643 5.51014C1.91115 5.62365 1.89839 5.74316 1.88771 5.86934H14.1121C14.1015 5.74316 14.0887 5.62365 14.0734 5.51014C13.9833 4.83984 13.8141 4.45366 13.532 4.17171C13.2499 3.88975 12.8634 3.72075 12.1927 3.63063C11.5076 3.53858 10.6045 3.53752 9.33325 3.53752H6.66658C5.39537 3.53752 4.49226 3.53858 3.80715 3.63063ZM1.83325 8.36771C1.83325 7.79875 1.83347 7.30354 1.84198 6.86869H14.1579C14.1664 7.30354 14.1666 7.79875 14.1666 8.36771V9.70018C14.1666 10.9706 14.1655 11.8731 14.0734 12.5578C13.9833 13.228 13.8141 13.6142 13.532 13.8962C13.2499 14.1781 12.8634 14.3472 12.1927 14.4372C11.5076 14.5293 10.6045 14.5304 9.33325 14.5304H6.66658C5.39537 14.5304 4.49226 14.5293 3.80715 14.4372C3.13643 14.3472 2.74999 14.1781 2.46785 13.8962C2.18571 13.6142 2.0166 13.228 1.92643 12.5578C1.83431 11.8731 1.83325 10.9706 1.83325 9.70018V8.36771Z"
        fill="white" />
</svg>