<svg width="20" height="21" viewBox="0 0 20 21" fill="none" xmlns="http://www.w3.org/2000/svg">
    <path
        d="M8.35857 7.96075C8.11449 7.71684 7.71876 7.71684 7.47468 7.96075C7.23061 8.20468 7.23061 8.60015 7.47468 8.84405L9.11607 10.4844L7.4747 12.1248C7.23062 12.3686 7.23062 12.7641 7.4747 13.008C7.71877 13.2519 8.11451 13.2519 8.35857 13.008L9.99998 11.3677L11.6413 13.008C11.8854 13.2519 12.2811 13.2519 12.5252 13.008C12.7693 12.7641 12.7693 12.3686 12.5252 12.1247L10.8838 10.4844L12.5252 8.84405C12.7693 8.60016 12.7693 8.2047 12.5252 7.96078C12.2811 7.71685 11.8854 7.71685 11.6413 7.96078L9.99998 9.60106L8.35857 7.96075Z"
        fill="white" />
    <path fill-rule="evenodd" clip-rule="evenodd"
        d="M9.99996 1.53189C5.05241 1.53189 1.04163 5.54007 1.04163 10.4844C1.04163 15.4288 5.05241 19.4369 9.99996 19.4369C14.9475 19.4369 18.9583 15.4288 18.9583 10.4844C18.9583 5.54007 14.9475 1.53189 9.99996 1.53189ZM2.29163 10.4844C2.29163 6.22998 5.74277 2.78108 9.99996 2.78108C14.2571 2.78108 17.7083 6.22998 17.7083 10.4844C17.7083 14.7388 14.2571 18.1877 9.99996 18.1877C5.74277 18.1877 2.29163 14.7388 2.29163 10.4844Z"
        fill="white" />
</svg>