<svg width="20" height="21" viewBox="0 0 20 21" fill="none" xmlns="http://www.w3.org/2000/svg">
    <path fill-rule="evenodd" clip-rule="evenodd"
        d="M6.32208 3.57889C5.99091 3.8314 5.59894 4.22123 5.01829 4.80151L3.81304 6.00597C3.23239 6.58625 2.8423 6.97796 2.58963 7.30891C2.34798 7.62544 2.29163 7.81194 2.29163 7.97324C2.29163 8.13455 2.34798 8.32105 2.58963 8.63758C2.8423 8.96852 3.23239 9.36021 3.81304 9.9405C4.05713 10.1844 4.05713 10.5799 3.81304 10.8238C3.56897 11.0678 3.17324 11.0678 2.92916 10.8238L2.89841 10.7931C2.35644 10.2515 1.90551 9.80092 1.59586 9.39535C1.26936 8.96767 1.04163 8.5175 1.04163 7.97324C1.04163 7.42899 1.26936 6.97882 1.59586 6.55117C1.90551 6.14558 2.35644 5.69498 2.89841 5.15339C2.90863 5.14318 2.91888 5.13294 2.92916 5.12266L4.13441 3.9182C4.14468 3.90793 4.15493 3.89769 4.16515 3.88748C4.70708 3.34585 5.15799 2.89521 5.56384 2.58576C5.99178 2.25948 6.44223 2.03189 6.98684 2.03189C7.53145 2.03189 7.98192 2.25948 8.40986 2.58576C8.81569 2.89521 9.26661 3.34585 9.80853 3.88747L9.83928 3.9182C9.95653 4.03533 10.0224 4.1942 10.0224 4.35985C10.0224 4.5255 9.95653 4.68437 9.83928 4.80151L7.83053 6.80894C7.58646 7.05287 7.19073 7.05287 6.94665 6.80894C6.70258 6.56503 6.70258 6.16956 6.94665 5.92563L8.51244 4.36087C8.16167 4.01524 7.89078 3.76125 7.65162 3.57889C7.33488 3.33738 7.14825 3.28108 6.98684 3.28108C6.82543 3.28108 6.63881 3.33739 6.32208 3.57889ZM16.6289 10.962C16.7946 10.962 16.9535 11.0279 17.0708 11.145L17.1015 11.1757C17.6434 11.7173 18.0944 12.1679 18.404 12.5735C18.7305 13.0012 18.9583 13.4513 18.9583 13.9955C18.9583 14.5398 18.7305 14.99 18.404 15.4176C18.0944 15.8233 17.6434 16.2738 17.1015 16.8154L15.8348 18.0814C15.2929 18.6229 14.8419 19.0736 14.4361 19.383C14.0081 19.7093 13.5577 19.9369 13.0131 19.9369C12.4684 19.9369 12.018 19.7093 11.5901 19.383C11.1842 19.0736 10.7334 18.6229 10.1914 18.0814L10.1606 18.0506C9.91652 17.8067 9.91652 17.4112 10.1606 17.1673C10.4047 16.9234 10.8004 16.9234 11.0445 17.1673C11.6252 17.7476 12.0171 18.1374 12.3483 18.3899C12.665 18.6314 12.8517 18.6877 13.0131 18.6877C13.1745 18.6877 13.3611 18.6314 13.6779 18.3899C14.009 18.1374 14.4009 17.7476 14.9816 17.1673L16.1869 15.9628C16.7675 15.3825 17.1576 14.9909 17.4103 14.6599C17.6519 14.3434 17.7083 14.1568 17.7083 13.9955C17.7083 13.8342 17.6519 13.6478 17.4103 13.3312C17.2278 13.0922 16.9737 12.8215 16.6278 12.4709L15.062 14.0357C14.8179 14.2797 14.4222 14.2797 14.1781 14.0357C13.934 13.7918 13.934 13.3963 14.1781 13.1524L16.1869 11.145C16.3041 11.0279 16.463 10.962 16.6289 10.962Z"
        fill="white" />
    <path fill-rule="evenodd" clip-rule="evenodd"
        d="M12.2971 3.17402C13.821 1.65118 16.2916 1.65118 17.8155 3.17402C19.3393 4.69687 19.3393 7.16588 17.8155 8.68872L9.91104 16.588C9.45946 17.0393 9.19354 17.305 8.89779 17.5356C8.54929 17.8072 8.17208 18.0402 7.77301 18.2303C7.43442 18.3915 7.07774 18.5103 6.47182 18.7121L3.69588 19.6369L3.02748 19.8595C2.48535 20.0401 1.88764 19.8991 1.48356 19.4953C1.07948 19.0915 0.938376 18.4941 1.11909 17.9524L2.26719 14.5103C2.46915 13.9048 2.58803 13.5483 2.74939 13.21C2.93958 12.8111 3.17268 12.4342 3.44458 12.0859C3.67525 11.7903 3.94112 11.5246 4.39277 11.0733L12.2971 3.17402ZM16.9315 4.05733C15.8959 3.02233 14.2167 3.02233 13.181 4.05733L12.6295 4.60858C12.658 4.75429 12.7061 4.95236 12.7865 5.1839C12.9675 5.70519 13.3093 6.38979 13.9535 7.03351C14.5975 7.67723 15.2826 8.01885 15.8042 8.19971C16.036 8.28004 16.2341 8.32818 16.38 8.35666L16.9315 7.8054C17.9672 6.7704 17.9672 5.09233 16.9315 4.05733ZM15.366 9.36995C14.7088 9.13828 13.8621 8.70891 13.0695 7.91682C12.277 7.12473 11.8473 6.27862 11.6155 5.62185L5.3076 11.9256C4.81622 12.4167 4.60795 12.6263 4.43021 12.8541C4.21416 13.1309 4.02893 13.4304 3.8778 13.7474C3.75347 14.008 3.65896 14.288 3.4392 14.9468L2.64989 17.3132L3.66705 18.3297L6.03498 17.5409C6.69424 17.3213 6.97435 17.2268 7.23523 17.1026C7.55235 16.9516 7.85206 16.7665 8.12906 16.5505C8.35696 16.3729 8.56671 16.1648 9.05812 15.6737L15.366 9.36995Z"
        fill="white" />
</svg>