<svg width="17" height="15" viewBox="0 0 17 15" fill="none" xmlns="http://www.w3.org/2000/svg">
    <path fill-rule="evenodd" clip-rule="evenodd"
        d="M8.6276 2.16187C8.55471 2.1026 8.44529 2.1026 8.37239 2.16187L1.46113 7.78141C1.22173 7.97608 0.856263 7.95519 0.644843 7.73477C0.433423 7.51435 0.456107 7.17787 0.69551 6.9832L7.60678 1.36365C8.11702 0.948771 8.88298 0.948771 9.39323 1.36365L14.0125 5.11958L16.3045 6.9832C16.5439 7.17787 16.5666 7.51435 16.3552 7.73477C16.1437 7.95519 15.7783 7.97608 15.5389 7.78141L14.208 6.69929V12.4407C14.208 13.1269 13.6039 13.6831 12.8586 13.6831H4.25904C3.51379 13.6831 2.90965 13.1269 2.90965 12.4407V8.80221C2.90965 8.50813 3.16856 8.26975 3.48796 8.26975C3.80734 8.26975 4.06627 8.50813 4.06627 8.80221V12.4407C4.06627 12.5387 4.15257 12.6182 4.25904 12.6182H12.8586C12.9651 12.6182 13.0514 12.5387 13.0514 12.4407V5.75884L8.6276 2.16187Z"
        fill="white" />
</svg>