<svg width="16" height="17" viewBox="0 0 16 17" fill="none" xmlns="http://www.w3.org/2000/svg">
    <path fill-rule="evenodd" clip-rule="evenodd"
        d="M5.96334 1.2229H10.0365C10.9483 1.22289 11.6831 1.22287 12.2611 1.30034C12.8612 1.38078 13.3664 1.55285 13.7677 1.9529C14.169 2.35296 14.3416 2.85667 14.4223 3.45491C14.4999 4.03113 14.4999 4.76377 14.4999 5.67272V11.0628C14.4999 11.9717 14.4999 12.7043 14.4223 13.2806C14.3416 13.8788 14.169 14.3825 13.7677 14.7826C13.3664 15.1826 12.8612 15.3547 12.2611 15.4351C11.6831 15.5126 10.9483 15.5126 10.0365 15.5126H5.96334C5.75433 15.5126 5.55461 15.5126 5.36395 15.5116C5.3538 15.5122 5.34356 15.5126 5.33325 15.5126C5.32105 15.5126 5.30894 15.5121 5.29695 15.5113C4.68529 15.5075 4.16863 15.4928 3.73875 15.4351C3.13868 15.3547 2.63343 15.1826 2.23215 14.7826C1.83087 14.3825 1.65828 13.8788 1.5776 13.2806C1.51352 12.8054 1.50229 12.2238 1.50033 11.5248H1.33325C1.05711 11.5248 0.833252 11.3016 0.833252 11.0263C0.833252 10.751 1.05711 10.5278 1.33325 10.5278H1.49992V8.86621H1.33325C1.05711 8.86621 0.833252 8.64303 0.833252 8.36773C0.833252 8.09244 1.05711 7.86926 1.33325 7.86926H1.49992V6.20767H1.33325C1.05711 6.20767 0.833252 5.98449 0.833252 5.70919C0.833252 5.43389 1.05711 5.21072 1.33325 5.21072H1.50033C1.50229 4.51164 1.51352 3.93009 1.5776 3.45491C1.65828 2.85667 1.83087 2.35296 2.23215 1.9529C2.63343 1.55285 3.13868 1.38078 3.73875 1.30034C4.31673 1.22287 5.05161 1.22289 5.96334 1.2229ZM2.49992 6.20767H2.66659C2.94273 6.20767 3.16659 5.98449 3.16659 5.70919C3.16659 5.43389 2.94273 5.21072 2.66659 5.21072H2.50044C2.50257 4.51564 2.51345 3.99734 2.56869 3.58775C2.63445 3.10006 2.75475 2.8418 2.93926 2.65786C3.12377 2.47391 3.38281 2.35398 3.872 2.28841C4.13979 2.25251 4.4539 2.23541 4.83325 2.22726V14.5082C4.4539 14.5001 4.13979 14.483 3.872 14.4471C3.38281 14.3815 3.12377 14.2616 2.93926 14.0776C2.75475 13.8936 2.63445 13.6354 2.56869 13.1477C2.51345 12.7381 2.50257 12.2198 2.50044 11.5248H2.66659C2.94273 11.5248 3.16659 11.3016 3.16659 11.0263C3.16659 10.751 2.94273 10.5278 2.66659 10.5278H2.49992V8.86621H2.66659C2.94273 8.86621 3.16659 8.64303 3.16659 8.36773C3.16659 8.09244 2.94273 7.86926 2.66659 7.86926H2.49992V6.20767ZM5.83325 14.5156C5.88781 14.5156 5.94336 14.5156 5.99992 14.5156H9.99992C10.9569 14.5156 11.6243 14.5146 12.1279 14.4471C12.6171 14.3815 12.8761 14.2616 13.0606 14.0776C13.2451 13.8936 13.3654 13.6354 13.4312 13.1477C13.4989 12.6457 13.4999 11.9803 13.4999 11.0263V5.70919C13.4999 4.75516 13.4989 4.08979 13.4312 3.58775C13.3654 3.10006 13.2451 2.8418 13.0606 2.65786C12.8761 2.47391 12.6171 2.35398 12.1279 2.28841C11.6243 2.22091 10.9569 2.21985 9.99992 2.21985H5.99992C5.94336 2.21985 5.88781 2.21986 5.83325 2.21988V14.5156ZM7.16659 4.71224C7.16659 4.43694 7.39045 4.21376 7.66659 4.21376H10.9999C11.2761 4.21376 11.4999 4.43694 11.4999 4.71224C11.4999 4.98754 11.2761 5.21072 10.9999 5.21072H7.66659C7.39045 5.21072 7.16659 4.98754 7.16659 4.71224ZM7.16659 7.03846C7.16659 6.76316 7.39045 6.53999 7.66659 6.53999H10.9999C11.2761 6.53999 11.4999 6.76316 11.4999 7.03846C11.4999 7.31376 11.2761 7.53694 10.9999 7.53694H7.66659C7.39045 7.53694 7.16659 7.31376 7.16659 7.03846Z"
        fill="white" />
</svg>