<svg width="32" height="33" viewBox="0 0 32 33" fill="none" xmlns="http://www.w3.org/2000/svg">
    <path fill-rule="evenodd" clip-rule="evenodd"
        d="M16.0765 2.64999H15.9234C12.8456 2.64998 10.4335 2.64997 8.55157 2.90283C6.62525 3.16165 5.10523 3.70175 3.91215 4.89405C2.71907 6.08636 2.17861 7.6054 1.91963 9.53047C1.6666 11.4112 1.66661 13.8217 1.66663 16.8975V17.0505C1.66661 20.1264 1.6666 22.5368 1.91963 24.4176C2.17861 26.3426 2.71907 27.8617 3.91215 29.054C5.10523 30.2463 6.62525 30.7864 8.55157 31.0453C10.4335 31.298 12.8456 31.298 15.9234 31.298H16.0765C19.1544 31.298 21.5664 31.298 23.4484 31.0453C25.3746 30.7864 26.8948 30.2463 28.0878 29.054C29.2809 27.8617 29.8213 26.3426 30.0804 24.4176C30.3333 22.5368 30.3333 20.1264 30.3333 17.0505V16.8975C30.3333 13.8217 30.3333 11.4112 30.0804 9.53047C29.8213 7.6054 29.2809 6.08636 28.0878 4.89405C26.8948 3.70175 25.3746 3.16165 23.4484 2.90283C21.5664 2.64997 19.1544 2.64998 16.0765 2.64999ZM5.32636 6.30735C6.08589 5.5483 7.11352 5.11273 8.81807 4.8837C10.5514 4.65081 12.829 4.64869 16 4.64869C19.1709 4.64869 21.4485 4.65081 23.1818 4.8837C24.8864 5.11273 25.914 5.5483 26.6736 6.30735C27.4332 7.06639 27.869 8.09335 28.0981 9.79679C28.3312 11.529 28.3333 13.8051 28.3333 16.974C28.3333 20.1429 28.3312 22.419 28.0981 24.1512C27.869 25.8546 27.4332 26.8816 26.6736 27.6407C25.914 28.3998 24.8864 28.8354 23.1818 29.0643C21.4485 29.2972 19.1709 29.2993 16 29.2993C12.829 29.2993 10.5514 29.2972 8.81807 29.0643C7.11352 28.8354 6.08589 28.3998 5.32636 27.6407C4.56681 26.8816 4.13096 25.8546 3.90179 24.1512C3.66875 22.419 3.66663 20.1429 3.66663 16.974C3.66663 13.8051 3.66875 11.529 3.90179 9.79679C4.13096 8.09335 4.56681 7.06639 5.32636 6.30735Z"
        fill="black" />
    <path
        d="M11.3604 15.9758C10.8083 15.976 10.3605 16.4237 10.3604 16.9758C10.3602 17.528 10.8076 17.9754 11.3597 17.9752L15.0726 17.974L15.0714 21.6869C15.0711 22.2389 15.5186 22.6863 16.0707 22.6862C16.6228 22.686 17.0705 22.2383 17.0707 21.6862L17.072 17.9734L20.7847 17.9722C21.3368 17.972 21.7845 17.5242 21.7847 16.9721C21.7849 16.42 21.3375 15.9726 20.7853 15.9727L17.0725 15.974L17.0737 12.2611C17.074 11.7091 16.6265 11.2616 16.0744 11.2618C15.5223 11.262 15.0746 11.7098 15.0744 12.2619L15.0732 15.9746L11.3604 15.9758Z"
        fill="black" />
</svg>