<svg width="17" height="17" viewBox="0 0 17 17" fill="none" xmlns="http://www.w3.org/2000/svg">
    <path fill-rule="evenodd" clip-rule="evenodd"
        d="M6 6.36898C6 4.98916 7.11929 3.87061 8.5 3.87061C9.88073 3.87061 11 4.98916 11 6.36898C11 7.74882 9.88073 8.86736 8.5 8.86736C7.11929 8.86736 6 7.74882 6 6.36898ZM8.5 4.86996C7.6716 4.86996 7 5.54109 7 6.36898C7 7.19684 7.6716 7.86801 8.5 7.86801C9.3284 7.86801 10 7.19684 10 6.36898C10 5.54109 9.3284 4.86996 8.5 4.86996Z"
        fill="white" />
    <path fill-rule="evenodd" clip-rule="evenodd"
        d="M1.33325 8.3677C1.33325 4.41223 4.54188 1.20569 8.49992 1.20569C12.458 1.20569 15.6666 4.41223 15.6666 8.3677C15.6666 12.3232 12.458 15.5297 8.49992 15.5297C4.54188 15.5297 1.33325 12.3232 1.33325 8.3677ZM8.49992 2.20504C5.09416 2.20504 2.33325 4.96416 2.33325 8.3677C2.33325 10.0637 3.01877 11.5996 4.12799 12.7139C4.24825 12.0656 4.48455 11.4543 4.95883 10.9627C5.66827 10.2275 6.80269 9.86672 8.49992 9.86672C10.1971 9.86672 11.3315 10.2275 12.0409 10.9627C12.5153 11.4543 12.7515 12.0656 12.8718 12.7139C13.9811 11.5997 14.6666 10.0637 14.6666 8.3677C14.6666 4.96416 11.9057 2.20504 8.49992 2.20504ZM11.9624 13.468C11.8945 12.6606 11.719 12.0688 11.3211 11.6564C10.8881 11.2077 10.0859 10.8661 8.49992 10.8661C6.91391 10.8661 6.11166 11.2077 5.67868 11.6564C5.28077 12.0688 5.10532 12.6605 5.0374 13.4679C6.02448 14.1385 7.21638 14.5304 8.49992 14.5304C9.78338 14.5304 10.9753 14.1385 11.9624 13.468Z"
        fill="white" />
</svg>