<svg width="120" height="120" viewBox="0 0 120 120" fill="none" xmlns="http://www.w3.org/2000/svg">
<g clip-path="url(#clip0_1_2)">
<rect width="120" height="120" fill="black"/>
<line x1="0.5" y1="-2.18557e-08" x2="0.500005" y2="120" stroke="white" stroke-opacity="0.08"/>
<line x1="12.5" y1="-2.18557e-08" x2="12.5" y2="120" stroke="white" stroke-opacity="0.08"/>
<line x1="24.5" y1="-2.18557e-08" x2="24.5" y2="120" stroke="white" stroke-opacity="0.08"/>
<line x1="36.5" y1="-2.18557e-08" x2="36.5" y2="120" stroke="white" stroke-opacity="0.08"/>
<line x1="48.5" y1="-2.18557e-08" x2="48.5" y2="120" stroke="white" stroke-opacity="0.08"/>
<line x1="60.5" y1="-2.18557e-08" x2="60.5" y2="120" stroke="white" stroke-opacity="0.08"/>
<line x1="72.5" y1="-2.18557e-08" x2="72.5" y2="120" stroke="white" stroke-opacity="0.08"/>
<line x1="84.5" y1="-2.18557e-08" x2="84.5" y2="120" stroke="white" stroke-opacity="0.08"/>
<line x1="96.5" y1="-2.18557e-08" x2="96.5001" y2="120" stroke="white" stroke-opacity="0.08"/>
<line x1="108.5" y1="-2.18557e-08" x2="108.5" y2="120" stroke="white" stroke-opacity="0.08"/>
<line x1="-2.18557e-08" y1="108.5" x2="120" y2="108.5" stroke="white" stroke-opacity="0.08"/>
<line x1="-2.18557e-08" y1="96.5" x2="120" y2="96.5" stroke="white" stroke-opacity="0.08"/>
<line x1="-2.18557e-08" y1="84.5" x2="120" y2="84.5" stroke="white" stroke-opacity="0.08"/>
<line x1="-2.18557e-08" y1="72.5" x2="120" y2="72.5" stroke="white" stroke-opacity="0.08"/>
<line x1="-2.18557e-08" y1="60.5" x2="120" y2="60.5" stroke="white" stroke-opacity="0.08"/>
<line x1="-2.18557e-08" y1="48.5" x2="120" y2="48.5" stroke="white" stroke-opacity="0.08"/>
<line x1="-2.18557e-08" y1="36.5" x2="120" y2="36.5" stroke="white" stroke-opacity="0.08"/>
<line x1="-2.18557e-08" y1="24.5" x2="120" y2="24.5" stroke="white" stroke-opacity="0.08"/>
<line x1="-2.18557e-08" y1="12.5" x2="120" y2="12.5" stroke="white" stroke-opacity="0.08"/>
<line x1="-2.18557e-08" y1="0.5" x2="120" y2="0.499995" stroke="white" stroke-opacity="0.08"/>
</g>
<defs>
<clipPath id="clip0_1_2">
<rect width="120" height="120" fill="white"/>
</clipPath>
</defs>
</svg>
