<svg width="84" height="77" viewBox="0 0 84 77" fill="none" xmlns="http://www.w3.org/2000/svg">
<mask id="path-1-inside-1_2_9" fill="white">
<path d="M41.4025 48.8116C46.324 48.3811 50.9841 46.4087 54.7192 43.1753C58.4544 39.9419 61.0741 35.6125 62.2054 30.8035C63.3366 25.9945 62.9217 20.9512 61.0197 16.3918C59.1176 11.8323 55.8255 7.98927 51.6121 5.40986C47.3987 2.83046 42.4789 1.64623 37.5532 2.02581C32.6276 2.4054 27.9473 4.32946 24.1789 7.52397C20.4104 10.7185 17.746 15.0206 16.565 19.8176C15.384 24.6146 15.7467 29.662 17.6014 34.2408L28.4791 29.8348C27.5517 27.5453 27.3704 25.0217 27.9609 22.6231C28.5514 20.2246 29.8836 18.0736 31.7678 16.4763C33.652 14.8791 35.9922 13.917 38.455 13.7273C40.9178 13.5375 43.3777 14.1296 45.4844 15.4193C47.5911 16.709 49.2372 18.6305 50.1882 20.9102C51.1392 23.1899 51.3467 25.7116 50.7811 28.1161C50.2154 30.5206 48.9056 32.6853 47.038 34.302C45.1704 35.9187 42.8404 36.9049 40.3796 37.1202L41.4025 48.8116Z"/>
</mask>
<path d="M41.4025 48.8116C46.324 48.3811 50.9841 46.4087 54.7192 43.1753C58.4544 39.9419 61.0741 35.6125 62.2054 30.8035C63.3366 25.9945 62.9217 20.9512 61.0197 16.3918C59.1176 11.8323 55.8255 7.98927 51.6121 5.40986C47.3987 2.83046 42.4789 1.64623 37.5532 2.02581C32.6276 2.4054 27.9473 4.32946 24.1789 7.52397C20.4104 10.7185 17.746 15.0206 16.565 19.8176C15.384 24.6146 15.7467 29.662 17.6014 34.2408L28.4791 29.8348C27.5517 27.5453 27.3704 25.0217 27.9609 22.6231C28.5514 20.2246 29.8836 18.0736 31.7678 16.4763C33.652 14.8791 35.9922 13.917 38.455 13.7273C40.9178 13.5375 43.3777 14.1296 45.4844 15.4193C47.5911 16.709 49.2372 18.6305 50.1882 20.9102C51.1392 23.1899 51.3467 25.7116 50.7811 28.1161C50.2154 30.5206 48.9056 32.6853 47.038 34.302C45.1704 35.9187 42.8404 36.9049 40.3796 37.1202L41.4025 48.8116Z" stroke="white" stroke-width="64" mask="url(#path-1-inside-1_2_9)"/>
<mask id="path-2-inside-2_2_9" fill="white">
<path d="M36.2382 53.4897C36.2382 58.4006 37.7785 63.1878 40.6422 67.1772C43.5059 71.1667 47.5488 74.1575 52.2016 75.7285C56.8545 77.2995 61.8828 77.3716 66.5788 75.9346C71.2747 74.4976 75.4017 71.6239 78.3786 67.7182C81.3555 63.8124 83.0323 59.0713 83.1731 54.1625C83.3139 49.2536 81.9114 44.4242 79.1632 40.3543C76.415 36.2844 72.4595 33.1789 67.8536 31.4752C63.2478 29.7715 58.2235 29.5553 53.4883 30.8571L56.2883 41.0418C58.8926 40.3258 61.656 40.4447 64.1892 41.3817C66.7224 42.3188 68.898 44.0268 70.4095 46.2652C71.921 48.5037 72.6923 51.1598 72.6149 53.8597C72.5375 56.5596 71.6152 59.1672 69.9779 61.3153C68.3406 63.4635 66.0708 65.044 63.488 65.8344C60.9053 66.6247 58.1397 66.5851 55.5806 65.721C53.0216 64.857 50.798 63.212 49.2229 61.0178C47.6479 58.8236 46.8007 56.1907 46.8007 53.4897L36.2382 53.4897Z"/>
</mask>
<path d="M36.2382 53.4897C36.2382 58.4006 37.7785 63.1878 40.6422 67.1772C43.5059 71.1667 47.5488 74.1575 52.2016 75.7285C56.8545 77.2995 61.8828 77.3716 66.5788 75.9346C71.2747 74.4976 75.4017 71.6239 78.3786 67.7182C81.3555 63.8124 83.0323 59.0713 83.1731 54.1625C83.3139 49.2536 81.9114 44.4242 79.1632 40.3543C76.415 36.2844 72.4595 33.1789 67.8536 31.4752C63.2478 29.7715 58.2235 29.5553 53.4883 30.8571L56.2883 41.0418C58.8926 40.3258 61.656 40.4447 64.1892 41.3817C66.7224 42.3188 68.898 44.0268 70.4095 46.2652C71.921 48.5037 72.6923 51.1598 72.6149 53.8597C72.5375 56.5596 71.6152 59.1672 69.9779 61.3153C68.3406 63.4635 66.0708 65.044 63.488 65.8344C60.9053 66.6247 58.1397 66.5851 55.5806 65.721C53.0216 64.857 50.798 63.212 49.2229 61.0178C47.6479 58.8236 46.8007 56.1907 46.8007 53.4897L36.2382 53.4897Z" stroke="white" stroke-width="64" mask="url(#path-2-inside-2_2_9)"/>
<mask id="path-3-inside-3_2_9" fill="white">
<path d="M46.9445 52.4897C46.9445 65.4531 36.4357 75.962 23.4723 75.962C10.5089 75.962 0 65.4531 0 52.4897C0 39.5263 10.5089 29.0174 23.4723 29.0174C36.4357 29.0174 46.9445 39.5263 46.9445 52.4897ZM11.7361 52.4897C11.7361 58.9714 16.9906 64.2258 23.4723 64.2258C29.954 64.2258 35.2084 58.9714 35.2084 52.4897C35.2084 46.008 29.954 40.7535 23.4723 40.7535C16.9906 40.7535 11.7361 46.008 11.7361 52.4897Z"/>
</mask>
<path d="M46.9445 52.4897C46.9445 65.4531 36.4357 75.962 23.4723 75.962C10.5089 75.962 0 65.4531 0 52.4897C0 39.5263 10.5089 29.0174 23.4723 29.0174C36.4357 29.0174 46.9445 39.5263 46.9445 52.4897ZM11.7361 52.4897C11.7361 58.9714 16.9906 64.2258 23.4723 64.2258C29.954 64.2258 35.2084 58.9714 35.2084 52.4897C35.2084 46.008 29.954 40.7535 23.4723 40.7535C16.9906 40.7535 11.7361 46.008 11.7361 52.4897Z" stroke="white" stroke-width="64" mask="url(#path-3-inside-3_2_9)"/>
</svg>
