<svg width="21" height="21" viewBox="0 0 21 21" fill="none" xmlns="http://www.w3.org/2000/svg">
<g id="logout-2-svgrepo-com">
<path id="Vector" d="M12.9544 2.0254C11.8148 2.02538 10.8961 2.02537 10.1737 2.12244C9.42363 2.22322 8.79203 2.43882 8.29044 2.9401C7.85299 3.37725 7.63196 3.91447 7.51593 4.54572C7.40319 5.15912 7.38162 5.90979 7.3766 6.81048C7.37468 7.15542 7.65294 7.43661 7.99811 7.43854C8.34329 7.44046 8.62466 7.16237 8.62658 6.81743C8.63166 5.90677 8.65532 5.26129 8.74536 4.7714C8.83212 4.29937 8.97146 4.02615 9.1743 3.8234C9.40496 3.59292 9.7288 3.44264 10.3402 3.36049C10.9697 3.27591 11.804 3.27459 13.0001 3.27459H13.8335C15.0296 3.27459 15.8639 3.27591 16.4934 3.36049C17.1049 3.44264 17.4286 3.59292 17.6593 3.8234C17.89 4.05389 18.0403 4.37749 18.1225 4.98857C18.2071 5.61762 18.2085 6.45134 18.2085 7.64674V14.3091C18.2085 15.5045 18.2071 16.3382 18.1225 16.9673C18.0403 17.5784 17.89 17.9019 17.6593 18.1324C17.4286 18.3629 17.1049 18.5132 16.4934 18.5954C15.8639 18.6799 15.0296 18.6812 13.8335 18.6812H13.0001C11.804 18.6812 10.9697 18.6799 10.3402 18.5954C9.7288 18.5132 9.40496 18.3629 9.1743 18.1324C8.97146 17.9296 8.83212 17.6565 8.74536 17.1845C8.65532 16.6945 8.63166 16.049 8.62658 15.1384C8.62466 14.7934 8.34329 14.5154 7.99811 14.5173C7.65294 14.5192 7.37468 14.8004 7.3766 15.1454C7.38162 16.046 7.40319 16.7967 7.51593 17.4101C7.63196 18.0413 7.85299 18.5785 8.29044 19.0158C8.79203 19.517 9.42363 19.7326 10.1737 19.8334C10.8961 19.9304 11.8148 19.9304 12.9544 19.9304H13.8792C15.0189 19.9304 15.9375 19.9304 16.66 19.8334C17.41 19.7326 18.0415 19.517 18.5432 19.0158C19.0448 18.5144 19.2605 17.8833 19.3614 17.1337C19.4585 16.4117 19.4585 15.4937 19.4585 14.3548V7.60105C19.4585 6.46213 19.4585 5.54413 19.3614 4.82212C19.2605 4.07252 19.0448 3.44137 18.5432 2.9401C18.0415 2.43882 17.41 2.22322 16.66 2.12244C15.9375 2.02537 15.0189 2.02538 13.8792 2.0254H12.9544Z" fill="white"/>
<path id="Vector_2" d="M13 10.3533C13.3451 10.3533 13.625 10.633 13.625 10.9779C13.625 11.3228 13.3451 11.6025 13 11.6025H3.85616L5.49003 13.0021C5.75212 13.2265 5.78247 13.6209 5.55783 13.8828C5.33319 14.1447 4.93863 14.175 4.67655 13.9505L1.75988 11.4521C1.62135 11.3335 1.54163 11.1602 1.54163 10.9779C1.54163 10.7956 1.62135 10.6223 1.75988 10.5037L4.67655 8.00531C4.93863 7.78081 5.33319 7.81114 5.55783 8.07306C5.78247 8.33496 5.75212 8.72927 5.49003 8.95376L3.85616 10.3533H13Z" fill="white"/>
</g>
</svg>
