<?xml version="1.0" encoding="utf-8"?>
<!-- Generator: Adobe Illustrator 24.2.3, SVG Export Plug-In . SVG Version: 6.00 Build 0)  -->
<svg version="1.1" id="Слой_2" xmlns="http://www.w3.org/2000/svg" xmlns:xlink="http://www.w3.org/1999/xlink" x="0px" y="0px"
	 viewBox="0 0 640 640" style="enable-background:new 0 0 640 640;" xml:space="preserve">
<g>
	<path d="M365.58,79.33c0.24,0.38-0.09,74.45,0.06,74.72c0,1.01,0.57,1.95,1.47,2.41c0,0,253.97,131.69,253.97,131.69
		c6.38,15.78-33.97,49.51-47.54,49.63c-8.6,3.36-70.56-35.21-206.57-25.83c0.59,1.96-2.52,189.43-0.69,191.02
		c-3.75-0.74,94.24,103.58,75.89,98.15c0,0-98.84-21-98.84-21c-1.26-0.27-2.53,0.38-3.05,1.55l-18.35,41.3
		c-0.96,2.16-4.02,2.15-4.97-0.01c0,0-17.01-38.55-17.01-38.55c-0.52-1.18-1.8-1.83-3.07-1.56c0,0-95.94,20.91-95.94,20.91
		c-18.56,5.35,83.31-101.47,78.4-99.39c1.96-1.92-6.57-188.85-6.02-191.13c-131.54-9.33-189.55,37.19-206.64,32.7
		c-14.61,1.41-53.97-40.29-47.8-46.28c0,0,246.2-143.17,246.2-143.17c0.84-0.49,1.35-1.38,1.35-2.35c0,0,0-67.5,0-67.5
		C279.47-0.64,344.78-13.05,365.58,79.33z M260.87,175.89l-106.1,73.92c-2.81,1.96-1.4,6.36,2.03,6.32l104.91-1.19
		c7.29,3.66,2.93-74.62,4.63-76.14C266.38,175.97,263.2,174.27,260.87,175.89z M365.64,178.47c1.76,2.08-4.12,78.21,3.48,75.07
		c0,0,108.58,0,108.58,0c3.45,0,4.8-4.48,1.91-6.38l-108.58-71.59C368.72,174.04,365.64,175.7,365.64,178.47z M279.99,526.21
		c-33.22,45.26-55.41,43.16,14.24,43.82c2.37,0.06,4.11-2.22,3.41-4.49L286,527.41C285.19,524.76,281.76,524.07,279.99,526.21z
		 M359.83,528.17c-11.79,52.5-21.19,40.75,32.67,41.99c2.89,0,4.52-3.33,2.75-5.61l-29.29-37.66
		C364.17,524.59,360.53,525.35,359.83,528.17z M296.27,63.3h39.55c2.64,0,4.5-2.58,3.67-5.09l-5.58-16.73
		c-0.53-1.58-2-2.64-3.67-2.64c0,0-28.4,0-28.4,0c-4.9-0.8-7.5,16.67-9.24,19.37C291.77,60.72,293.63,63.3,296.27,63.3z"/>
	<path d="M428.15,288.87c0,0-12.23,6.79-12.23,20.38c0,13.59,6.79,28.54,12.23,28.54C443.91,333.22,444.73,294.71,428.15,288.87z"/>
	<path d="M162.84,291.92c-18.29,7.4-13.53,42.53,0,48.92C178.01,336.02,179.71,297.4,162.84,291.92z"/>
	<path d="M472.66,293.28c0,0-12.23,8.48-12.23,20.38c0,11.9,6.46,28.54,12.23,28.54s12.23-14.62,12.23-27.18
		S472.66,293.28,472.66,293.28z"/>
	<path d="M209.04,287.84c0,0-12.23,8.48-12.23,20.38c0,11.9,6.46,28.54,12.23,28.54s12.23-13.26,12.23-27.18
		C221.27,295.67,209.04,287.84,209.04,287.84z"/>
</g>
</svg>
