<svg width="87" height="61" viewBox="0 0 87 61" fill="none" xmlns="http://www.w3.org/2000/svg">
    <path
        fill="#BC9060" d="M18.2958 40.5948C17.8698 41.213 18.0255 42.0595 18.6436 42.4855C19.2618 42.9115 20.1084 42.7559 20.5344 42.1377C20.5434 42.1248 20.552 42.1115 20.5605 42.0983C25.2857 34.9462 33.2858 30.6441 41.8578 30.6455C42.6086 30.6455 43.2172 30.0369 43.2172 29.2861C43.2172 28.5354 42.6086 27.9268 41.8578 27.9268C32.3747 27.9244 23.5238 32.683 18.2958 40.5948Z"/>
    <path
        fill="#BC9060" d="M85.6406 57.833H77.4844V56.1909C77.516 47.384 73.9245 38.9518 67.5528 32.8722C67.0248 32.3383 66.1642 32.3335 65.6303 32.8613C65.0964 33.3892 65.0916 34.2499 65.6194 34.7838C65.6354 34.7999 65.6517 34.8157 65.6685 34.831C71.5045 40.4002 74.794 48.124 74.7655 56.1909V57.833H12.2344V56.1909C12.2524 39.8378 25.5048 26.5854 41.8579 26.5674H45.1421C47.6673 26.5657 50.1824 26.8855 52.6268 27.5189C53.3461 27.7342 54.1036 27.3257 54.3189 26.6065C54.5342 25.8872 54.1257 25.1297 53.4064 24.9144C53.3735 24.9045 53.34 24.8959 53.3064 24.8886C51.4289 24.4043 49.5117 24.0899 47.578 23.9492V19.7705C47.578 19.0198 46.9693 18.4111 46.2186 18.4111H40.7811C40.0304 18.4111 39.4217 19.0198 39.4217 19.7705V23.9492C22.5643 25.2403 9.53771 39.284 9.51546 56.1909V57.833H1.35938C0.60866 57.833 0 58.4417 0 59.1924C0 59.9431 0.60866 60.5518 1.35938 60.5518H85.6406C86.3913 60.5518 87 59.9431 87 59.1924C87 58.4417 86.3913 57.833 85.6406 57.833ZM42.1406 21.1299H44.8594V23.8486H42.1406V21.1299Z"/>
    <path
        fill="#BC9060" d="M57.5478 17.382C58.8134 18.5116 59.8125 19.4034 59.8125 21.2236C59.8125 23.0438 58.8134 23.9355 57.5478 25.072C55.6239 26.4164 54.4477 28.5904 54.375 30.9363C54.375 31.687 54.9837 32.2957 55.7344 32.2957C56.4851 32.2957 57.0938 31.687 57.0938 30.9363C57.0938 29.1161 58.0929 28.2244 59.3585 27.0947C61.2835 25.7483 62.4597 23.5717 62.5312 21.2236C62.4597 18.8758 61.2835 16.6997 59.3585 15.3538C58.0929 14.2241 57.0938 13.3324 57.0938 11.5136C57.0938 9.69471 58.0929 8.80432 59.3585 7.67468C61.2835 6.33009 62.4599 4.15475 62.5312 1.80762C62.5312 1.0569 61.9226 0.448242 61.1719 0.448242C60.4212 0.448242 59.8125 1.0569 59.8125 1.80762C59.8125 3.6251 58.8134 4.51549 57.5478 5.64513C55.6224 6.99023 54.446 9.16609 54.375 11.5136C54.4467 13.8609 55.6229 16.0365 57.5478 17.382Z"/>
    <path
        fill="#BC9060" d="M65.704 17.382C66.9696 18.5116 67.9688 19.4034 67.9688 21.2236C67.9688 23.0438 66.9696 23.9423 65.704 25.0665C63.7786 26.4121 62.6023 28.5883 62.5312 30.9363C62.5312 31.687 63.1399 32.2957 63.8906 32.2957C64.6413 32.2957 65.25 31.687 65.25 30.9363C65.25 29.1161 66.2491 28.2244 67.5147 27.0947C69.4398 25.7483 70.616 23.5717 70.6875 21.2236C70.616 18.8758 69.4398 16.6997 67.5147 15.3538C66.2491 14.2241 65.25 13.3324 65.25 11.5136C65.25 9.69471 66.2491 8.80432 67.5147 7.67468C69.4398 6.33009 70.6161 4.15475 70.6875 1.80762C70.6875 1.0569 70.0788 0.448242 69.3281 0.448242C68.5774 0.448242 67.9688 1.0569 67.9688 1.80762C67.9688 3.6251 66.9696 4.51549 65.704 5.64513C63.7786 6.99023 62.6023 9.16609 62.5312 11.5136C62.603 13.8609 63.7792 16.0365 65.704 17.382Z"/>
    <path
        fill="#BC9060" d="M73.8603 17.382C75.1259 18.5116 76.125 19.4034 76.125 21.2236C76.125 23.0438 75.1259 23.9423 73.8603 25.0665C71.9349 26.4121 70.7585 28.5883 70.6875 30.9363C70.6875 31.687 71.2962 32.2957 72.0469 32.2957C72.7976 32.2957 73.4062 31.687 73.4062 30.9363C73.4062 29.1161 74.4054 28.2244 75.671 27.0947C77.596 25.7483 78.7722 23.5717 78.8438 21.2236C78.7722 18.8758 77.596 16.6997 75.671 15.3538C74.4054 14.2241 73.4062 13.3324 73.4062 11.5136C73.4062 9.69471 74.4054 8.80432 75.671 7.67468C77.596 6.33009 78.7724 4.15475 78.8438 1.80762C78.8438 1.0569 78.2351 0.448242 77.4844 0.448242C76.7337 0.448242 76.125 1.0569 76.125 1.80762C76.125 3.6251 75.1259 4.51549 73.8603 5.64513C71.9349 6.99023 70.7585 9.16609 70.6875 11.5136C70.7592 13.8609 71.9354 16.0365 73.8603 17.382Z"/>
</svg>