<svg width="33" height="33" viewBox="0 0 33 33" fill="none" xmlns="http://www.w3.org/2000/svg">
<path d="M19.1666 26.0374H13.8333C11.0043 26.0374 8.2912 24.9136 6.29082 22.9132C4.29044 20.9129 3.16663 18.1997 3.16663 15.3708V8.7041H8.49996V15.3708C8.49996 16.7852 9.06186 18.1418 10.0621 19.142C11.0622 20.1422 12.4188 20.7041 13.8333 20.7041V8.7041H19.1666V14.7041L19.2066 14.6988C20.668 14.5164 22.0124 13.8066 22.9872 12.7027C23.962 11.5987 24.4999 10.1768 24.5 8.7041H29.8333L29.3773 10.9854C29.1041 12.3509 28.5228 13.6359 27.6776 14.7425C26.8323 15.8491 25.7454 16.7481 24.5 17.3708C25.7111 17.7743 26.7915 18.4959 27.628 19.4603C28.4645 20.4246 29.0263 21.5961 29.2546 22.8521L29.8333 26.0374H24.5C24.4999 24.5647 23.962 23.1428 22.9872 22.0389C22.0124 20.935 20.668 20.2251 19.2066 20.0428V26.0428L19.1666 26.0374Z" stroke="#F0E3CA" stroke-width="3" stroke-linecap="round" stroke-linejoin="round"/>
</svg>
