<svg width="33" height="33" viewBox="0 0 33 33" fill="none" xmlns="http://www.w3.org/2000/svg">
<path d="M27.1666 30.0374H5.83329C5.12605 30.0374 4.44777 29.7564 3.94768 29.2564C3.44758 28.7563 3.16663 28.0779 3.16663 27.3708V12.7694C3.18879 12.3287 3.31833 11.9 3.54397 11.5208C3.76962 11.1415 4.08452 10.8232 4.46129 10.5934L15.1279 4.19341C15.5422 3.945 16.0162 3.81378 16.4993 3.81378C16.9823 3.81378 17.4563 3.945 17.8706 4.19341L28.5373 10.5934C29.3386 11.0774 29.8306 11.9441 29.8333 12.8801V27.3708C29.8333 28.0779 29.5524 28.7563 29.0523 29.2564C28.5521 29.7564 27.8739 30.0374 27.1666 30.0374ZM5.83329 13.8614V27.3708H27.1666V13.8614L16.5 20.972L5.83329 13.8614ZM16.5 6.48007L7.58796 11.8267L16.5 17.7681L25.4107 11.8267L16.5 6.48007Z" fill="#F0E3CA"/>
</svg>
