<svg width="33" height="33" viewBox="0 0 33 33" fill="none" xmlns="http://www.w3.org/2000/svg">
<g clip-path="url(#clip0_48_19)">
<path d="M16.5 1.10012C7.661 1.10012 0.5 8.26712 0.5 17.1001C0.5 24.1732 5.084 30.1681 11.437 32.2831C12.24 32.4341 12.53 31.9391 12.53 31.5111C12.53 31.1311 12.521 30.1261 12.515 28.7921C8.062 29.7561 7.124 26.6411 7.124 26.6411C6.395 24.7972 5.343 24.3021 5.343 24.3021C3.895 23.3131 5.458 23.3341 5.458 23.3341C7.062 23.4431 7.906 24.9791 7.906 24.9791C9.33299 27.4271 11.65 26.7191 12.567 26.3071C12.707 25.2761 13.124 24.5671 13.578 24.1721C10.026 23.7711 6.291 22.3961 6.291 16.2651C6.291 14.5141 6.911 13.0881 7.936 11.9681C7.759 11.5671 7.217 9.93712 8.077 7.73312C8.077 7.73312 9.41604 7.30612 12.477 9.37414C13.7809 9.01948 15.1258 8.83761 16.477 8.83312C17.837 8.84211 19.196 9.02009 20.477 9.37414C23.52 7.30612 24.858 7.73312 24.858 7.73312C25.717 9.93712 25.175 11.5661 25.019 11.9681C26.034 13.0881 26.654 14.5151 26.654 16.2651C26.654 22.4101 22.914 23.7652 19.358 24.1561C19.914 24.6351 20.435 25.6201 20.435 27.1151C20.435 29.2551 20.415 30.9791 20.415 31.5001C20.415 31.9161 20.695 32.4161 21.519 32.2551C27.919 30.1621 32.498 24.1621 32.498 17.0991C32.498 8.26612 25.337 1.09912 16.498 1.09912L16.5 1.10012Z" fill="#F0E3CA"/>
</g>
<defs>
<clipPath id="clip0_48_19">
<rect width="32" height="32" fill="white" transform="translate(0.5 0.704102)"/>
</clipPath>
</defs>
</svg>
