<svg width="128" height="129" viewBox="0 0 128 129" fill="#FFDF00" xmlns="http://www.w3.org/2000/svg">
<path fill-rule="evenodd" clip-rule="evenodd" d="M0 0.271393H128V128.271H0V0.271393ZM69.4589 58.938H57.851V101.479C57.851 102.734 56.7843 107.879 51.3883 107.628C45.9922 107.377 43.5451 101.354 43.5451 101.354L33.9451 107.252C33.9451 107.252 39.2785 118.169 50.0079 118.169C60.7373 118.169 69.4589 114.154 69.4589 101.479V58.938ZM114.384 67.8479C110.35 60.8316 103.782 57.918 96.9412 58.3106C90.1007 58.7032 80.1254 61.2691 79.8745 74.8126C79.6237 88.356 96.1255 93.0714 96.1255 93.0714C103.004 95.9647 106.238 97.6778 106.039 101.605C105.295 106.428 102.086 107.691 97.9451 107.691C93.8039 107.691 89.69 105.832 85.8981 100.413L76.3608 105.934C81.4623 114.005 87.4667 118.295 97.9451 118.232C108.424 118.169 118.4 112.773 118.086 101.605C117.773 90.4361 112.376 87.4939 101.459 82.4047C94.2631 79.5817 92.1098 78.3263 91.7334 74.8126C91.3569 71.2988 93.8039 68.6635 97.3177 68.6635C100.831 68.6635 103.372 70.5469 105.161 73.8714L114.384 67.8479Z" fill="#FFDF00"/>
</svg>
