<svg width="129" height="128" viewBox="0 0 129 128" fill="none" xmlns="http://www.w3.org/2000/svg">
<path fill-rule="evenodd" clip-rule="evenodd" d="M128.241 64C128.241 99.3462 99.5874 128 64.2412 128C28.895 128 0.241211 99.3462 0.241211 64C0.241211 28.6538 28.895 0 64.2412 0C99.5874 0 128.241 28.6538 128.241 64ZM54.6125 51.548C54.6125 51.548 54.2803 51.0504 53.9481 51.0504C53.6158 51.0504 53.3713 51.1583 53.2865 51.548C53.2822 52.2082 53.426 52.8726 53.7841 53.54C54.6758 55.2169 56.1054 56.5731 57.9347 57.6906C60.7565 59.497 64.3837 60.0521 68.3934 60.0147C71.2539 59.9975 74.5374 59.5991 78.0221 59.0181C82.7365 57.9063 86.9821 56.018 90.9717 53.7054C95.3151 50.9037 98.958 47.1457 101.763 42.2501C101.937 41.9101 102.113 41.597 102.288 41.2839C103.239 39.5903 104.189 37.8972 104.917 31.9569C104.917 29.847 104.535 27.6854 103.589 25.4821C102.604 22.6416 100.206 20.5562 97.1143 18.8419C97.1143 18.8419 90.9717 15.5211 82.6704 15.5211C74.3691 15.5211 67.8943 17.6798 67.8943 17.6798C62.4421 19.2316 56.7712 21.6636 50.9609 24.6522C47.0289 26.6024 43.2306 29.0589 39.5056 31.7915C33.4278 35.9766 29.0873 41.3972 25.5608 47.3974C24.357 49.8438 23.648 52.3808 23.5689 55.0343C23.8321 58.7204 25.3767 62.1519 28.2172 65.3275C31.3438 68.9431 34.8933 72.0338 38.8426 74.624L46.1472 79.7699C47.0501 80.3864 47.9194 81.031 48.7026 81.7475C47.609 82.3084 46.3912 82.9693 44.9837 83.7551C40.1744 85.9944 35.6886 89.5885 31.3697 93.883C30.048 95.547 28.9952 97.3591 28.3811 99.5279C26.9573 104.557 27.9209 108.456 31.3697 111.149C32.5606 111.773 34.4288 112.145 36.8478 112.311C43.4449 112.276 48.3117 109.61 52.1215 105.338C55.3546 101.845 57.4069 97.198 57.7665 90.8944C57.9121 88.2606 57.3935 85.7504 56.2244 83.3616C58.1652 82.7621 60.2109 82.4078 62.4162 82.4263C70.3694 83.1209 77.7359 84.5232 79.0174 93.2171C78.8131 95.4161 77.7604 97.3864 75.6965 98.862C75.6965 98.862 74.0369 99.6919 74.5345 100.189C75.0321 100.687 76.0288 100.189 76.0288 100.189C79.0246 99.0547 80.9632 96.8974 81.6737 93.5493C82.3022 89.9452 80.6871 86.4762 77.6899 83.0907C75.2967 80.7177 72.3053 78.5417 64.9072 78.1102C62.5413 78.1217 60.3682 78.2051 58.5978 78.4424C56.7568 78.7334 55.2572 79.0607 53.7348 79.5627C52.4101 77.9675 50.7643 76.4323 48.8022 74.9562L41.3307 69.1459C36.0151 64.9305 33.1099 60.4735 33.3616 55.6987C33.4019 48.4746 38.9289 40.4725 57.4343 30.6294C65.9959 25.9711 74.6294 23.5606 83.3334 23.3248C90.9573 23.5606 97.1747 25.1714 97.9427 32.1237C97.655 37.9944 94.1832 42.8153 88.9783 47.0652C82.2548 52.2571 74.5187 55.3823 65.4033 55.6987C60.6932 55.5836 56.951 54.3655 54.6125 51.548ZM51.3812 85.388C49.4886 86.3637 47.6595 87.488 45.8305 88.6123C45.4932 88.8196 45.156 89.0269 44.8183 89.2333C40.9899 91.9083 38.2616 94.9645 36.517 98.3644C35.8382 99.6387 35.4945 101.039 35.355 102.515C35.3463 105.041 36.5415 105.8 38.3436 105.669C41.8902 105.886 45.2426 103.719 48.4714 100.024C50.5999 97.1894 52.0194 94.021 52.1244 90.2285C52.2413 88.3098 51.9528 86.7304 51.3812 85.388Z" fill="#CA669B"/>
</svg>
