<svg width="129" height="128" viewBox="0 0 129 128" fill="none" xmlns="http://www.w3.org/2000/svg">
<path fill-rule="evenodd" clip-rule="evenodd" d="M0.45874 0H128.459V128H0.45874V0ZM69.9176 58.6666H58.3097V101.208C58.3097 102.463 57.2431 107.608 51.847 107.357C46.4509 107.106 44.0039 101.082 44.0039 101.082L34.4039 106.98C34.4039 106.98 39.7372 117.898 50.4666 117.898C61.196 117.898 69.9176 113.882 69.9176 101.208V58.6666ZM114.843 67.5765C110.809 60.5602 104.24 57.6466 97.3999 58.0392C90.5594 58.4318 80.5841 60.9977 80.3333 74.5412C80.0824 88.0846 96.5843 92.8 96.5843 92.8C103.463 95.6933 106.697 97.4064 106.498 101.333C105.754 106.157 102.545 107.42 98.4039 107.42C94.2627 107.42 90.1487 105.561 86.3568 100.141L76.8195 105.663C81.9211 113.734 87.9254 118.023 98.4039 117.961C108.882 117.898 118.859 112.502 118.545 101.333C118.231 90.1647 112.835 87.2225 101.918 82.1333C94.7218 79.3103 92.5686 78.0549 92.1921 74.5412C91.8156 71.0275 94.2627 68.3922 97.7764 68.3922C101.29 68.3922 103.831 70.2755 105.62 73.6L114.843 67.5765Z" fill="#FFDF00"/>
</svg>
