<svg width="128" height="129" viewBox="0 0 128 129" fill="none" xmlns="http://www.w3.org/2000/svg">
<path fill-rule="evenodd" clip-rule="evenodd" d="M64.0011 32.2714C49.5406 32.2714 40.5051 39.3829 36.8884 53.6061C42.3114 46.4945 48.6375 43.8282 55.8667 45.605C59.9913 46.6186 62.9407 49.5625 66.2026 52.8218C71.5193 58.1292 77.6733 64.2714 91.1117 64.2714C105.57 64.2714 114.608 57.1598 118.222 42.9387C112.801 50.0503 106.475 52.7166 99.2461 50.9377C95.1194 49.9241 92.1699 46.9803 88.9081 43.7231C83.5914 38.4115 77.4395 32.2714 64.0011 32.2714ZM36.8884 64.2714C22.43 64.2714 13.3924 71.3829 9.77783 85.6061C15.2008 78.4945 21.5269 75.8282 28.754 77.605C32.8807 78.6186 35.8302 81.5625 39.092 84.8218C44.4087 90.1292 50.5606 96.2714 64.0011 96.2714C78.4595 96.2714 87.4971 89.1619 91.1117 74.9387C85.6887 82.0503 79.3626 84.7166 72.1334 82.9398C68.0088 81.9241 65.0594 78.9803 61.7975 75.7231C56.4808 70.4157 50.3268 64.2714 36.8884 64.2714Z" fill="#38BDF8"/>
</svg>
