<svg width="130" height="128" viewBox="0 0 130 128" fill="none" xmlns="http://www.w3.org/2000/svg">
<path fill-rule="evenodd" clip-rule="evenodd" d="M17.7417 0C8.3529 0 0.741736 7.61116 0.741736 17V33.1551H0.741699V44.0195H0.741736V64V111C0.741736 120.389 8.3529 128 17.7417 128H64.9915H112.241C121.63 128 129.241 120.389 129.241 111V64V17C129.241 7.61116 121.63 0 112.241 0H64.9915H17.7417ZM0.741736 44.0195H28.2945C30.2672 48.8193 34.9888 52.199 40.4997 52.199C42.2936 52.199 44.0039 51.8409 45.5629 51.1923L79.07 84.6994C78.4272 86.2525 78.0724 87.9551 78.0724 89.7405C78.0724 97.0253 83.9779 102.931 91.2627 102.931C98.5475 102.931 104.453 97.0253 104.453 89.7405C104.453 82.4557 98.5475 76.5502 91.2627 76.5502C89.7681 76.5502 88.3315 76.7988 86.9921 77.2569L53.7547 44.0195H79.1199C81.0926 48.8193 85.8142 52.199 91.3251 52.199C98.6099 52.199 104.515 46.2936 104.515 39.0088C104.515 31.724 98.6099 25.8185 91.3251 25.8185C86.1427 25.8185 81.6584 28.8073 79.5017 33.1551H52.3232C50.1665 28.8073 45.6821 25.8185 40.4997 25.8185C35.3173 25.8185 30.833 28.8073 28.6763 33.1551H0.741736V44.0195Z" fill="#F25234"/>
</svg>
