<svg width="18" height="18" viewBox="0 0 18 18" fill="none" xmlns="http://www.w3.org/2000/svg">
    <path
        d="M17.25 15.4167L12.5255 10.6922C13.3989 9.36482 13.7488 7.76053 13.5073 6.18999C13.2658 4.61945 12.4501 3.19437 11.2182 2.19068C9.98637 1.18698 8.4259 0.67606 6.83895 0.756838C5.252 0.837616 3.75147 1.50434 2.62788 2.62794C1.50428 3.75153 0.837555 5.25206 0.756777 6.83901C0.675999 8.42596 1.18692 9.98643 2.19061 11.2183C3.19431 12.4502 4.61939 13.2658 6.18993 13.5073C7.76047 13.7488 9.36476 13.399 10.6922 12.5256L15.4167 17.2501L17.25 15.4167ZM2.58335 7.16675C2.58335 4.6395 4.63944 2.58341 7.16669 2.58341C9.69394 2.58341 11.75 4.6395 11.75 7.16675C11.75 9.694 9.69394 11.7501 7.16669 11.7501C4.63944 11.7501 2.58335 9.694 2.58335 7.16675Z"
        fill="white" />
</svg>