<?xml version="1.0" ?><!DOCTYPE svg  PUBLIC '-//W3C//DTD SVG 1.1//EN'  'http://www.w3.org/Graphics/SVG/1.1/DTD/svg11.dtd'><svg enable-background="new 0 0 100 100" height="100px" version="1.1" viewBox="0 0 100 100" width="100px" xml:space="preserve" xmlns="http://www.w3.org/2000/svg" xmlns:xlink="http://www.w3.org/1999/xlink"><g id="color_x5F_fill"><path d="M84.418,69.921c-2.527,1.583-12.807,2.054-15.295,0.246c-1.365-0.991-2.613-2.232-3.799-3.412   c-0.828-0.826-1.77-1.227-2.482-2.123c-0.58-0.734-0.979-1.599-1.592-2.321c-1.033-1.215-2.625-2.248-3.885-0.764   c-1.895,2.231,0.299,6.617-2.229,8.285c-0.848,0.56-1.703,0.722-2.762,0.642l-2.346,0.107c-1.379,0.027-3.562,0.039-5.129-0.244   c-1.75-0.315-3.193-1.271-4.773-1.973c-3.002-1.331-5.863-3.145-8.039-5.658c-5.922-6.843-13.877-16.255-16.967-24.859   c-0.637-1.768-2.314-5.267-0.723-6.784c2.164-1.572,12.789-2.017,14.445,0.416c0.674,0.987,1.098,2.436,1.574,3.555   c0.592,1.396,0.914,2.713,1.84,3.949c0.82,1.097,1.426,2.199,2.061,3.402c0.713,1.349,1.385,2.643,2.252,3.886   c0.588,0.845,2.143,2.524,3.125,2.65c2.398,0.307,2.248-5.521,2.07-6.945c-0.17-1.371-0.215-2.825-0.17-4.216   c0.039-1.186,0.146-2.857-0.557-3.826c-1.145-1.58-3.695-0.397-3.895-2.52c0.422-0.603,0.332-1.138,3.146-2.064   c2.215-0.729,3.646-0.706,5.107-0.589c2.98,0.239,6.139-0.568,9.014,0.398c2.746,0.925,2.322,4.828,2.23,7.168   c-0.123,3.195,0.008,6.312,0,9.553c-0.004,1.477-0.062,2.912,1.736,2.793c1.688-0.113,1.859-1.532,2.664-2.704   c1.121-1.633,2.148-3.288,3.289-4.916c1.537-2.199,2-4.67,3.447-6.923c0.518-0.807,0.963-2.568,1.76-3.205   c0.604-0.481,1.75-0.275,2.48-0.275h1.736c1.33,0.016,2.686,0.035,4.051,0.083c1.967,0.068,4.17-0.359,6.121-0.084   c8.416,1.188-10.578,19.191-9.59,22.403c0.684,2.218,5.016,4.703,6.58,6.521C82.998,61.991,89.389,66.81,84.418,69.921z" fill="#4C75A3"/></g><g id="offset_x5F_print_x5F_outline"/></svg>