<svg width="248" height="361" viewBox="0 0 248 361" fill="none" xmlns="http://www.w3.org/2000/svg">
<path d="M78.6094 296.547V307.516H42.9844V296.547H78.6094ZM47.1562 268.75V337H33.0938V268.75H47.1562ZM88.6406 268.75V337H74.625V268.75H88.6406ZM129.469 280.422L110.906 337H95.9531L121.312 268.75H130.828L129.469 280.422ZM144.891 337L126.281 280.422L124.781 268.75H134.391L159.891 337H144.891ZM144.047 311.594V322.609H108V311.594H144.047ZM201.75 319.141C201.75 317.922 201.562 316.828 201.188 315.859C200.844 314.859 200.188 313.953 199.219 313.141C198.25 312.297 196.891 311.469 195.141 310.656C193.391 309.844 191.125 309 188.344 308.125C185.25 307.125 182.312 306 179.531 304.75C176.781 303.5 174.344 302.047 172.219 300.391C170.125 298.703 168.469 296.75 167.25 294.531C166.062 292.312 165.469 289.734 165.469 286.797C165.469 283.953 166.094 281.375 167.344 279.062C168.594 276.719 170.344 274.719 172.594 273.062C174.844 271.375 177.5 270.078 180.562 269.172C183.656 268.266 187.047 267.812 190.734 267.812C195.766 267.812 200.156 268.719 203.906 270.531C207.656 272.344 210.562 274.828 212.625 277.984C214.719 281.141 215.766 284.75 215.766 288.812H201.797C201.797 286.812 201.375 285.062 200.531 283.562C199.719 282.031 198.469 280.828 196.781 279.953C195.125 279.078 193.031 278.641 190.5 278.641C188.062 278.641 186.031 279.016 184.406 279.766C182.781 280.484 181.562 281.469 180.75 282.719C179.938 283.938 179.531 285.312 179.531 286.844C179.531 288 179.812 289.047 180.375 289.984C180.969 290.922 181.844 291.797 183 292.609C184.156 293.422 185.578 294.188 187.266 294.906C188.953 295.625 190.906 296.328 193.125 297.016C196.844 298.141 200.109 299.406 202.922 300.812C205.766 302.219 208.141 303.797 210.047 305.547C211.953 307.297 213.391 309.281 214.359 311.5C215.328 313.719 215.812 316.234 215.812 319.047C215.812 322.016 215.234 324.672 214.078 327.016C212.922 329.359 211.25 331.344 209.062 332.969C206.875 334.594 204.266 335.828 201.234 336.672C198.203 337.516 194.812 337.938 191.062 337.938C187.688 337.938 184.359 337.5 181.078 336.625C177.797 335.719 174.812 334.359 172.125 332.547C169.469 330.734 167.344 328.422 165.75 325.609C164.156 322.797 163.359 319.469 163.359 315.625H177.469C177.469 317.75 177.797 319.547 178.453 321.016C179.109 322.484 180.031 323.672 181.219 324.578C182.438 325.484 183.875 326.141 185.531 326.547C187.219 326.953 189.062 327.156 191.062 327.156C193.5 327.156 195.5 326.812 197.062 326.125C198.656 325.438 199.828 324.484 200.578 323.266C201.359 322.047 201.75 320.672 201.75 319.141Z" fill="white"/>
<path d="M4 191.519L109.707 90.7581L127.247 111.095L47.3906 175.341L200.641 171.182L4 191.519Z" fill="#2A5FE6"/>
<path d="M230.184 45L123.093 84.7495L213.567 70.8834L217.721 149.92L244.032 147.609L230.184 45Z" fill="#2A5FE6"/>
<path d="M120.323 136.979L180.793 88.9094L195.564 111.095L150.327 134.667L184.486 155.005L120.323 136.979Z" fill="#2A5FE6"/>
<path d="M223.722 203.536H20.6177L220.491 178.115L223.722 203.536Z" fill="#2A5FE6"/>
</svg>
