<svg width="160" height="193" viewBox="0 0 160 193" fill="none" xmlns="http://www.w3.org/2000/svg">
<path d="M0 115.883L70.4616 36.1903L82.1539 52.2752L28.9232 103.088L131.077 99.7978L0 115.883Z" fill="white"/>
<path d="M150.769 0L79.3843 31.4382L139.692 20.4714L142.461 82.9821L160 81.1545L150.769 0Z" fill="white"/>
<path d="M77.5386 72.7465L117.846 34.7283L127.692 52.2753L97.5386 70.9186L120.308 87.0035L77.5386 72.7465Z" fill="white"/>
<path d="M146.461 125.387H11.0769L144.308 105.281L146.461 125.387Z" fill="white"/>
<path d="M56.8047 171.773V177.258H38.9922V171.773H56.8047ZM41.0781 157.875V192H34.0469V157.875H41.0781ZM61.8203 157.875V192H54.8125V157.875H61.8203ZM82.2344 163.711L72.9531 192H65.4766L78.1562 157.875H82.9141L82.2344 163.711ZM89.9453 192L80.6406 163.711L79.8906 157.875H84.6953L97.4453 192H89.9453ZM89.5234 179.297V184.805H71.5V179.297H89.5234ZM118.375 183.07C118.375 182.461 118.281 181.914 118.094 181.43C117.922 180.93 117.594 180.477 117.109 180.07C116.625 179.648 115.945 179.234 115.07 178.828C114.195 178.422 113.062 178 111.672 177.562C110.125 177.062 108.656 176.5 107.266 175.875C105.891 175.25 104.672 174.523 103.609 173.695C102.562 172.852 101.734 171.875 101.125 170.766C100.531 169.656 100.234 168.367 100.234 166.898C100.234 165.477 100.547 164.188 101.172 163.031C101.797 161.859 102.672 160.859 103.797 160.031C104.922 159.188 106.25 158.539 107.781 158.086C109.328 157.633 111.023 157.406 112.867 157.406C115.383 157.406 117.578 157.859 119.453 158.766C121.328 159.672 122.781 160.914 123.812 162.492C124.859 164.07 125.383 165.875 125.383 167.906H118.398C118.398 166.906 118.188 166.031 117.766 165.281C117.359 164.516 116.734 163.914 115.891 163.477C115.062 163.039 114.016 162.82 112.75 162.82C111.531 162.82 110.516 163.008 109.703 163.383C108.891 163.742 108.281 164.234 107.875 164.859C107.469 165.469 107.266 166.156 107.266 166.922C107.266 167.5 107.406 168.023 107.688 168.492C107.984 168.961 108.422 169.398 109 169.805C109.578 170.211 110.289 170.594 111.133 170.953C111.977 171.312 112.953 171.664 114.062 172.008C115.922 172.57 117.555 173.203 118.961 173.906C120.383 174.609 121.57 175.398 122.523 176.273C123.477 177.148 124.195 178.141 124.68 179.25C125.164 180.359 125.406 181.617 125.406 183.023C125.406 184.508 125.117 185.836 124.539 187.008C123.961 188.18 123.125 189.172 122.031 189.984C120.938 190.797 119.633 191.414 118.117 191.836C116.602 192.258 114.906 192.469 113.031 192.469C111.344 192.469 109.68 192.25 108.039 191.812C106.398 191.359 104.906 190.68 103.562 189.773C102.234 188.867 101.172 187.711 100.375 186.305C99.5781 184.898 99.1797 183.234 99.1797 181.312H106.234C106.234 182.375 106.398 183.273 106.727 184.008C107.055 184.742 107.516 185.336 108.109 185.789C108.719 186.242 109.438 186.57 110.266 186.773C111.109 186.977 112.031 187.078 113.031 187.078C114.25 187.078 115.25 186.906 116.031 186.562C116.828 186.219 117.414 185.742 117.789 185.133C118.18 184.523 118.375 183.836 118.375 183.07Z" fill="white"/>
</svg>
