<svg width="32" height="32" viewBox="0 0 32 32" fill="none" xmlns="http://www.w3.org/2000/svg">
  <path
    d="M26.5305 27.6C26.2475 27.6 25.9646 27.4958 25.7412 27.2724C25.3093 26.8405 25.3093 26.1256 25.7412 25.6937C31.1176 20.3173 31.1176 11.575 25.7412 6.21347C25.3093 5.78157 25.3093 5.06669 25.7412 4.63479C26.1731 4.20289 26.8879 4.20289 27.3198 4.63479C33.5601 10.875 33.5601 21.0322 27.3198 27.2724C27.0964 27.4958 26.8135 27.6 26.5305 27.6Z" />
  <path
    d="M5.46951 27.6C5.18654 27.6 4.90357 27.4958 4.68017 27.2724C-1.56006 21.0322 -1.56006 10.875 4.68017 4.63479C5.11207 4.20289 5.82694 4.20289 6.25884 4.63479C6.69074 5.06669 6.69074 5.78157 6.25884 6.21347C0.882417 11.5899 0.882417 20.3322 6.25884 25.6937C6.69074 26.1256 6.69074 26.8405 6.25884 27.2724C6.03545 27.4958 5.75248 27.6 5.46951 27.6Z" />
  <path
    d="M15.9966 31.9054C14.135 31.8905 12.3627 31.5926 10.7095 31.0118C10.1287 30.8033 9.81595 30.1629 10.0245 29.582C10.233 29.0012 10.8585 28.6884 11.4542 28.8969C12.8839 29.3884 14.4031 29.6565 16.0115 29.6565C17.6051 29.6565 19.1391 29.3884 20.5539 28.8969C21.1348 28.7033 21.7752 29.0012 21.9837 29.582C22.1922 30.1629 21.8794 30.8033 21.2986 31.0118C19.6306 31.5926 17.8583 31.9054 15.9966 31.9054Z" />
  <path
    d="M20.9114 3.0531C20.7922 3.0531 20.6582 3.0382 20.539 2.99352C19.1242 2.48716 17.5902 2.23397 15.9966 2.23397C14.4031 2.23397 12.8839 2.50205 11.4542 2.99352C10.8585 3.18713 10.233 2.88927 10.0245 2.30844C9.81595 1.72761 10.1287 1.0872 10.7095 0.878696C12.3776 0.297863 14.1499 0 15.9966 0C17.8434 0 19.6306 0.297863 21.2837 0.878696C21.8645 1.0872 22.1773 1.72761 21.9688 2.30844C21.805 2.77013 21.3731 3.0531 20.9114 3.0531Z" />
  <path
    d="M11.1409 15.9521V13.465C11.1409 10.3672 13.3302 9.10132 16.011 10.6502L18.1705 11.9012L20.33 13.1522C23.0107 14.7011 23.0107 17.2329 20.33 18.7818L18.1705 20.0328L16.011 21.2839C13.3302 22.8327 11.1409 21.5668 11.1409 18.4691V15.9521Z" />
</svg>