<svg width="36" height="36" viewBox="0 0 36 36" fill="none" xmlns="http://www.w3.org/2000/svg">
  <g clip-path="url(#clip0_18_10)">
    <path
      d="M6 10C6 9.44772 6.44772 9 7 9H32C32.5523 9 33 8.55229 33 8V7C33 6.44772 32.5523 6 32 6H6C4.35 6 3 7.35 3 9V24.5C3 25.0523 2.55228 25.5 2 25.5H1C0.447715 25.5 0 25.9477 0 26.5V29C0 29.5523 0.447715 30 1 30H20C20.5523 30 21 29.5523 21 29V26.5C21 25.9477 20.5523 25.5 20 25.5H7C6.44772 25.5 6 25.0523 6 24.5V10ZM34.5 12H25.5C24.675 12 24 12.675 24 13.5V28.5C24 29.325 24.675 30 25.5 30H34.5C35.325 30 36 29.325 36 28.5V13.5C36 12.675 35.325 12 34.5 12ZM33 24.5C33 25.0523 32.5523 25.5 32 25.5H28C27.4477 25.5 27 25.0523 27 24.5V16C27 15.4477 27.4477 15 28 15H32C32.5523 15 33 15.4477 33 16V24.5Z" />
  </g>
  <defs>
    <clipPath id="clip0_18_10">
      <rect width="36" height="36" />
    </clipPath>
  </defs>
</svg>