<svg width="36" height="36" viewBox="0 0 36 36" fill="none" xmlns="http://www.w3.org/2000/svg">
  <g clip-path="url(#clip0_18_7)">
    <path
      d="M18 3C9.72 3 3 9.72 3 18C3 26.28 9.72 33 18 33C26.28 33 33 26.28 33 18C33 9.72 26.28 3 18 3ZM18 7.5C20.49 7.5 22.5 9.51 22.5 12C22.5 14.49 20.49 16.5 18 16.5C15.51 16.5 13.5 14.49 13.5 12C13.5 9.51 15.51 7.5 18 7.5ZM18 28.8C14.3611 28.8 11.1318 26.9921 9.17556 24.226C9.05883 24.0609 8.99517 23.8605 9.0262 23.6607C9.45939 20.8722 15.1053 19.35 18 19.35C20.8802 19.35 26.5396 20.8722 26.9738 23.6607C27.0049 23.8604 26.9412 24.0609 26.8244 24.226C24.8682 26.9921 21.6389 28.8 18 28.8Z" />
  </g>
  <defs>
    <clipPath id="clip0_18_7">
      <rect width="36" height="36" />
    </clipPath>
  </defs>
</svg>