<svg width="32" height="32" viewBox="0 0 32 32" fill="none" xmlns="http://www.w3.org/2000/svg">
  <path
    d="M8.37818 6.24L5.76 3.63636L3.70909 5.68727L6.31273 8.29091L8.37818 6.24ZM4.36364 14.4727H0V17.3818H4.36364V14.4727ZM17.4545 0H14.5455V4.29091H17.4545V0ZM28.2909 5.68727L26.24 3.63636L23.6364 6.24L25.6873 8.29091L28.2909 5.68727ZM23.6218 25.6145L26.2255 28.2327L28.2764 26.1818L25.6582 23.5782L23.6218 25.6145ZM27.6364 14.4727V17.3818H32V14.4727H27.6364ZM16 7.2C11.1855 7.2 7.27273 11.1127 7.27273 15.9273C7.27273 20.7418 11.1855 24.6545 16 24.6545C20.8145 24.6545 24.7273 20.7418 24.7273 15.9273C24.7273 11.1127 20.8145 7.2 16 7.2ZM14.5455 31.8545H17.4545V27.5636H14.5455V31.8545ZM3.70909 26.1673L5.76 28.2182L8.36364 25.6L6.31273 23.5491L3.70909 26.1673Z"/>
</svg>