<svg width="32" height="32" viewBox="0 0 32 32" fill="none" xmlns="http://www.w3.org/2000/svg">
  <path
    d="M5.60059 16C5.60043 18.5121 6.19183 20.9889 7.3269 23.23C8.46196 25.471 10.1088 27.4133 12.1341 28.8995C14.1593 30.3857 16.5061 31.3742 18.9844 31.7848C21.4628 32.1954 24.0029 32.0167 26.3993 31.2631C23.1509 30.2422 20.3128 28.2115 18.2981 25.4665C16.2833 22.7214 15.1969 19.4051 15.1969 16C15.1969 12.5949 16.2833 9.27861 18.2981 6.53354C20.3128 3.78847 23.1509 1.7578 26.3993 0.73693C24.0029 -0.0166996 21.4628 -0.195439 18.9844 0.215184C16.5061 0.625806 14.1593 1.61425 12.1341 3.10049C10.1088 4.58673 8.46196 6.52899 7.3269 8.77003C6.19183 11.0111 5.60043 13.4879 5.60059 16Z"/>
</svg>