<svg width="682" height="138" viewBox="0 0 682 138" fill="none" xmlns="http://www.w3.org/2000/svg">
<g clip-path="url(#clip0_75_184)">
<mask id="mask0_75_184" style="mask-type:luminance" maskUnits="userSpaceOnUse" x="0" y="0" width="682" height="138">
<path d="M682 0H0V138H682V0Z" fill="white"/>
</mask>
<g mask="url(#mask0_75_184)">
<path fill-rule="evenodd" clip-rule="evenodd" d="M4.18227 -9.91002e-05H111.888C120.363 0.435679 129.65 2.39161 135.477 9.17153C141.044 15.8501 141.906 25.0116 141.635 33.4028C141.284 41.2266 142.769 49.4962 139.509 56.8843C137.794 61.0392 134.585 64.2822 131.205 67.0997C135.367 70.4845 139.018 74.7107 140.803 79.8791C143.26 86.4157 142.568 93.5201 142.638 100.371C142.638 106.259 143.09 112.329 141.144 117.984C139.16 123.914 135.092 128.901 129.71 132C121.787 136.723 112.36 137.665 103.353 137.949C71.2189 137.949 39.0913 137.949 6.97044 137.949C4.07194 138.233 1.06312 137.179 0 134.22V4.05366C0.291934 3.07087 0.830481 2.1811 1.56332 1.47077C2.29615 0.760454 3.19835 0.253753 4.18227 -9.91002e-05ZM37.821 31.3152C37.821 37.9025 37.821 44.4898 37.821 51.0772C57.639 51.0165 77.4605 51.0165 97.2853 51.0772C99.8219 51.0278 102.348 50.7291 104.827 50.1855C105.849 44.2312 105.822 38.1415 104.747 32.1969C101.29 31.5834 97.7863 31.2783 94.2764 31.2847C75.4713 31.2847 56.6763 31.2847 37.871 31.2847L37.821 31.3152ZM37.821 82.7168C37.821 89.892 37.821 97.0739 37.821 104.263C58.301 104.263 78.781 104.313 99.261 104.263C101.528 103.989 105.379 104.506 105.75 101.344C106.051 95.4557 107.014 89.0912 104.858 83.4769C102.029 82.9544 99.1583 82.6931 96.2823 82.6965C76.8053 82.6965 57.318 82.6965 37.841 82.6965L37.821 82.7168ZM201.863 -9.91002e-05H296.46C304.202 0.395143 312.507 1.2363 318.915 6.08054C324.602 10.4282 327.381 17.5223 328.282 24.4745C329.718 35.8958 328.905 47.4391 329.094 58.9314C316.217 58.9314 303.329 58.9314 290.453 58.9314C290.453 50.4185 290.532 41.8954 290.453 33.3825C262.751 33.2103 235.05 33.3825 207.349 33.3014C207.349 41.855 207.349 50.4083 207.349 58.9619C194.491 58.8808 181.643 58.9619 168.785 58.9619C168.996 48.0977 168.384 37.193 169.296 26.3595C170.209 18.9411 172.396 10.8538 178.614 6.17175C185.333 1.31737 193.879 0.395143 201.902 0.0911104L201.863 -9.91002e-05ZM360.326 -9.91002e-05H467.1C476.627 0.445813 487.921 2.46256 493.347 11.3606C499.464 21.2822 497.46 33.5043 497.781 44.5912C497.399 56.4181 499.785 69.755 492.223 79.9197C485.524 88.5948 473.729 89.7298 463.62 89.9527C478.613 102.489 493.326 115.36 508.2 128.017C508.8 128.441 509.31 128.979 509.705 129.602C510.098 130.225 510.365 130.921 510.491 131.648C510.62 132.376 510.603 133.122 510.442 133.843C510.283 134.565 509.985 135.247 509.564 135.851C507.96 138.152 504.901 137.878 502.464 137.949C490.428 137.878 478.394 137.949 466.358 137.949C465.281 138.059 464.194 137.915 463.182 137.53C462.169 137.145 461.259 136.529 460.52 135.73C446.831 122.14 433.01 108.722 419.23 95.2632C417.305 93.4999 415.689 91.2094 413.352 89.9933C406.993 89.6994 400.625 89.9933 394.296 89.8716C393.554 104.415 394.366 119.008 393.884 133.551C393.784 137.017 390.083 138.263 387.185 137.98C378.159 137.828 369.132 138.314 360.105 137.726C356.265 137.351 355.883 132.76 355.913 129.72C355.913 88.8582 355.913 47.9829 355.913 7.09397C355.692 4.05366 357.056 0.577562 360.408 -9.91002e-05H360.326ZM393.966 32.7137C393.966 34.9939 393.966 37.2741 393.966 39.5543C394.126 45.5337 393.654 51.5333 394.306 57.4923C414.004 57.4518 433.699 57.4518 453.39 57.4923C455.608 57.5163 457.813 57.121 459.889 56.3268C460.426 48.9962 460.426 41.6355 459.889 34.3049C458.213 32.4806 455.485 32.9063 453.269 32.6935C433.512 32.6935 413.743 32.6935 393.975 32.6935L393.966 32.7137ZM528.671 -9.91002e-05H560.464C562.469 1.33764 564.035 3.44559 563.784 6.01973C563.784 19.8126 563.784 33.6056 563.784 47.3984C580.331 34.5684 596.71 21.4949 613.209 8.58373C616.979 5.72582 620.49 2.50309 624.542 -9.91002e-05H668.781C672.652 1.71261 673.465 7.39801 669.784 9.77958C653.617 21.8699 637.33 33.8083 621.151 45.8884C612.576 52.4048 603.67 58.4955 595.335 65.3261C623.178 85.7469 650.758 106.533 678.581 127.004C680.011 127.972 681.188 129.276 682.009 130.804V134.585C680.787 136.237 679.202 137.919 676.996 137.625C661.389 137.625 645.754 137.909 630.159 137.463C624.873 134.645 620.52 130.318 615.655 126.832C598.414 113.566 581.115 100.381 563.904 87.0746C563.702 101.952 563.904 116.839 563.804 131.717C564.074 134.757 561.868 137.797 558.698 137.625C550.004 137.757 541.298 137.625 532.621 137.686C530.445 137.625 527.828 137.919 526.304 135.993C524.909 134.605 525.01 132.517 524.97 130.713C525.01 89.1353 525.01 47.5606 524.97 5.98933C524.828 4.69888 525.121 3.39818 525.799 2.29565C526.478 1.19312 527.503 0.352577 528.711 -0.0913086L528.671 -9.91002e-05ZM169.146 110.465C168.434 100.553 168.895 90.6115 168.765 80.6799C181.593 80.6799 194.421 80.6799 207.249 80.6799C207.388 88.3009 207.328 95.8814 207.249 103.533C234.959 103.533 262.67 103.533 290.392 103.533C290.438 95.9321 290.438 88.3313 290.392 80.7305C303.169 80.7305 315.957 80.7305 328.733 80.7305C329.336 87.9258 328.924 95.1617 329.045 102.377C328.673 111.498 328.182 121.633 322.074 128.94C315.696 136.53 305.075 137.564 295.867 137.98C269.12 138.051 242.371 137.98 215.633 137.98C207.609 137.929 199.586 138.284 191.642 137.027C185.855 135.892 179.787 133.987 175.755 129.396C171.282 124.187 169.798 117.133 169.086 110.465H169.146Z" fill="black"/>
</g>
</g>
<defs>
<clipPath id="clip0_75_184">
<rect width="682" height="138" fill="white"/>
</clipPath>
</defs>
</svg>
