<svg width="819" height="183" viewBox="0 0 819 183" fill="none" xmlns="http://www.w3.org/2000/svg">
<g clip-path="url(#clip0_75_170)">
<path fill-rule="evenodd" clip-rule="evenodd" d="M350.297 88.4438C355.247 86.5338 359.492 83.1615 362.467 78.7784C365.442 74.3955 367.003 69.2105 366.942 63.9181C366.942 41.8449 351.243 30.9026 329.681 30.9026H273.126V150.928H334.598C353.513 150.928 372.049 137.722 372.049 117.535C372.049 93.5376 350.297 88.6702 350.297 88.4438ZM302.633 55.8057H324.574C325.979 55.7189 327.386 55.9093 328.718 56.3658C330.049 56.8226 331.277 57.5364 332.331 58.4671C333.386 59.3976 334.245 60.5261 334.861 61.7885C335.478 63.0508 335.837 64.422 335.922 65.8235C335.922 66.2512 335.922 66.6851 335.922 67.1253C335.862 70.0759 334.636 72.8837 332.51 74.9367C330.386 76.9897 327.532 78.1219 324.574 78.0864H302.444L302.633 55.8057ZM324.763 125.798H302.822V102.216H324.195C334.977 102.216 340.084 106.932 340.084 113.913C340.084 122.629 333.653 125.798 324.763 125.798Z" fill="#ED0007"/>
<path fill-rule="evenodd" clip-rule="evenodd" d="M437.115 27.884C402.312 27.884 381.885 55.617 381.885 90.7078C381.885 125.798 402.312 153.531 437.115 153.531C471.918 153.531 492.346 125.987 492.346 90.7078C492.346 55.4284 472.107 27.884 437.115 27.884ZM437.115 124.855C420.092 124.855 411.581 109.574 411.581 90.7078C411.581 71.8418 420.092 56.749 437.115 56.749C454.138 56.749 462.839 72.0304 462.839 90.7078C462.839 109.762 454.138 124.855 437.115 124.855Z" fill="#ED0007"/>
<path fill-rule="evenodd" clip-rule="evenodd" d="M556.466 78.0675L552.305 77.1242C542.091 75.0489 533.958 72.4077 533.958 65.0499C533.958 57.1262 541.713 53.919 548.522 53.919C553.167 53.9881 557.748 55.0121 561.98 56.9274C566.211 58.8427 569.999 61.6077 573.111 65.0499L591.836 46.5613C583.325 36.9396 569.517 27.6953 547.955 27.6953C522.609 27.6953 503.316 41.8448 503.316 65.4273C503.316 86.9345 518.826 97.4994 537.741 101.461L541.902 102.405C557.601 105.612 563.464 108.064 563.464 115.611C563.464 122.78 557.034 127.496 547.198 127.496C535.471 127.496 524.879 122.403 516.746 112.026L497.642 130.892C508.234 143.532 521.663 153.343 547.576 153.343C570.085 153.343 594.106 140.514 594.106 114.29C594.484 86.9345 573.678 81.652 556.466 78.0675Z" fill="#ED0007"/>
<path fill-rule="evenodd" clip-rule="evenodd" d="M661.442 124.855C648.202 124.855 634.394 113.913 634.394 89.9529C634.394 68.6344 647.256 56.7488 660.685 56.7488C671.277 56.7488 677.519 61.6539 682.437 70.1436L706.648 54.1076C694.542 35.8076 680.167 28.0725 660.307 28.0725C623.991 28.0725 604.32 56.1828 604.32 90.1416C604.32 125.798 626.072 153.72 659.929 153.72C683.761 153.72 695.11 145.419 707.404 127.685L683.004 111.309C678.087 119.195 672.791 124.855 661.442 124.855Z" fill="#ED0007"/>
<path fill-rule="evenodd" clip-rule="evenodd" d="M787.413 30.9026V75.049H750.908V30.9026H719.32V150.89H750.908V103.537H787.413V150.89H819V30.9026H787.413Z" fill="#ED0007"/>
<path d="M153.586 0C135.555 0 117.928 5.33319 102.936 15.3251C87.9434 25.317 76.2582 39.5191 69.3578 56.1352C62.4575 72.7512 60.6521 91.035 64.1699 108.674C67.6876 126.314 76.3705 142.517 89.1206 155.234C101.871 167.951 118.115 176.612 135.8 180.121C153.485 183.63 171.816 181.829 188.475 174.946C205.134 168.064 219.373 156.408 229.39 141.454C239.407 126.5 244.754 108.919 244.754 90.934C244.754 66.8169 235.149 43.6874 218.053 26.634C200.954 9.58052 177.766 0 153.586 0ZM153.586 173.378C137.238 173.378 121.257 168.543 107.665 159.484C94.0719 150.425 83.4775 137.549 77.2215 122.484C70.9653 107.419 69.3284 90.8425 72.5178 74.85C75.7072 58.8573 83.5794 44.1671 95.1392 32.637C106.699 21.1071 121.427 13.255 137.461 10.0738C153.494 6.8927 170.114 8.52537 185.218 14.7654C200.32 21.0054 213.229 31.5726 222.312 45.1304C231.395 58.6883 236.243 74.6282 236.243 90.934C236.237 112.798 227.527 133.765 212.028 149.225C196.528 164.686 175.507 173.373 153.586 173.378Z" fill="black"/>
<path d="M191.226 34.1475H184.985V65.2763H122.377V34.1475H115.946C106.527 40.3455 98.7968 48.7776 93.4481 58.6883C88.0994 68.5992 85.2997 79.6786 85.2997 90.9341C85.2997 102.189 88.0994 113.269 93.4481 123.18C98.7968 133.09 106.527 141.523 115.946 147.721H122.377V116.63H184.985V147.758H191.226C200.649 141.563 208.383 133.132 213.736 123.221C219.087 113.31 221.888 102.229 221.888 90.9718C221.888 79.7147 219.087 68.6335 213.736 58.7225C208.383 48.8114 200.649 40.3802 191.226 34.1852V34.1475ZM113.677 135.496C107.81 130.297 103.029 123.996 99.6038 116.954C96.179 109.912 94.1786 102.266 93.7167 94.452C93.2548 86.6385 94.3403 78.8108 96.9115 71.4159C99.4828 64.021 103.489 57.2036 108.702 51.3532C110.264 49.6125 111.925 47.9621 113.677 46.4103V135.496ZM184.985 107.951H122.377V73.766H184.985V107.951ZM193.496 135.307V116.441V65.2763V46.4103C199.348 51.6513 204.107 57.9912 207.5 65.0675C210.895 72.1435 212.859 79.8177 213.279 87.651C213.699 95.4842 212.567 103.323 209.948 110.72C207.33 118.117 203.275 124.927 198.016 130.76C196.587 132.338 195.077 133.842 193.496 135.269V135.307Z" fill="black"/>
</g>
<defs>
<clipPath id="clip0_75_170">
<rect width="819" height="183" fill="white"/>
</clipPath>
</defs>
</svg>
