<svg width="369" height="375" viewBox="0 0 369 375" fill="none" xmlns="http://www.w3.org/2000/svg">
<g clip-path="url(#clip0_75_190)">
<mask id="mask0_75_190" style="mask-type:luminance" maskUnits="userSpaceOnUse" x="0" y="0" width="369" height="375">
<path d="M368.032 0H0V374.784H368.032V0Z" fill="white"/>
</mask>
<g mask="url(#mask0_75_190)">
<path d="M112.992 312.679V347.704C112.992 357.651 108.062 362.962 99.1041 362.962C90.0961 362.962 85.1368 357.498 85.1368 347.28V312.717H72.7438V347.704C72.7438 364.919 82.2925 374.784 98.9409 374.784C115.747 374.784 125.385 364.73 125.385 347.198V312.679H112.992ZM158.588 312.679L131.671 373.831H144.322L149.517 361.987L149.889 361.098H177.852L183.336 373.828H196.33L169.664 313.04L169.424 312.679H158.588ZM232.275 312.679L218.405 354.755L204.904 312.709H191.715L213.005 373.867H223.267L237.165 333.693L251.053 373.867H261.402L282.64 312.709H269.788L256.259 354.755L242.385 312.679H232.275ZM353.554 312.679V373.776H365.783V312.679H353.554ZM2.77502 312.682V373.864H15.1715V349.016H43.1618V373.864H55.5618V312.682H43.1618V337.363H15.1715V312.682H2.77502ZM292.636 312.723V373.823H338.772V362.682H304.865V347.532H327.412V336.389H304.865V323.863H337.591V312.723H292.636ZM163.839 328.161L172.677 348.646H172.646L173.247 350.058H154.498L155.092 348.646L163.839 328.161Z" fill="#232527"/>
<path d="M157.143 -0.00170898C152.226 0.433833 138.939 3.46257 138.939 3.46257C108.989 11.2147 101.905 38.4318 101.905 38.4318C100.442 43.0084 99.7782 47.6989 99.5827 52.1179V58.1321C99.9801 67.4247 102.044 74.3633 102.044 74.3633C112.048 118.786 161.236 191.78 171.808 207.113C172.558 207.858 173.159 207.589 173.159 207.589C174.299 207.274 174.21 206.178 174.21 206.178L174.232 206.183C190.515 43.1997 157.143 -0.00170898 157.143 -0.00170898ZM210.945 -0.00170898C210.945 -0.00170898 177.428 43.2227 193.723 206.301H193.744C193.87 207.336 194.604 207.552 194.604 207.552C195.694 207.975 196.254 206.926 196.254 206.926L196.259 206.936C207.102 191.211 256.01 118.615 265.97 74.3625C265.97 74.3625 271.37 52.944 266.157 38.4309C266.157 38.4309 258.753 10.7924 228.766 3.48855C228.766 3.48855 220.123 1.2924 210.945 -0.00170898ZM56.346 48.9263C56.346 48.9263 27.8097 76.0495 26.3915 104.804H26.4028V109.161C26.4245 109.489 26.441 109.821 26.4617 110.155C27.6909 133.342 45.1093 147.065 45.1093 147.065C73.1738 174.457 141.129 209.039 156.92 216.886C157.141 216.969 157.957 217.236 158.436 216.629C158.436 216.629 158.685 216.44 158.799 216.1V215.378C158.788 215.336 158.766 215.295 158.745 215.249C115.501 120.646 56.346 48.9263 56.346 48.9263ZM311.671 48.9263C311.671 48.9263 252.691 120.421 209.466 214.833L209.483 214.828C209.483 214.828 208.972 215.922 209.798 216.629C209.798 216.629 210.044 216.815 210.385 216.891H210.983C211.09 216.86 211.205 216.819 211.319 216.741C227.539 208.68 294.968 174.334 322.9 147.07C322.9 147.07 340.59 132.845 341.516 110.005C343.558 78.283 311.671 48.9263 311.671 48.9263ZM364.758 142.847C364.758 142.847 268.601 194.524 218.883 228.108L218.9 228.123C218.9 228.123 217.998 228.715 218.313 229.775C218.313 229.775 218.784 230.631 219.471 230.631C237.28 230.662 304.666 230.743 306.355 230.428C306.355 230.428 315.069 230.079 325.835 225.937C325.835 225.937 349.807 218.306 362.257 191.053C362.257 191.053 367.945 179.658 368.027 163.649V162.97C367.986 156.796 367.117 149.962 364.758 142.847ZM3.23285 143.088C-5.51606 170.211 6.26215 192.067 6.28117 192.102C18.5555 218.073 41.9854 225.943 41.9854 225.943C52.8025 230.393 63.6224 230.701 63.6224 230.701C65.3119 231.01 130.904 230.732 148.479 230.649C149.222 230.644 149.632 229.895 149.632 229.895C149.683 229.812 149.729 229.729 149.749 229.654V228.975C149.604 228.521 149.215 228.201 149.215 228.201L149.227 228.195C99.5335 194.622 3.23285 143.088 3.23285 143.088ZM146.471 238.987L33.353 242.96C45.6202 264.859 66.2795 281.877 87.8007 276.651C102.653 272.933 136.298 249.431 147.405 241.489L147.368 241.458C148.232 240.682 147.923 240.058 147.923 240.058C147.639 239.041 146.471 239.042 146.471 239.042L146.471 238.987ZM221.392 239.07L221.381 239.111C221.381 239.111 220.388 239.238 220.11 239.982C220.11 239.982 219.869 241.001 220.537 241.506L220.526 241.516C231.356 249.294 264.187 272.279 280.003 276.742C280.003 276.742 282.4 277.557 286.415 277.705H288.829C299.423 277.333 317.884 271.881 334.658 243.019L221.392 239.07Z" fill="#CF0A2C"/>
</g>
</g>
<defs>
<clipPath id="clip0_75_190">
<rect width="369" height="375" fill="white"/>
</clipPath>
</defs>
</svg>
