<svg width="780" height="342" viewBox="0 0 780 342" fill="none" xmlns="http://www.w3.org/2000/svg">
<g clip-path="url(#clip0_75_235)">
<path d="M171.161 342C265.612 342 342.323 265.527 342.323 171.038C342.323 76.5436 265.612 0 171.161 0C76.5643 0 0 76.5436 0 171.038C0 265.527 76.5643 342 171.161 342Z" fill="#A50034"/>
<path d="M164.275 95.9773V246.023H211.983V232.531H178.026V95.9773H164.275Z" fill="white"/>
<path d="M116.505 136.917C127.855 136.917 137.004 127.689 137.004 116.421C137.004 105.143 127.855 95.8799 116.505 95.8799C105.155 95.8799 96.0054 105.143 96.0054 116.421C96.0054 127.698 105.155 136.917 116.505 136.917Z" fill="white"/>
<path d="M178.021 27.9129C176.232 27.8243 172.831 27.7136 171.206 27.7136C92.2013 27.7136 27.9039 92.0232 27.9039 170.967C27.9039 209.312 42.8058 245.252 69.7975 272.28C96.8999 299.245 132.864 314.145 171.206 314.145C209.401 314.145 245.356 299.245 272.41 272.28C299.468 245.252 314.441 209.312 314.441 170.967V164.595H308.644H212.116V177.781H300.792C300.792 178.069 300.792 179.468 300.73 179.831C296.222 247.32 239.847 300.773 171.206 300.773C136.46 300.773 103.879 287.263 79.3586 262.729C54.7583 238.296 41.2027 205.747 41.2027 170.962C41.2027 136.377 54.7583 103.66 79.3586 79.1515C103.879 54.6657 136.46 41.1565 171.206 41.1565C172.702 41.1565 176.343 41.1565 178.021 41.245V27.9129Z" fill="white"/>
<path d="M471.046 57.5705H419.613V280.192H577.587V236.857H471.046V57.5705ZM690.73 195.355H732.619V234.28C724.896 237.22 709.835 240.151 695.504 240.151C649.213 240.151 633.793 216.644 633.793 168.899C633.793 123.368 648.478 96.522 694.769 96.522C720.494 96.522 735.188 104.607 747.295 120.038L779.274 90.6418C759.797 62.7466 725.622 54.2983 693.671 54.2983C621.646 54.2983 583.813 93.5996 583.813 168.527C583.813 243.092 617.979 283.495 693.308 283.495C727.837 283.495 761.639 274.684 780 261.83V153.836H690.73V195.355Z" fill="#6B6B6B"/>
</g>
<defs>
<clipPath id="clip0_75_235">
<rect width="780" height="342" fill="white"/>
</clipPath>
</defs>
</svg>
