<svg width="1212" height="244" viewBox="0 0 1212 244" fill="none" xmlns="http://www.w3.org/2000/svg">
<g clip-path="url(#clip0_75_220)">
<mask id="mask0_75_220" style="mask-type:luminance" maskUnits="userSpaceOnUse" x="0" y="0" width="1212" height="244">
<path d="M1212 0H0V244H1212V0Z" fill="white"/>
</mask>
<g mask="url(#mask0_75_220)">
<path d="M845.507 55.9526V4.25287C912.363 3.23773 915.067 2.34472 937.172 2.91868C971.148 3.78269 991.634 13.5615 1006.37 28.593C1020.57 43.0813 1031.83 65.1758 1031.31 97.2445C1031 115.709 1019.68 183.636 937.726 187.875C928.115 188.739 906.048 187.977 892.032 188.307L905.889 135.264C938.358 137.99 964.12 127.666 965.491 96.698C966.995 61.9321 936.41 50.8937 905.896 56.3371L845.507 55.9526Z" fill="#0081C4"/>
<path d="M905.859 238.305L845.507 238.296V44.9346L905.859 45.3283V238.305Z" fill="#0081C4"/>
<path d="M1122.79 86.6859L1172.33 104.463C1205.3 117.579 1212.31 144.194 1211.99 167.116C1211.26 220.281 1169.16 240.213 1135.6 243.09C1097.44 246.354 1067.9 239.914 1057.97 238.288V180.43C1088.17 189.673 1123.32 189.305 1135.19 184.643C1144.17 181.117 1150.99 175.73 1150.45 168.66C1150.15 164.823 1149.77 159.945 1138.42 155.057L1092.74 138.36C1063.4 127.717 1052.08 99.6537 1053.31 74.6556C1055.79 24.1495 1095.83 -1.41339 1135.82 0.0642661C1148.15 0.514585 1164.77 0.223023 1188.94 3.5905V60.911C1161.86 54.5651 1149.16 54.669 1135.19 56.4184C1119.56 58.363 1112.55 66.5056 1112.87 75.2034C1113.03 79.6121 1117.4 84.4451 1122.79 86.6082" fill="#0081C4"/>
<path d="M275.618 91.4715H340.607L340.589 4.46948H400.95V238.343H340.607V144.45H275.618L275.609 238.343H215.184V4.46948H275.609L275.618 91.4715Z" fill="#0081C4"/>
<path d="M518.197 4.46948H457.8V238.343H518.197V4.46948Z" fill="#0081C4"/>
<path d="M788.077 4.46948H727.669V238.343H788.077V4.46948Z" fill="#0081C4"/>
<path d="M635.446 185.243H697.72V238.324L575.031 238.343V4.46948H635.446V185.243Z" fill="#0081C4"/>
<path d="M0 55.9526V4.25287C66.8629 3.23773 69.5614 2.34472 91.6741 2.91868C125.637 3.78269 146.128 13.5615 160.87 28.593C175.061 43.0813 186.334 65.1758 185.812 97.2445C185.494 115.709 174.175 183.636 92.2151 187.875C82.6144 188.739 61.2363 187.977 47.2226 188.307L60.4152 135.264C92.8954 137.99 118.64 127.666 119.982 96.698C121.483 61.9321 90.8893 50.8937 60.3879 56.3371L0 55.9526Z" fill="#0081C4"/>
<path d="M60.4441 238.304L0 238.295V48.9475L60.3879 49.3335L60.4441 238.304Z" fill="#0081C4"/>
</g>
</g>
<defs>
<clipPath id="clip0_75_220">
<rect width="1212" height="244" fill="white"/>
</clipPath>
</defs>
</svg>
