<svg width="324" height="324" viewBox="0 0 324 324" fill="none" xmlns="http://www.w3.org/2000/svg">
<g clip-path="url(#clip0_75_207)">
<mask id="mask0_75_207" style="mask-type:luminance" maskUnits="userSpaceOnUse" x="0" y="0" width="324" height="324">
<path d="M324 0H0V324H324V0Z" fill="white"/>
</mask>
<g mask="url(#mask0_75_207)">
<mask id="mask1_75_207" style="mask-type:luminance" maskUnits="userSpaceOnUse" x="-1201" y="-335" width="1819" height="1287">
<path d="M-1200.78 -334.016H617.706V951.787H-1200.78V-334.016Z" fill="white"/>
</mask>
<g mask="url(#mask1_75_207)">
<path fill-rule="evenodd" clip-rule="evenodd" d="M311.66 323.977H12.2701C5.47695 323.977 -0.0294189 318.47 -0.0294189 311.676V12.2655C-0.0294189 5.47189 5.47695 -0.0317383 12.2701 -0.0317383H311.66C318.454 -0.0317383 323.96 5.47189 323.96 12.2655V311.676C323.96 318.47 318.454 323.977 311.66 323.977Z" fill="#FF6700"/>
<path d="M254.022 101.875H228.533C227.442 101.875 226.558 102.744 226.558 103.813V220.117C226.558 221.177 227.442 222.045 228.533 222.045H254.022C255.104 222.045 256 221.177 256 220.117V103.813C256 102.744 255.104 101.875 254.022 101.875Z" fill="white"/>
<path d="M166.992 101.875H69.9012C68.8097 101.875 67.9326 102.743 67.9326 103.813V220.116C67.9326 221.176 68.8097 222.045 69.9012 222.045H95.3962C96.4816 222.045 97.381 221.176 97.381 220.116V128.835C97.381 127.781 98.2581 126.907 99.3495 126.907H154.268C169.711 126.907 174.095 138.736 174.095 146.367V220.116C174.095 221.176 174.982 222.045 176.074 222.045H201.553C202.638 222.045 203.528 221.176 203.528 220.116V137.61C203.528 130.804 202.71 121.018 193.929 112.405C184.742 103.413 176.362 101.875 166.992 101.875Z" fill="white"/>
<path d="M149.134 148.199H122.367C121.276 148.199 120.38 149.067 120.38 150.131V220.126C120.38 221.183 121.276 222.052 122.367 222.052H149.134C150.216 222.052 151.103 221.183 151.103 220.126V150.131C151.103 149.067 150.216 148.199 149.134 148.199Z" fill="white"/>
</g>
</g>
</g>
<defs>
<clipPath id="clip0_75_207">
<rect width="324" height="324" fill="white"/>
</clipPath>
</defs>
</svg>
